<svg xmlns="http://www.w3.org/2000/svg" width="80" height="80" fill="none"><g clip-path="url(#a)"><path fill="#388CC8" fill-rule="evenodd" d="M9.75 28.87A13.02 13.02 0 0 1 22.67 14 13.02 13.02 0 0 1 35.6 28.88c1.9 0 4.1.44 5.98 1.97 2.29 1.87 3.57 4.96 3.8 9.17.04.52-.33 1-.85 1.09-.7.12-1.52.2-2.43.2h-.01c-3.4 0-7.9-1.17-9.94-5.46a13.12 13.12 0 0 1-4.78 3.17c7.34 1.07 13 7.36 13 14.92v10.71a1.05 1.05 0 0 1-2.11 0v-10.7c0-3.2-1.17-6.13-3.1-8.4l-4.4 5c-.2.23-.5.36-.79.36h-.04c-.31 0-.6-.17-.8-.42l-6.5-8.54-6.52 8.54c-.19.25-.48.4-.8.42h-.03c-.31 0-.6-.13-.8-.36l-4.33-4.93a12.87 12.87 0 0 0-3.05 8.32v10.71a1.05 1.05 0 0 1-2.1 0v-10.7c0-7.57 5.66-13.86 13-14.93a13.12 13.12 0 0 1-4.77-3.15c-2.05 4.28-6.5 5.44-9.92 5.44-.9 0-1.75-.09-2.45-.21C.34 41-.03 40.53 0 40c.2-3.4 1.56-11.11 9.75-11.14Zm15.38 12.08c3.25 0 6.23 1.18 8.52 3.12l-3.63 4.15-5.54-7.27h.65Zm-13.5 3.18 3.58 4.09 5.53-7.27h-.53c-3.28 0-6.29 1.2-8.59 3.18Zm-1.37-13.17c-3.35-.14-7.36 1.23-8.09 8.2 2.25.19 7.83.08 9.54-5.18-.6-.93-1.1-1.94-1.45-3.02Zm23.39 3c1.7 5.28 7.3 5.38 9.55 5.2-.33-3.1-1.32-5.36-2.96-6.7a7.49 7.49 0 0 0-5.16-1.49 12.85 12.85 0 0 1-1.43 2.98ZM22.67 16.08h-.46l-.05.2c-.16.44-1.38 4.35 3.24 6.64 1.36.68 2.4.93 3.4 1.16h.02c1.54.37 2.92.7 4.8 2.34A10.93 10.93 0 0 0 22.67 16.1Zm-2.97.54.01-.14a10.9 10.9 0 0 0-8 10.24c8.1-2.1 8-9.77 8-10.1Zm-7.74 12.2-.08.02c.91 5.08 5.4 8.95 10.8 8.95 5.27 0 9.7-3.72 10.72-8.66-2.18-2.34-3.4-2.63-5.09-3.02a16.46 16.46 0 0 1-3.85-1.33 8.5 8.5 0 0 1-3.69-3.26c-1.15 2.82-3.61 6.05-8.81 7.3ZM58.7 40.88a12.23 12.23 0 0 1-7.67-11.31c0-6.74 5.52-12.21 12.32-12.21 6.8 0 12.33 5.47 12.33 12.21 0 5.1-3.18 9.49-7.67 11.3A14.3 14.3 0 0 1 80 54.9v10.06a1.05 1.05 0 0 1-2.1 0V54.9c0-4.36-2.34-8.19-5.84-10.33-1.5 2.02-4.98 3.36-8.97 3.36-3.85 0-7.22-1.22-8.82-3.13a12.1 12.1 0 0 0-5.48 10.1v10.06a1.05 1.05 0 0 1-2.1 0V54.9c0-7.04 5.2-12.91 12-14.02Zm4.65-21.43A10.2 10.2 0 0 0 53.15 29c1.08-.95 2.64-2 4.55-2.3 2.03-.34 4.03.2 5.94 1.6 1.73 1.28 2.69.83 4.15.14h.02c1.48-.69 3.24-1.5 5.68-.15a10.2 10.2 0 0 0-10.14-8.83Zm0 20.26a10.2 10.2 0 0 1-9.98-7.95c.53-.66 2.3-2.64 4.67-3.02a5.7 5.7 0 0 1 4.33 1.24c2.74 2 4.72 1.09 6.3.35h.02c1.56-.74 2.69-1.26 4.8.48-.6 5.01-4.92 8.9-10.14 8.9Zm2.3 3.06c1.59 0 3.1.3 4.49.85-1.1 1.18-3.64 2.23-7.05 2.23-3.25 0-5.72-.96-6.9-2.08 1.48-.64 3.12-1 4.84-1h4.63Z" clip-rule="evenodd"/><path fill="#388CC8" fill-rule="evenodd" d="M19.2 51.87a3.39 3.39 0 0 0 3.4 3.37c1.88 0 3.4-1.51 3.4-3.37a3.39 3.39 0 0 0-3.4-3.37 3.39 3.39 0 0 0-3.4 3.37Zm2.11-.01c0-.71.58-1.28 1.3-1.28.71 0 1.3.57 1.3 1.28a1.3 1.3 0 0 1-2.6 0ZM19.2 62.2a3.39 3.39 0 0 0 3.4 3.37c1.88 0 3.4-1.51 3.4-3.37a3.39 3.39 0 0 0-3.4-3.37 3.39 3.39 0 0 0-3.4 3.37Zm2.11 0c0-.72.58-1.29 1.3-1.29.71 0 1.3.57 1.3 1.28a1.3 1.3 0 0 1-2.6 0Z" clip-rule="evenodd"/><path fill="#388CC8" d="M75.64 61.59H50.9c-.58 0-1.05-.47-1.05-1.04 0-.58.47-1.05 1.05-1.05h24.74c.58 0 1.06.47 1.06 1.05 0 .57-.48 1.04-1.06 1.04ZM50.9 53.98h24.74c.58 0 1.06-.47 1.06-1.05 0-.57-.48-1.04-1.06-1.04H50.9c-.58 0-1.05.47-1.05 1.04 0 .58.47 1.05 1.05 1.05Z"/><path fill="#fff" d="M53.37 31.76c1 4.55 5.1 7.95 9.98 7.95a10.2 10.2 0 0 0 10.15-8.9c-2.12-1.74-3.25-1.22-4.81-.49h-.01c-1.59.75-3.57 1.67-6.3-.34a5.7 5.7 0 0 0-4.34-1.24c-2.37.38-4.14 2.36-4.67 3.02Zm16.77 11.86c-1.39-.55-2.9-.85-4.48-.85h-4.63c-1.72 0-3.36.36-4.85 1 1.19 1.12 3.66 2.08 6.9 2.08 3.42 0 5.95-1.05 7.06-2.23Z"/><path fill="#fff" d="M53.15 29a10.2 10.2 0 0 1 10.2-9.55c5.2 0 9.49 3.85 10.14 8.83-2.44-1.36-4.2-.54-5.68.15h-.02c-1.46.7-2.42 1.14-4.15-.13a7.67 7.67 0 0 0-5.94-1.62A9.26 9.26 0 0 0 53.15 29Zm-41.27-.15.08-.02c5.2-1.25 7.66-4.48 8.81-7.3a8.5 8.5 0 0 0 3.69 3.26 16.2 16.2 0 0 0 3.85 1.33c1.68.39 2.91.68 5.1 3.02a10.95 10.95 0 0 1-10.74 8.66c-5.39 0-9.88-3.87-10.79-8.95ZM22.2 16.1l.47-.01c5.87 0 10.67 4.6 10.95 10.34-1.88-1.64-3.26-1.97-4.8-2.34h-.02c-1-.23-2.04-.48-3.4-1.16-4.62-2.29-3.4-6.2-3.24-6.64l.05-.2Z"/><path fill="#fff" d="M19.71 16.49v.14c0 .33.1 8-8 10.1a10.9 10.9 0 0 1 8-10.24ZM2.17 39.17c.73-6.98 4.74-8.35 8.09-8.2.35 1.07.84 2.08 1.45 3-1.71 5.27-7.29 5.38-9.54 5.2Zm41.03 0c-2.25.17-7.85.07-9.55-5.22.6-.92 1.08-1.92 1.43-2.98a7.5 7.5 0 0 1 5.16 1.5c1.64 1.33 2.63 3.59 2.95 6.7Zm-9.55 4.9a13.13 13.13 0 0 0-8.52-3.12h-.65l5.54 7.27 3.63-4.15ZM22.6 50.58c-.7 0-1.29.57-1.29 1.28 0 .7.58 1.28 1.3 1.28.71 0 1.3-.57 1.3-1.28a1.3 1.3 0 0 0-1.3-1.28Zm0 10.33c-.7 0-1.29.57-1.29 1.28a1.3 1.3 0 0 0 2.6 0c0-.7-.59-1.28-1.3-1.28Zm-7.4-12.69-3.58-4.1c2.3-1.97 5.3-3.17 8.59-3.17h.53l-5.53 7.27Z"/></g><defs><clipPath id="a"><path fill="#fff" d="M0 0h80v80H0z"/></clipPath></defs></svg>