<svg xmlns="http://www.w3.org/2000/svg" width="80" height="80" fill="none"><path fill="#388CC8" d="M73.2 14 40.53.1a1.33 1.33 0 0 0-1.04 0L6.79 14c-.48.2-.79.66-.79 1.18v26.2c0 9.12 3.29 18.02 9.26 25.05a39.47 39.47 0 0 0 23.32 13.34l1.2.21a1.34 1.34 0 0 0 .45 0l1.19-.2a39.47 39.47 0 0 0 23.32-13.35A38.79 38.79 0 0 0 74 41.38v-26.2c0-.52-.31-.98-.79-1.19Zm-1.83 27.38a36.42 36.42 0 0 1-30.4 35.85l-.97.17-.96-.17A36.42 36.42 0 0 1 8.63 41.38V16.03L40 2.7l31.37 13.33v25.35ZM39.47 7.13l-26.11 11.1c-.48.2-.8.67-.8 1.19v21.96a32.4 32.4 0 0 0 7.69 20.86 32.84 32.84 0 0 0 19.47 11.18l.05.01a1.33 1.33 0 0 0 .46 0h.05a32.85 32.85 0 0 0 19.47-11.2 32.42 32.42 0 0 0 7.69-20.85V19.42c0-.52-.32-.98-.8-1.19L40.52 7.13c-.33-.14-.7-.14-1.04 0Zm25.34 13.14v21.11c0 14.3-10.65 26.94-24.81 29.47-14.16-2.54-24.81-15.17-24.81-29.47V20.27l24.8-10.55 24.82 10.55Zm-29.1-1.54a4.5 4.5 0 0 0-6.48 3.92v13.4c-1.59-1.72-3.55-3.06-5.67-3.24-1.48-.13-3.71.27-5.87 2.9a1.28 1.28 0 0 0 .27 1.86c4.17 2.9 4.92 4.33 5.3 6.82.12.85.36 1.67.6 2.5.63 2.04 1.72 3.85 5.48 5.43.36.16.5.63.5 1.03v3.83c0 .7.58 1.29 1.3 1.29h21.42a1.3 1.3 0 0 0 1.32-1.3v-3.82c0-.24.05-.45.15-.63a8.26 8.26 0 0 0 1.14-4.26v-22.7a3.85 3.85 0 0 0-5.13-3.6v-.2a4.07 4.07 0 0 0-4.1-4.03c-.64 0-1.25.14-1.79.4A4.47 4.47 0 0 0 40 15.56a4.47 4.47 0 0 0-4.3 3.17Zm6.13 1.22v18.62c0 .71.59 1.29 1.31 1.29a1.3 1.3 0 0 0 1.32-1.3v-16.6c0-.8.66-1.45 1.47-1.45.82 0 1.48.65 1.48 1.45v16.6c0 .72.59 1.3 1.31 1.3a1.3 1.3 0 0 0 1.31-1.3v-12.8c0-.68.56-1.23 1.25-1.23.7 0 1.25.55 1.25 1.23v22.7a5.7 5.7 0 0 1-.8 3 3.83 3.83 0 0 0-.49 1.89v2.53H32.46v-2.53c0-1.55-.8-2.86-2.09-3.4-2.64-1.11-3.45-2.15-3.95-3.66-.23-.68-.4-1.38-.54-2.08-.13-.67-.22-1.34-.42-2-.62-2.03-1.85-3.68-4.77-5.87a3.53 3.53 0 0 1 2.64-.96c2.25.2 4.66 2.81 6.06 5.32.29.51.9.77 1.48.62.58-.14.98-.66.98-1.24V22.65c0-1 .83-1.81 1.84-1.81 1.02 0 1.84.81 1.84 1.8v15.93c0 .71.59 1.29 1.31 1.29a1.3 1.3 0 0 0 1.32-1.3v-18.6c0-1 .82-1.82 1.84-1.82 1.01 0 1.84.81 1.84 1.81Z"/><path fill="#fff" d="M41.84 19.95v18.62c0 .71.59 1.29 1.31 1.29a1.3 1.3 0 0 0 1.32-1.3v-16.6c0-.8.66-1.45 1.47-1.45.82 0 1.48.65 1.48 1.45v16.6c0 .72.59 1.3 1.31 1.3a1.3 1.3 0 0 0 1.31-1.3v-12.8c0-.68.56-1.23 1.25-1.23.7 0 1.25.55 1.25 1.23v22.7a5.7 5.7 0 0 1-.8 3 3.83 3.83 0 0 0-.49 1.89v2.53H32.46v-2.53c0-1.55-.8-2.86-2.09-3.4-2.64-1.11-3.45-2.15-3.95-3.66-.23-.68-.4-1.38-.54-2.08-.13-.67-.22-1.34-.42-2-.62-2.03-1.85-3.68-4.77-5.87a3.53 3.53 0 0 1 2.64-.96c2.25.2 4.66 2.81 6.06 5.32.29.51.9.77 1.48.62.58-.14.98-.66.98-1.24V22.65c0-1 .83-1.81 1.84-1.81 1.02 0 1.84.81 1.84 1.8v15.93c0 .71.59 1.29 1.31 1.29a1.3 1.3 0 0 0 1.32-1.3v-18.6c0-1 .82-1.82 1.84-1.82 1.01 0 1.84.81 1.84 1.81Z"/><path fill="#fff" fill-rule="evenodd" d="M71.37 41.38a36.42 36.42 0 0 1-30.4 35.85l-.97.17-.96-.17A36.42 36.42 0 0 1 8.63 41.38V16.03L40 2.7l31.37 13.33v25.35ZM13.36 18.23l26.12-11.1c.33-.14.7-.14 1.04 0l26.12 11.1c.48.2.8.67.8 1.19v21.96a32.4 32.4 0 0 1-7.69 20.86 32.85 32.85 0 0 1-19.47 11.18l-.05.01a1.28 1.28 0 0 1-.46 0h-.05a32.84 32.84 0 0 1-19.47-11.19 32.42 32.42 0 0 1-7.69-20.86V19.42c0-.52.32-.98.8-1.19Z" clip-rule="evenodd"/></svg>