<svg xmlns="http://www.w3.org/2000/svg" width="80" height="80" fill="none"><path fill="#388CC8" d="M24.87 3.12a5.32 5.32 0 0 0-3.41 2.72l-.4.77-.1 21.01-3.27.06-3.3.05-1.2.57a6 6 0 0 0-3.02 3.02l-.5 1.03v35l.5 1.03a6.02 6.02 0 0 0 2.67 2.84c.72.37.86.5.78.75-.47 1.55-.17 2.78.94 3.86 1.61 1.56 3.64 1.56 5.25 0a3.3 3.3 0 0 0 1.13-3l-.1-.78h10.42l-.1.77a3.3 3.3 0 0 0 1.13 3c1.62 1.57 3.65 1.57 5.26 0a3.47 3.47 0 0 0 .94-3.85c-.08-.26.03-.37.63-.66a5.91 5.91 0 0 0 2.75-2.82l.6-1.19 9.02 4.23a182.6 182.6 0 0 0 9.36 4.22c.19 0 .52-.15.73-.34C62.05 75 78 42.74 78 42.22c0-.2-.13-.5-.29-.68-.14-.17-5.57-2.79-12.05-5.81-12.73-5.95-12.54-5.89-14.08-5.4-1.49.5-1.68.8-5.5 8.51l-3.48 7.08-.16-13.57-.5-1.03a6 6 0 0 0-3.03-3.02l-1.2-.57-3.3-.05-3.27-.06-.1-21.01-.54-.97a4.76 4.76 0 0 0-4.11-2.58 6.32 6.32 0 0 0-1.52.06Zm2.58 2.75a4 4 0 0 1 .73.72c.33.42.33.6.38 10.75l.03 10.31h-5.07V17.57c0-6.78.06-10.24.17-10.53.23-.57.75-1.11 1.33-1.37a3 3 0 0 1 2.43.2Zm-6.46 30.41h2.53v-6.16h5.07v6.16h2.53v-6.16h2.79c1.74 0 3.04.08 3.45.18a4.64 4.64 0 0 1 2.44 2.38c.14.46.19 3 .19 9.57v8.96l-2.33 4.67c-2.25 4.55-2.33 4.72-2.33 5.69 0 1.8.9 2.88 3.28 3.93 1.35.59 1.4.63 1.32 1.05a4.11 4.11 0 0 1-2.6 2.85c-.9.26-21.67.26-22.58 0a4.64 4.64 0 0 1-2.44-2.37c-.27-.93-.27-33.43 0-34.35a4.98 4.98 0 0 1 2.34-2.36c.32-.1 1.82-.17 3.45-.19l2.89-.01v6.16ZM64 37.68c6 2.81 10.93 5.14 10.96 5.16.13.1-1 2.23-1.14 2.17a790.15 790.15 0 0 1-21.98-10.45c-.62-.68-.05-1.98.87-1.98.2 0 5.29 2.3 11.29 5.1Zm-2.19 4.46a477.25 477.25 0 0 1 10.96 5.23c0 .12-12.37 25.19-12.5 25.34-.1.11-21.04-9.57-21.97-10.14-.86-.54-.95-.32 5.19-12.75a8643.9 8643.9 0 0 1 6.2-12.52l.45-.9.35.32c.19.17 5.29 2.6 11.32 5.42Zm-43.75 30.3c.79.75.23 2.08-.88 2.08-.64 0-1.26-.6-1.26-1.24 0-.63.62-1.23 1.26-1.23.3 0 .64.14.88.39Zm17.73 0c.8.75.24 2.08-.87 2.08-.65 0-1.26-.6-1.26-1.24 0-.63.61-1.23 1.26-1.23.3 0 .64.14.87.39Z"/><path fill="#388CC8" d="M17.18 67.12h2.54V38.75h-2.54v28.37Zm7.61 0h2.53V38.75h-2.53v28.37Zm7.6 0h2.53V38.75H32.4v28.37ZM54.32 43.6a8.8 8.8 0 0 0-5.86 4.74c-1.56 3.35-.9 7 1.75 9.62a8.53 8.53 0 0 0 6.41 2.6 8.3 8.3 0 0 0 6.35-2.82 8.28 8.28 0 0 0-.27-11.84 8.76 8.76 0 0 0-4.3-2.35c-1.13-.24-3.1-.2-4.08.06Zm1.86 2.9c-.69.58-1.37 1.33-2.2 2.4l-.29.35-1.08-.48a3.5 3.5 0 0 1-1.06-.58c0-.17.89-.97 1.55-1.42a6.84 6.84 0 0 1 3.1-.91l.75-.02-.77.65Zm2.18 3.75c-.1.45-.24.87-.32.91-.2.13-1.9-.7-1.9-.92 0-.13.53-.73 1.16-1.34l1.14-1.13.05.82c.03.46-.03 1.2-.13 1.66Zm4-.55c.34.9.56 3.16.3 3.51-.1.16-.37.1-1.2-.3-.91-.4-1.06-.53-.98-.8.32-1.09.57-2.57.57-3.38l.02-.96.47.54c.26.3.62.9.81 1.39Zm-10.89 1.26c.57.28 1.03.57 1.03.66a16.5 16.5 0 0 0-.58 3.21l-.1 1.36-.52-.73a6.2 6.2 0 0 1-1.11-4.28c.06-.39.14-.71.17-.71.05 0 .54.21 1.11.5ZM56 53.1l.95.48-.36.49c-.45.62-1.87 1.96-2.08 1.96-.1 0-.12-.42-.06-1.13.11-1.1.36-2.26.52-2.26.03 0 .5.21 1.03.46Zm4.47 2.1 1.14.57-.76.66a8.7 8.7 0 0 1-1.6 1.06c-.83.39-2.87.84-3.04.65-.05-.05.36-.5.93-1.02a12.9 12.9 0 0 0 1.55-1.7c.3-.42.56-.78.59-.78l1.19.56Zm-15.79 6.35-.56 1.05 5.7 2.67c3.14 1.46 5.72 2.63 5.75 2.6.27-.29 1.05-2.05.94-2.15-.18-.17-10.98-5.23-11.15-5.23-.08 0-.38.48-.68 1.06ZM37.14 3.1c-2.87.26-3.64.4-3.64.61 0 .14.08.7.19 1.23l.19 1 .63-.09a42.2 42.2 0 0 1 6.78-.35l2.33.1.08-.5.15-1.2.08-.71-1.2-.11c-1.2-.1-4.53-.1-5.6.01Zm22.95 1.66L56.5 6.52l-1.33-.8c-2.23-1.32-3.6-1.67-5.3-1.36-1.4.24-2.56.88-3.74 2.02-1.18 1.1-1.37 1.65-.8 2.28.15.17 5.15 3.2 11.09 6.74 11.99 7.1 11.7 6.96 13.41 6.49.9-.27 1.1-.4 3.93-3.15 3.72-3.62 3.64-3.28 1.33-5.53-1.31-1.28-1.72-1.6-2.09-1.6-.3 0-1.04.38-2.17 1.1l-1.7 1.11L66.27 12c-1.57-1-2.85-1.88-2.85-1.93 0-.04.71-1.02 1.58-2.14 1.97-2.56 1.98-2.6.59-3.96-.8-.76-1.1-.97-1.47-.96-.26 0-2.03.77-4.04 1.76Zm1.68 3.27c-1.5 1.9-1.68 2.36-1.37 2.96.24.43 8.29 5.56 8.73 5.56a6.8 6.8 0 0 0 1.93-1c.86-.56 1.6-1 1.68-1 .08 0 .3.17.52.4l.37.38-2.23 2.18c-2.06 1.97-2.3 2.16-2.71 2.08-.57-.1-20.3-11.84-20.21-12.01.16-.26 1.28-.71 1.96-.82 1-.14 1.89.17 3.93 1.37a8.2 8.2 0 0 0 2.1 1c.21 0 1.78-.69 3.48-1.52a60.8 60.8 0 0 1 3.21-1.53c.06-.01-.55.87-1.4 1.95Zm-45.54 3.08A39.74 39.74 0 0 0 7.3 21.15a36.3 36.3 0 0 0-3.4 30.4c.6 1.85 1.9 4.78 2.08 4.78.11 0 2.01-.88 2.16-1a45.58 45.58 0 0 1-1.79-4.49C1.69 37.3 6.2 22.24 17.64 13.19c.87-.7 1.44-1.23 1.4-1.36a9.16 9.16 0 0 0-1.37-1.75c-.05 0-.7.46-1.43 1.03Z"/><path fill="#388CC8" d="M40.4 17.42c-1.23.29-2.8 1.12-4.02 2.12-.9.74-1.79 1.17-2.47 1.17-.2 0-.25.2-.25 1.25v1.27l.8-.1a7.55 7.55 0 0 0 3.47-1.6 6.55 6.55 0 0 1 8-.93c.25.18.84.65 1.3 1.05 1.74 1.53 3.74 1.6 5.57.22 1.16-.88 1.35-.82 3.57 1.28 3.15 2.98 4.73 4.13 7.68 5.57a25.42 25.42 0 0 0 8.72 2.48c.83.09 1.52.18 1.56.23.19.18.98 4.6.98 5.5v.59h2.53v-.62c0-1.62-.89-5.98-1.74-8.46a36.57 36.57 0 0 0-2.08-4.87c-.15-.16-2.2.74-2.2.95 0 .08.4 1.02.87 2.13l.86 2-.46.05c-.71.08-3.04-.39-4.9-.97-3.59-1.14-6.2-2.76-9.67-6.03-2.01-1.88-2.61-2.37-3.25-2.57a4.08 4.08 0 0 0-4.02.74c-1 .75-1.38.7-2.58-.31a9.37 9.37 0 0 0-8.27-2.14ZM50.74 72.9a42.02 42.02 0 0 1-8.33 1.54l-1.15.1V77l1.31-.1c2.27-.18 4.56-.53 6.53-1.03l2.26-.54c.43-.1.43-.15 0-1.46-.33-.99-.44-1.16-.62-.97Z"/><path fill="#fff" fill-rule="evenodd" d="M31.12 30.12h2.79c1.74 0 3.04.08 3.45.18a4.64 4.64 0 0 1 2.44 2.38c.14.46.19 3 .19 9.57v8.96l-2.33 4.67c-2.25 4.55-2.33 4.72-2.33 5.69 0 1.8.9 2.88 3.28 3.93 1.35.59 1.4.63 1.32 1.05a4.11 4.11 0 0 1-2.6 2.85c-.9.26-21.67.26-22.58 0a4.64 4.64 0 0 1-2.44-2.37c-.27-.93-.27-33.43 0-34.35a4.98 4.98 0 0 1 2.34-2.36c.32-.1 1.82-.17 3.45-.19l2.89-.01v6.16h2.53v-6.16h5.07v6.16h2.53v-6.16Zm-13.94 37V38.75h2.54v28.37h-2.54Zm7.6 0V38.75h2.54v28.37h-2.53Zm7.6 0V38.75h2.54v28.37H32.4Z" clip-rule="evenodd"/><path fill="#fff" d="M61.77 8.03c-1.5 1.9-1.68 2.36-1.37 2.96.24.43 8.29 5.56 8.73 5.56a6.8 6.8 0 0 0 1.93-1c.86-.56 1.6-1 1.68-1 .08 0 .3.17.52.4l.37.38-2.23 2.18c-2.06 1.97-2.3 2.16-2.71 2.08-.57-.1-20.3-11.84-20.21-12.01.16-.26 1.28-.71 1.96-.82 1-.14 1.89.17 3.93 1.37a8.2 8.2 0 0 0 2.1 1c.21 0 1.78-.69 3.48-1.52a60.8 60.8 0 0 1 3.21-1.53c.06-.01-.55.87-1.4 1.95Z"/><path fill="#fff" fill-rule="evenodd" d="M61.81 42.14a477.25 477.25 0 0 1 10.96 5.23c0 .12-12.37 25.19-12.5 25.34-.1.11-21.04-9.57-21.97-10.14-.86-.54-.95-.32 5.19-12.75a8643.9 8643.9 0 0 1 6.2-12.52l.45-.9.35.32c.19.17 5.29 2.6 11.32 5.42Zm-13.35 6.2a8.8 8.8 0 0 1 5.86-4.73c.98-.26 2.95-.3 4.07-.06a8.76 8.76 0 0 1 4.31 2.35 8.28 8.28 0 0 1 .27 11.84 8.3 8.3 0 0 1-6.35 2.81c-2.6 0-4.6-.8-6.41-2.59a8.25 8.25 0 0 1-1.75-9.62ZM44.12 62.6l.56-1.05c.3-.58.6-1.06.68-1.06.17 0 10.97 5.06 11.15 5.23.11.1-.67 1.86-.94 2.15-.03.03-2.6-1.14-5.74-2.6l-5.7-2.67Z" clip-rule="evenodd"/><path fill="#fff" d="M64 37.69c6 2.8 10.93 5.13 10.96 5.15.13.1-1 2.23-1.14 2.17a790.15 790.15 0 0 1-21.98-10.45c-.62-.68-.05-1.98.87-1.98.2 0 5.29 2.3 11.29 5.1Z"/></svg>