<svg xmlns="http://www.w3.org/2000/svg" width="80" height="80" fill="none"><path fill="#388CC8" d="M19.54 13.81a18.49 18.49 0 0 1 4.01-2.03c1.76-.6 3.8-.74 10.52-.78 6.15 0 8.88.17 10.47.65a19 19 0 0 1 4.18 1.95c1.11.7 2.61 2.12 3.34 3.16.68 1 1.24 2.2 1.15 2.68a1.3 1.3 0 0 1-.98 1c-.6.09-1.28-.39-2.14-1.51a16.02 16.02 0 0 0-1.92-2.21c-.34-.3-1.58-1.04-2.78-1.6a9.48 9.48 0 0 0-4.91-1.09 9.6 9.6 0 0 0-5.09 1.17c-1.28.7-3 2-3.76 2.95a14 14 0 0 0-2.1 3.9 23.44 23.44 0 0 0-.12 9.95 15.8 15.8 0 0 0 1.62 3.47c.64.95 2.18 2.42 3.42 3.25 1.62 1.12 2.18 1.73 2.1 2.38-.1.52-.52.9-1.07 1a3.54 3.54 0 0 1-1.93-.57c-.94-.65-.98-.6-1.62 1.43a23.07 23.07 0 0 1-2.14 4.42c-.85 1.3-2.3 3.03-3.25 3.85-.9.83-2.73 2-4.01 2.6-2.05 1-2.9 1.13-6.84 1.13-3.97-.05-4.79-.18-7.05-1.22a21.31 21.31 0 0 1-4.23-2.81 17.5 17.5 0 0 1-4.36-8.75c-.13-1.08 0-3.12.26-4.55.3-1.42.98-3.42 1.54-4.41a16.65 16.65 0 0 1 2.64-3.42c.86-.87 2.57-2.04 3.72-2.6a24.1 24.1 0 0 1 3.63-1.26c1.46-.26 1.5-.35 2.14-3.16a16.9 16.9 0 0 1 2.14-5.28 16.6 16.6 0 0 1 3.42-3.69Zm38.67 8.06c.34-.7.9-1.34 1.2-1.47a6.07 6.07 0 0 1 1.88-.26 3.1 3.1 0 0 1 2.48 1.04c.85.86 1.06 1.51 1.06 3.25 0 1.2.13 2.25.3 2.38.22.08.77-.4 1.28-1.09.77-1 1.33-1.3 2.48-1.3.81 0 1.8.14 2.18.35.39.18.99.82 1.28 1.52.47.86.52 2.08.26 4.85-.17 2.38-.13 3.68.13 3.68.21 0 .68-.39.94-.87a4.11 4.11 0 0 1 1.62-1.3c.77-.3 1.46-.26 2.57.22a3.9 3.9 0 0 1 1.96 1.82c.39 1 .17 2.3-1.32 7.7a106.3 106.3 0 0 0-2.14 9.54 35.55 35.55 0 0 1-1.07 5.2 22 22 0 0 1-1.92 4.41 13.5 13.5 0 0 1-3.33 3.81c-1.11.82-3 1.82-4.15 2.17-1.2.34-3.12.65-4.27.65-1.2 0-3.25-.3-4.62-.65-1.32-.35-3.16-1-4.06-1.48-.85-.43-2.65-2.07-3.93-3.63-1.75-2.13-3.29-4.81-6.1-10.87-2.06-4.42-3.73-8.54-3.73-9.14 0-.6.47-1.56 1.07-2.17.73-.78 1.45-1.08 2.65-1.08 1.33.04 1.84.3 2.9 1.6.7.87 1.84 2.21 2.57 3 .73.81 1.5 1.33 1.75 1.16.3-.26.35-3.25.13-9.44-.21-6.45-.13-9.4.22-10.18a3.85 3.85 0 0 1 1.75-1.64c.68-.35 1.7-.48 2.22-.35.55.13 1.45.78 3.16 2.64l-.04-1.38c0-.78.3-2 .64-2.69ZM22.57 57.34a9.5 9.5 0 0 1 3-2.47c1.7-.87 2.56-.95 16.19-1l1.28 2.6-7.65.13c-7.05.09-7.78.18-8.89 1-.64.52-1.58 1.47-2.05 2.08-.64.9-.9 2.12-1.07 4.9-.17 2.8-.38 3.85-.94 4.2-.51.34-.85.3-1.4-.18-.52-.48-.7-1.39-.65-3.68 0-1.65.26-3.73.56-4.55.3-.87 1.02-2.2 1.62-3.03Z"/><path fill="#fff" d="M19.4 17.97c.9-1.08 2.57-2.38 3.77-2.94 1.62-.74 2.9-1 8.33-1l-1.92 2.3a14.87 14.87 0 0 0-2.6 4.2c-.4 1.08-.78 3.5-.9 5.41-.18 2.47-.05 4.29.46 6.28a17.87 17.87 0 0 0 2.01 4.76c1.11 1.65 1.29 2.21 1.03 3.47a23.6 23.6 0 0 1-1.11 3.38c-.47 1-1.84 2.9-3.04 4.2a14.39 14.39 0 0 1-4.4 3.33c-1.8.74-2.78.87-5.98.7-3.08-.13-4.27-.44-6.07-1.35-1.5-.78-2.78-1.9-3.72-3.2a13.7 13.7 0 0 1-1.92-3.9 17 17 0 0 1-.47-3.25c0-.78.26-2.38.6-3.6a14.24 14.24 0 0 1 2.26-4.06c.9-1.09 2.57-2.38 3.76-2.95 1.24-.56 2.95-1 4.1-1 1.07 0 2.14-.25 2.44-.51.3-.3.52-1.43.52-2.52 0-1.08.25-2.81.64-3.9a14.23 14.23 0 0 1 2.22-3.85Zm40.78 12.3c.25-3.77.55-7.1.68-7.36.17-.26.43-.17.73.26.25.39.64 4.16.85 8.44.17 4.25.47 8.62.64 9.7.26 1.82.34 1.95 1.63 2.04 1.15.13 1.45-.04 1.66-.87.13-.51.64-4.15 1.16-8.1.76-5.54 1.1-7.14 1.58-7.14.55 0 .64 1.26.64 7.97 0 7.1.08 8.01.72 8.44.56.35.99.35 1.5 0 .43-.26 1.5-2.2 2.4-4.33.89-2.12 1.7-3.94 1.83-4.07.09-.13.38-.04.64.22.3.3-.08 2.3-1.15 6.28-.86 3.2-1.84 7.7-2.18 9.96a30.33 30.33 0 0 1-1.75 6.67 13.99 13.99 0 0 1-2.87 4.07 12.8 12.8 0 0 1-3.12 2.12c-.72.3-2.56.56-4.06.56-1.45 0-3.71-.3-5-.69-1.88-.56-2.86-1.21-4.82-3.25-1.97-2.07-3-3.76-5.47-8.92l-3.77-8.05c-.45-1.1-.54-1.8-.25-2.08.3-.3 1.11.39 2.56 2.2 1.16 1.44 2.78 2.9 3.5 3.26 1.07.47 1.72.51 2.57.21a3.98 3.98 0 0 0 1.8-1.43c.4-.63.58-2.1.55-4.41-.04-1.91-.21-6.24-.38-9.66-.3-5.72-.3-6.15.38-6.15.43 0 .86.26.98.56.09.26.39 3.16.64 6.37.26 3.2.56 6.71.73 7.8.17 1.08.56 2.2.86 2.5.3.26.72.52.94.52.21 0 .68-.26.98-.52.34-.3.73-1.81.9-3.37.17-1.56.5-5.94.77-9.75Z"/></svg>