<svg xmlns="http://www.w3.org/2000/svg" width="80" height="80" fill="none"><g clip-path="url(#a)"><path fill="#388CC8" d="M61.7 26.72c1.32-.72 2.42-1.34 3.51-1.6a3.52 3.52 0 0 0 3.31 2.38h7.95c1.96 0 3.53-1.6 3.53-3.62V3.62A3.58 3.58 0 0 0 76.47 0h-7.95a3.53 3.53 0 0 0-3.35 2.5h-3.45c-.68 0-3.4-.59-6.25-1.22C52.6.65 49.47 0 46.97 0h-.07c-2.02.1-4.46 1.37-7.56 3.12a155.52 155.52 0 0 0-10 6.3 354.88 354.88 0 0 0-12.63 8.93 5.56 5.56 0 1 0 5.56 9.66l10.3-5.97a4.7 4.7 0 0 0 1.45 2.64 6.32 6.32 0 0 0 3.4 1.53l17.49 2.53c2.9.01 5.04-1.06 6.78-2.02ZM68.51 2.5h7.95c.54 0 1.03.45 1.03 1.12v20.26c0 .67-.5 1.12-1.03 1.12h-7.95c-.53 0-1.02-.45-1.02-1.12V3.62c0-.64.48-1.12 1.02-1.12Zm-37.78 8.99c3.33-2.25 6.84-4.5 9.83-6.2C43.55 3.61 46.2 2.55 47 2.51c2.04 0 5.12.59 7.92 1.2 2.82.63 5.2 1.3 6.79 1.3H65v17.6c-1.71.3-3.14 1.17-4.5 1.92-1.69.91-3.3 1.7-5.46 1.71l-17.27-2.5a3.92 3.92 0 0 1-2.06-.9 2.02 2.02 0 0 1-.71-1.6 2.51 2.51 0 0 1 2.6-2.5H50a1.25 1.25 0 0 0 0-2.5H37.6a5.15 5.15 0 0 0-4.47 2.58l-12.11 7.03a3 3 0 0 1-4.17-1.12 3.08 3.08 0 0 1 1.17-4.25s6.04-4.5 12.72-9Zm9.92 65.39c3.09-1.75 6.63-4.03 10-6.3a354.8 354.8 0 0 0 12.63-8.94 5.6 5.6 0 0 0-.53-9.92c.62-.83 1-1.86 1-2.97V47.5a8.74 8.74 0 0 0-4.4-7.58A5.01 5.01 0 0 0 55 32.5a5.02 5.02 0 0 0-4.37 7.42 8.77 8.77 0 0 0-2.95 2.78 9.87 9.87 0 0 0-2.93-2.4A6.27 6.27 0 0 0 40 30a6.27 6.27 0 0 0-4.75 10.3 9.83 9.83 0 0 0-2.92 2.4 8.77 8.77 0 0 0-2.98-2.8c.4-.72.65-1.53.65-2.4 0-2.75-2.26-5-5-5a5.02 5.02 0 0 0-4.37 7.42 8.75 8.75 0 0 0-4.38 7.58v1.24c0 1.83 1 3.44 2.47 4.31l-.41.23c-1.33.72-2.43 1.34-3.52 1.6a3.51 3.51 0 0 0-3.31-2.38H3.52A3.58 3.58 0 0 0 0 56.12v20.26c0 2 1.56 3.62 3.52 3.62h7.96c1.58 0 2.9-1.05 3.35-2.5h3.45c.67 0 3.4.59 6.26 1.21 2.85.63 6 1.29 8.52 1.29 2.05-.1 4.5-1.38 7.6-3.12ZM40 32.5a3.73 3.73 0 0 1 3.75 3.75A3.72 3.72 0 0 1 40 40a3.72 3.72 0 0 1-3.75-3.75A3.73 3.73 0 0 1 40 32.5ZM25 35c1.4 0 2.5 1.1 2.5 2.5S26.4 40 25 40s-2.5-1.1-2.5-2.5S23.6 35 25 35Zm30 0c1.4 0 2.5 1.1 2.5 2.5S56.4 40 55 40s-2.5-1.1-2.5-2.5S53.6 35 55 35ZM30.8 45.18a10.06 10.06 0 0 0-.8 3.96v1.77c-.36.21-.78.33-1.25.33h-7.5c-1.4 0-2.5-1.09-2.5-2.5V47.5a6.22 6.22 0 0 1 3.69-5.71 4.96 4.96 0 0 0 5.1-.01 6.26 6.26 0 0 1 3.27 3.4ZM55 42.5a5 5 0 0 0 2.56-.71 6.23 6.23 0 0 1 3.7 5.71v1.24c0 1.41-1.1 2.5-2.51 2.5h-7.5c-.47 0-.9-.12-1.26-.33v-.03l.01-.28v-1.46c0-1.4-.29-2.74-.8-3.96a6.25 6.25 0 0 1 3.24-3.4c.75.46 1.63.72 2.56.72ZM37.57 42a6.19 6.19 0 0 0 4.86 0 7.5 7.5 0 0 1 5.07 7.14v1.46a3.1 3.1 0 0 1-3.13 3.15h-2.12l-9.19-1.34a3.15 3.15 0 0 1-.56-1.81v-1.46A7.5 7.5 0 0 1 37.57 42ZM49.3 53.35a5 5 0 0 0 1.96.4h3.43l-7.25 4.2a4.7 4.7 0 0 0-.96-2.11 5.7 5.7 0 0 0 2.82-2.5Zm-.03 15.16a156.4 156.4 0 0 1-9.83 6.19c-2.99 1.69-5.64 2.74-6.44 2.79-2.04-.01-5.12-.6-7.92-1.21-2.82-.62-5.2-1.28-6.8-1.28H15V57.38c1.71-.3 3.14-1.16 4.5-1.9 1.68-.92 3.3-1.71 5.46-1.72l17.25 2.5c.87.13 1.6.47 2.08.9a2 2 0 0 1 .7 1.6 2.54 2.54 0 0 1-2.6 2.49H30a1.25 1.25 0 0 0 0 2.5h12.4c1.9 0 3.6-1.04 4.47-2.58l12.12-7.03a3.01 3.01 0 0 1 4.17 1.13c.86 1.5.37 3.34-1.18 4.25 0 0-6.04 4.5-12.7 8.99ZM12.5 76.3c0 .74-.51 1.19-1.02 1.19H3.5c-.55 0-1.01-.54-1.01-1.12V56.12c0-.67.46-1.12 1.01-1.12h7.97c.56 0 1.02.51 1.02 1.18v20.13Z"/><path fill="#fff" d="M30.8 45.18a10.06 10.06 0 0 0-.8 3.96v1.77c-.36.21-.78.33-1.25.33h-7.5c-1.4 0-2.5-1.09-2.5-2.5V47.5a6.22 6.22 0 0 1 3.69-5.71 4.96 4.96 0 0 0 5.1-.01 6.26 6.26 0 0 1 3.27 3.4ZM25 35c1.4 0 2.5 1.1 2.5 2.5S26.4 40 25 40s-2.5-1.1-2.5-2.5S23.6 35 25 35Zm12.57 7a6.19 6.19 0 0 0 4.86 0 7.5 7.5 0 0 1 5.07 7.14v1.46a3.1 3.1 0 0 1-3.13 3.15h-2.12l-9.19-1.34a3.15 3.15 0 0 1-.56-1.81v-1.46A7.5 7.5 0 0 1 37.57 42Zm17.43.5a5 5 0 0 0 2.56-.71 6.23 6.23 0 0 1 3.7 5.71v1.24c0 1.41-1.1 2.5-2.51 2.5h-7.5c-.47 0-.9-.12-1.26-.33v-.03l.01-.28v-1.46c0-1.4-.29-2.74-.8-3.96a6.25 6.25 0 0 1 3.24-3.4c.75.46 1.63.72 2.56.72Zm0-7.5c1.4 0 2.5 1.1 2.5 2.5S56.4 40 55 40s-2.5-1.1-2.5-2.5S53.6 35 55 35Zm-15-2.5a3.73 3.73 0 0 1 3.75 3.75A3.72 3.72 0 0 1 40 40a3.72 3.72 0 0 1-3.75-3.75A3.73 3.73 0 0 1 40 32.5Zm-9.26-21.01c3.33-2.25 6.84-4.5 9.83-6.2 2.99-1.68 5.64-2.74 6.44-2.78 2.04 0 5.12.59 7.92 1.2 2.82.63 5.2 1.3 6.79 1.3H65v17.6c-1.71.3-3.14 1.17-4.5 1.92-1.69.91-3.3 1.7-5.46 1.71l-17.27-2.5a3.92 3.92 0 0 1-2.06-.9 2.02 2.02 0 0 1-.71-1.6 2.51 2.51 0 0 1 2.6-2.5H50a1.25 1.25 0 0 0 0-2.5H37.6a5.15 5.15 0 0 0-4.47 2.58l-12.11 7.03a3 3 0 0 1-4.17-1.12 3.08 3.08 0 0 1 1.17-4.25s6.04-4.5 12.72-9ZM68.52 2.5h7.95c.54 0 1.03.45 1.03 1.12v20.26c0 .67-.5 1.12-1.03 1.12h-7.95c-.53 0-1.02-.45-1.02-1.12V3.62c0-.64.48-1.12 1.02-1.12Z"/><path fill="#fff" d="M49.26 68.5a156.4 156.4 0 0 1-9.83 6.2c-2.99 1.69-5.64 2.74-6.44 2.79-2.04-.01-5.12-.6-7.92-1.21-2.82-.62-5.2-1.28-6.8-1.28H15V57.38c1.71-.3 3.14-1.16 4.5-1.9 1.68-.92 3.3-1.71 5.46-1.72l17.25 2.5c.87.13 1.6.47 2.08.9a2 2 0 0 1 .7 1.6 2.54 2.54 0 0 1-2.6 2.49H30a1.25 1.25 0 0 0 0 2.5h12.4c1.9 0 3.6-1.04 4.47-2.58l12.12-7.03a3.01 3.01 0 0 1 4.17 1.13c.86 1.5.37 3.34-1.18 4.25 0 0-6.04 4.5-12.7 8.99ZM12.5 76.31c0 .74-.51 1.19-1.02 1.19H3.5c-.55 0-1.01-.54-1.01-1.12V56.12c0-.67.46-1.12 1.01-1.12h7.97c.56 0 1.02.51 1.02 1.18v20.13Z"/></g><defs><clipPath id="a"><path fill="#fff" d="M0 0h80v80H0z"/></clipPath></defs></svg>