<svg xmlns="http://www.w3.org/2000/svg" width="80" height="80" fill="none"><path fill="#388CC8" d="M3.9.24a4.4 4.4 0 0 0-2.65 2.78 3.4 3.4 0 0 0 .01 2.58c.3 1.05 1.5 2.41 2.25 2.6l.45.11V60.3l.37.48.35.46H11c4.97 0 6.28.05 6.21.21-.03.12-1.59 4-3.43 8.6a172.36 172.36 0 0 0-3.34 8.74c0 .2.2.55.44.78.42.44.45.44 3.65.44 1.95 0 3.42-.07 3.66-.2.28-.12 2.16-3.1 5.92-9.38l5.5-9.2 4.55.04 4.55.06.1 3.6-.57.31a3.98 3.98 0 0 0-2.31 3.79c.01 2.46 1.68 4.14 4.1 4.14 2.4 0 4.07-1.68 4.09-4.14a3.98 3.98 0 0 0-2.31-3.79l-.58-.3.1-3.61 4.56-.06 4.55-.03 5.5 9.19c3.78 6.3 5.63 9.26 5.91 9.39.25.12 1.72.19 3.66.19 3.2 0 3.24 0 3.66-.44.25-.23.44-.59.44-.76 0-.2-1.5-4.13-3.35-8.74-1.83-4.62-3.4-8.5-3.43-8.62-.07-.16 1.25-.21 6.22-.21h6.32l.35-.46.37-.48.01-51.93.74-.37a4.3 4.3 0 0 0 2.06-2.78c.4-1.9-.49-3.82-2.2-4.7l-.86-.47L40.3.01C9.2-.01 4.64 0 3.9.24Zm72.03 2.88c.7.73.7 1.61 0 2.34l-.5.51H4.62l-.51-.51c-.37-.39-.5-.7-.5-1.17 0-.48.13-.78.5-1.17l.5-.51h70.8l.5.51Zm-2.47 55.63H6.59V8.63h66.87v50.12Zm-46.95 2.64c-.02.07-2.17 3.7-4.78 8.05L17 77.34h-1.7c-.95 0-1.68-.07-1.63-.14.07-.1 5.65-14.04 6.25-15.58.14-.4.2-.4 3.41-.4 1.79 0 3.22.08 3.19.17Zm34 1.17c.28.67 1.71 4.28 3.2 8l2.71 6.78h-3.38l-4.72-7.91-.55-.91c-2.34-3.93-4.22-7.07-4.23-7.15-.04-.09 1.4-.12 3.2-.1l3.28.05.49 1.24Zm-19.42 5.38c.35.35.5.69.5 1.08 0 .76-.81 1.6-1.57 1.6-.75 0-1.57-.84-1.57-1.6 0-.39.16-.73.5-1.08.7-.7 1.44-.7 2.14 0Z"/><path fill="#388CC8" d="M39.2 11.85c-.2.23-.66 1.01-1.03 1.74a11.64 11.64 0 0 1-4.45 4.55c-2.03 1-4.53 1.47-7.9 1.47-2.69 0-2.67 0-2.43 4.41.84 14.93 6.53 26.97 14.67 31.04.79.41 1.67.73 1.95.73 1.38 0 4.74-2.2 7-4.59 5.48-5.79 9.01-15.78 9.64-27.2.16-3.12.1-3.77-.36-4.16-.14-.1-1.47-.23-3.05-.28-3.19-.13-5.04-.5-6.9-1.42a11.56 11.56 0 0 1-4.46-4.55c-.84-1.65-1.26-2.13-1.86-2.13-.26 0-.63.18-.82.4Zm1.5 4.77c1.98 2.94 6.08 5.1 10.25 5.38.78.05 1.84.14 2.34.2l.95.1-.12 1.7c-.42 6.4-1.56 11.7-3.52 16.6-2.12 5.22-5.24 9.42-8.56 11.5-1.82 1.16-2.2 1.16-4.03 0-5.53-3.48-10-12.27-11.54-22.68-.33-2.18-.7-6.96-.57-7.1.07-.05 1.12-.16 2.34-.25a16 16 0 0 0 6.44-1.56c1.79-.9 3.28-2.1 4.38-3.6.47-.65.91-1.18.96-1.18.06 0 .35.4.69.89Z"/><path fill="#388CC8" d="M38.03 23.9a11.7 11.7 0 0 0-4.27 2.09c-1.16.93-2.3 2.56-2.93 4.16-.38.95-.5 1.63-.58 2.92a9.3 9.3 0 0 0 2.86 7.54 9.14 9.14 0 0 0 7 2.96 9.4 9.4 0 0 0 7.1-3.17 9.63 9.63 0 0 0 2.62-6.8 9.9 9.9 0 0 0-11.8-9.7Zm5.18 3.2a7.02 7.02 0 0 1 3.92 5.1c.84 4.06-1.85 8-5.95 8.71-4.94.85-9.3-3.73-8.26-8.7a7.2 7.2 0 0 1 4.76-5.52 6.02 6.02 0 0 1 2.62-.3c1.44.04 1.75.13 2.9.71Z"/><path fill="#388CC8" d="m41.21 32.13-1.89 1.91-1.19-1.2c-1.03-1.03-1.26-1.19-1.82-1.19-.75 0-1.19.48-1.19 1.31 0 .45.32.85 1.8 2.36 2.5 2.51 2.28 2.55 5.5-.71 2.1-2.13 2.5-2.62 2.5-3.06 0-.84-.43-1.31-1.19-1.31-.6 0-.82.17-2.52 1.9Z"/><path fill="#fff" fill-rule="evenodd" d="M73.46 8.63v50.12H6.59V8.63h66.87Zm-35.3 4.96c.38-.73.85-1.5 1.04-1.74.2-.21.56-.39.82-.39.6 0 1.02.48 1.86 2.13.9 1.77 2.85 3.75 4.46 4.55 1.86.92 3.71 1.3 6.9 1.42 1.58.05 2.9.17 3.05.28.47.39.52 1.04.36 4.16-.63 11.42-4.16 21.41-9.64 27.2-2.26 2.4-5.62 4.6-7 4.6-.28 0-1.16-.33-1.95-.74C29.92 51 24.23 38.95 23.4 24.02c-.24-4.41-.26-4.41 2.44-4.41 3.36 0 5.86-.46 7.9-1.47 1.58-.78 3.54-2.8 4.44-4.55Z" clip-rule="evenodd"/><path fill="#fff" d="M41.1 67.94c.34.35.5.69.5 1.08 0 .76-.82 1.6-1.58 1.6-.75 0-1.57-.84-1.57-1.6 0-.39.16-.73.5-1.08.7-.7 1.44-.7 2.14 0Zm-14.6-6.55c0 .07-2.16 3.7-4.77 8.05L17 77.34h-1.7c-.95 0-1.68-.07-1.63-.14.07-.1 5.65-14.04 6.25-15.58.14-.4.2-.4 3.41-.4 1.79 0 3.22.08 3.19.17Zm34 1.17c.29.67 1.72 4.28 3.2 8l2.72 6.78h-3.38l-4.72-7.91-.55-.91c-2.34-3.93-4.22-7.07-4.23-7.15-.04-.09 1.4-.12 3.2-.1l3.28.05.49 1.24Z"/><path fill="#fff" fill-rule="evenodd" d="M40.7 16.62c1.98 2.94 6.08 5.1 10.25 5.38.78.05 1.84.14 2.34.2l.95.1-.12 1.7c-.42 6.4-1.56 11.7-3.52 16.6-2.12 5.22-5.24 9.42-8.56 11.5-1.82 1.16-2.2 1.16-4.03 0-5.53-3.48-10-12.27-11.54-22.68-.33-2.18-.7-6.96-.57-7.1.07-.05 1.12-.16 2.34-.25a16 16 0 0 0 6.44-1.56c1.79-.9 3.28-2.1 4.38-3.6.47-.65.91-1.18.96-1.18.06 0 .35.4.69.89Zm-6.94 9.37a11.7 11.7 0 0 1 4.27-2.1 9.9 9.9 0 0 1 11.8 9.71c0 2.66-.86 4.87-2.63 6.8a9.36 9.36 0 0 1-7.09 3.17 9.14 9.14 0 0 1-7-2.96 9.3 9.3 0 0 1-2.86-7.54c.07-1.3.2-1.97.58-2.92.63-1.6 1.77-3.23 2.93-4.16Z" clip-rule="evenodd"/><path fill="#fff" fill-rule="evenodd" d="M43.2 27.1a7.02 7.02 0 0 1 3.93 5.1c.84 4.06-1.85 8-5.95 8.71-4.94.85-9.3-3.73-8.26-8.7a7.2 7.2 0 0 1 4.76-5.52 6.02 6.02 0 0 1 2.62-.3c1.44.04 1.75.13 2.9.71Zm-3.88 6.94 1.9-1.9c1.7-1.73 1.92-1.9 2.51-1.9.76 0 1.2.47 1.2 1.3 0 .45-.4.94-2.5 3.07-3.23 3.26-3.02 3.22-5.5.7-1.5-1.5-1.8-1.9-1.8-2.35 0-.83.43-1.3 1.18-1.3.56 0 .79.15 1.82 1.18l1.2 1.2Z" clip-rule="evenodd"/><path fill="#fff" d="M75.93 3.12c.7.73.7 1.61 0 2.34l-.5.51H4.62l-.51-.51c-.37-.39-.5-.7-.5-1.17 0-.48.13-.78.5-1.17l.5-.51h70.8l.5.51Z"/></svg>