<svg xmlns="http://www.w3.org/2000/svg" width="80" height="80" fill="none"><path fill="#388CC8" fill-rule="evenodd" d="M5.33 2.5c-.34.41-.44.48-.6.4-.15-.09-.3.05-1.04.96a7.9 7.9 0 0 0-.9 1.23c0 .1 1.39 1.3 4.04 3.47a3104.46 3104.46 0 0 1 9.77 7.98c.2.16.22.22.12.36-.24.35-.33.66-.24.87.11.24 9.5 9.88 9.92 10.18.44.32.97.3 1.45-.07.79-.59 3.78-3.18 3.87-3.36.13-.25.11-.9-.03-1.16-.07-.12-2.4-2.03-5.16-4.24l-5.83-4.67c-.9-.72-1.24-.8-1.63-.38-.13.13-.26.25-.3.25-.04 0-1.71-1.34-3.71-2.97L9.28 6.64a15.1 15.1 0 0 1-2.25-2.01 7.11 7.11 0 0 1-.21-1.03 21.2 21.2 0 0 0-.16-.93C6.59 2.43 6.12 2 5.9 2c-.09 0-.35.22-.58.5Zm68.31-.27c-.22.2-.3.4-.45 1.28-.1.6-.26 1.15-.36 1.3-.2.27-11.48 9.5-11.61 9.5-.05 0-.17-.1-.28-.24a.6.6 0 0 0-.53-.25c-.28 0-.83.37-3.54 2.42l-9.31 7.06c-6.56 4.96-6.3 4.73-7.07 6.24-.4.8-1.14 1.55-1.67 1.71-.71.22-1.03.04-2-1.16-1.4-1.72-2.28-2.2-3.9-2.14-1.38.06-1.53.15-6.69 4.43-2.5 2.07-4.75 4-5 4.27-.56.6-1 1.5-1.18 2.37-.11.54-.1 1.06.1 3.75.13 1.83.19 3.14.13 3.18l-3.1 2.63-9.77 8.33C0 63.24.14 63.1.03 64.27c-.1 1.18-.4.77 8.27 11.53a11.2 11.2 0 0 0 1.34 1.42c.94.72 2.26.97 3.38.63a4.21 4.21 0 0 0 2.03-1.47c.23-.34 1.86-4.35 4.61-11.3A351.28 351.28 0 0 1 24.1 54.2c.24-.2.65-.15.88.1.37.39.92 1.4 1.1 2.03.1.33.31 1.68.46 3 .18 1.62.32 2.51.43 2.75.34.66.62.74 3.9 1l2.95.24.44-.24c.32-.17.5-.36.65-.66l.2-.42-.46-3.4-.6-4.2-.12-.82.9-.77a7.66 7.66 0 0 0 2.74-3.95c.18-.6.22-.98.23-1.92 0-.65.01-1.18.03-1.18l.74.53a24.18 24.18 0 0 0 5.98 3.27c1 .33 1.24.36 1.8.19.87-.26 1.15-.67 2.2-3.14.5-1.18.6-1.5.6-2 0-1.05-.49-1.7-1.62-2.15a20.46 20.46 0 0 1-4.62-2.8c-.97-.79-1.22-1.25-1.02-1.9.1-.33.31-.57 1.17-1.29 1.4-1.18 1.73-1.38 2.55-1.6.38-.12.9-.3 1.14-.43.29-.15 2.5-2.3 6.7-6.5l8.18-8.16c2.07-2.06 2.13-2.16 1.7-2.76l-.19-.28 1.16-.95a24583.5 24583.5 0 0 1 11.3-9.25 25.8 25.8 0 0 0 1.66-1.42c0-.07-1.51-1.97-1.78-2.26-.06-.05-.15-.04-.24.04-.13.1-.2.07-.43-.2l-.4-.52c-.17-.24-.45-.23-.77.05Zm-41.48 28c-.31.15-4.9 3.88-8.45 6.88a4.04 4.04 0 0 0-1.35 1.94c-.13.45-.15.85-.1 2.18.04.9.11 1.71.17 1.82.13.25.54.37.85.25.2-.08 6.18-5 11.42-9.38 1.5-1.25 1.5-1.27.41-2.59-.84-1.02-1.26-1.29-2.06-1.29-.28 0-.67.09-.9.19Zm20.07 2.01c-.44.48-.46.8-.09 1.2.15.17 1.3 1.2 2.54 2.29 3.1 2.7 3.21 2.89 3.05 5.7-.1 1.7-.2 1.93-.77 1.93-.26 0-.93-.52-4.33-3.4a73.15 73.15 0 0 0-4.33-3.5c-.72-.26-1.29-.08-2.17.7-.85.75-.95 1.34-.34 1.86a45 45 0 0 0 2.51 1.72c1.2.8 2.33 1.58 2.5 1.76.48.5.8 1.23.8 1.86 0 .47-.16.98-1.2 3.64-1.5 3.86-1.85 4.49-3.5 6.26-1.03 1.1-1.13 1.39-1.57 4.52a54.1 54.1 0 0 0-.38 3.05c0 .49.29.99.72 1.25.41.26.75.25 4-.04 2.48-.23 2.6-.25 2.94-.5a2 2 0 0 0 .46-.48c.06-.12.23-1.33.38-2.68.2-1.84.34-2.66.52-3.2.27-.77.97-1.95 1.22-2.05.28-.11.6-.06.75.12.09.1 2.1 5.05 4.46 11.02 4.65 11.73 4.5 11.4 5.53 12.08 1.5 1 3.6.8 4.83-.47.23-.24 2.34-2.83 4.7-5.77 3.82-4.77 4.28-5.39 4.43-5.9.13-.47.14-.67.05-1.16-.2-1.1.67-.28-10.2-9.55l-7.46-6.36c-2.57-2.2-2.67-2.29-2.64-2.6l.23-3.04c.33-4.61.29-4.72-3.55-8.04-1.38-1.2-2.65-2.27-2.81-2.4-.47-.35-.86-.3-1.28.18ZM33.35 46.07 32.1 47.1l.8.6c1.03.76 1.22 1.24.7 1.77-.37.37-.62.35-2.03-.19a18.6 18.6 0 0 0-1.44-.5c-.05 0 .36.56.92 1.26 1.15 1.44 1.43 1.64 2.09 1.44.55-.17 1.71-1.36 2.12-2.18.45-.91.63-1.8.57-2.83-.04-.8-.07-.86-.35-1.12-.53-.48-.74-.4-2.13.73Z" clip-rule="evenodd"/></svg>