<svg xmlns="http://www.w3.org/2000/svg" width="90" height="32"><path fill="#fff" d="M15.56 19.77a2.79 2.79 0 0 1-.85-.17c-.15-.1-.23-.49-.23-1.12V16.8a1.5 1.5 0 0 0 0-.3v-2.74c0-1.64-.07-3.24-.2-4.82a3.66 3.66 0 0 0-2.47-3 9 9 0 0 0-3.77-.77 4.58 4.58 0 0 1-.53 0A8.65 8.65 0 0 0 3.14 6.4 4.24 4.24 0 0 0 .9 10a.77.77 0 0 0 .28.66 1.18 1.18 0 0 0 .76.34 1 1 0 0 0 .75-.26 1 1 0 0 0 .35-.67 2.53 2.53 0 0 1 1.33-2.15A6.66 6.66 0 0 1 7.6 7h.44a6.63 6.63 0 0 1 2.81.53c.88.39 1.34.9 1.39 1.53.09 1 .13 1.76.13 2.22-.13.27-.55.48-1.25.69a45.87 45.87 0 0 1-5.23.67 14.54 14.54 0 0 0-2.85.66 3.85 3.85 0 0 0-2.82 2.63 5.37 5.37 0 0 0-.18 1.38 3.81 3.81 0 0 0 1.22 2.78 6.69 6.69 0 0 0 4.33 1.77 3.83 3.83 0 0 0 .68 0 9.76 9.76 0 0 0 4.37-1 9.1 9.1 0 0 0 1.86-1.14 1.93 1.93 0 0 0 1.13 1.38 5.51 5.51 0 0 0 1.87.49 1.17 1.17 0 0 0 .77-.21.84.84 0 0 0 .39-.62.78.78 0 0 0-.22-.68 1.25 1.25 0 0 0-.88-.31Zm-3.21-3a5.9 5.9 0 0 1-2.74 2.51 7.78 7.78 0 0 1-3.35.72h-.44a4.57 4.57 0 0 1-3-1.06 2.4 2.4 0 0 1-.67-1.77 2.61 2.61 0 0 1 .1-.92A2 2 0 0 1 3.71 15a31.9 31.9 0 0 1 5.69-.87 14.56 14.56 0 0 0 3.06-.61c0 .86 0 1.81-.08 2.85ZM22.04 0a1.06 1.06 0 0 0-.76.28.86.86 0 0 0-.31.66v6.53c0 2.05-.05 3.12-.05 3.23v9.79a.89.89 0 0 0 .31.68 1.1 1.1 0 0 0 .76.26 1.06 1.06 0 0 0 .76-.28.85.85 0 0 0 .31-.66V.94a.88.88 0 0 0-.29-.66 1 1 0 0 0-.73-.28Zm7.57 0a1.56 1.56 0 0 0-1.12.41 1.31 1.31 0 0 0-.48 1 1.23 1.23 0 0 0 .48 1 1.77 1.77 0 0 0 2.24 0 1.23 1.23 0 0 0 .45-1 1.29 1.29 0 0 0-.45-1A1.65 1.65 0 0 0 29.61 0Zm.78 6.2a1.2 1.2 0 0 0-1.52 0 .82.82 0 0 0-.31.65c.08 1.38.08 2.88.08 4.52v9.14a.83.83 0 0 0 .31.69 1.1 1.1 0 0 0 .74.26 1.06 1.06 0 0 0 .75-.28.88.88 0 0 0 .3-.67V6.84a.79.79 0 0 0-.35-.64Zm18.85 1.04a7.1 7.1 0 0 0-2.27-1.51 5.76 5.76 0 0 0-2.42-.49 7.77 7.77 0 0 0-1 .06 7.65 7.65 0 0 0-3.51 1.36 8.31 8.31 0 0 0-1.87 1.78v-1.5a1.2 1.2 0 0 0-.31-.94 1.2 1.2 0 0 0-1.49 0 .79.79 0 0 0-.33.65c0 2.74.08 5.36.1 7.88v.9a2 2 0 0 0 0 .43v4.7a.81.81 0 0 0 .32.67 1.13 1.13 0 0 0 .76.29 1 1 0 0 0 .75-.29.85.85 0 0 0 .3-.68q0-3.54-.05-6a11.41 11.41 0 0 1 1-3.9 6.22 6.22 0 0 1 2-2.54 5.87 5.87 0 0 1 2.57-1h.68a4 4 0 0 1 1.63.33 4.91 4.91 0 0 1 1.49 1c.61.65.91 1.9.91 3.75l-.19 8.45a.82.82 0 0 0 .29.63 1.14 1.14 0 0 0 1.49 0 .83.83 0 0 0 .3-.63l.16-8.48a12 12 0 0 0-.28-2.86 4.53 4.53 0 0 0-1.03-2.06ZM62.5 5.23a4.71 4.71 0 0 0-.75 0 7.42 7.42 0 0 0-5.05 1.94 8.39 8.39 0 0 0-2.66 6.3V14a7.74 7.74 0 0 0 1.55 4.87 8 8 0 0 0 4.45 2.93 8.46 8.46 0 0 0 2.13.27 8.62 8.62 0 0 0 3.25-.66 8.2 8.2 0 0 0 4.13-3.66.7.7 0 0 0 0-.7 1 1 0 0 0-.54-.53 1.19 1.19 0 0 0-.81 0 1.05 1.05 0 0 0-.63.44 6.11 6.11 0 0 1-3.07 2.82 6.43 6.43 0 0 1-2.37.48 5.87 5.87 0 0 1-1.5-.26 5.62 5.62 0 0 1-3.14-2 6.4 6.4 0 0 1-1.32-3.61h12.8a1.32 1.32 0 0 0 .73-.26.81.81 0 0 0 .35-.59 4.58 4.58 0 0 0 0-.74 6.77 6.77 0 0 0-2-4.95 8.55 8.55 0 0 0-5.55-2.62Zm4.54 7.29H56.25a6.78 6.78 0 0 1 2-4.21 5.38 5.38 0 0 1 3.56-1.27h.54a6 6 0 0 1 3.91 1.73 5.25 5.25 0 0 1 1.6 3.67ZM89.8 20.1a1.25 1.25 0 0 0-.84-.33 2.73 2.73 0 0 1-.85-.17c-.16-.1-.24-.49-.24-1.12V16.8a1.59 1.59 0 0 0 .06-.3c.06-.92.06-1.84.06-2.74 0-1.64-.06-3.24-.2-4.82a3.74 3.74 0 0 0-2.5-3 9 9 0 0 0-3.88-.79 4.89 4.89 0 0 1-.54 0 8.62 8.62 0 0 0-4.34 1.2 4.2 4.2 0 0 0-2.2 3.65.76.76 0 0 0 .29.67 1.13 1.13 0 0 0 .74.29 1 1 0 0 0 .75-.27 1 1 0 0 0 .35-.63 2.52 2.52 0 0 1 1.33-2.14A6.7 6.7 0 0 1 81.04 7h.44a6.6 6.6 0 0 1 2.81.53c.91.39 1.35.9 1.39 1.53.09 1 .14 1.76.14 2.22-.14.27-.56.48-1.26.69a46.22 46.22 0 0 1-5.25.67 14.54 14.54 0 0 0-2.84.62 3.91 3.91 0 0 0-2.85 2.63 5 5 0 0 0-.2 1.38 3.85 3.85 0 0 0 1.22 2.78 6.69 6.69 0 0 0 4.33 1.77 4.73 4.73 0 0 0 .65 0 9.9 9.9 0 0 0 4.37-1 8.73 8.73 0 0 0 1.86-1.15 2 2 0 0 0 1.12 1.39 5.5 5.5 0 0 0 1.86.48 1.14 1.14 0 0 0 .78-.2.92.92 0 0 0 .39-.62.86.86 0 0 0-.2-.62Zm-4-3.69v.36a6 6 0 0 1-2.76 2.51 7.78 7.78 0 0 1-3.35.76h-.45A4.62 4.62 0 0 1 76.28 19a2.45 2.45 0 0 1-.71-1.77 2.61 2.61 0 0 1 .11-.92c.13-.55.6-1 1.42-1.25a31.73 31.73 0 0 1 5.68-.88 14.61 14.61 0 0 0 3.08-.61c0 .87 0 1.82-.06 2.86Z"/><path fill="#444c5a" d="M7.28 28.67a3.14 3.14 0 0 1 1-2.31 3.25 3.25 0 0 1 4.6 0 3.28 3.28 0 0 1-4.54 4.72L8.25 31a3.18 3.18 0 0 1-.97-2.33Z"/><path fill="#878c91" d="M16.86 28.67a3.29 3.29 0 0 1 3.28-3.28 3.07 3.07 0 0 1 2.32 1A3.27 3.27 0 1 1 17.81 31a3.25 3.25 0 0 1-.95-2.33Z"/><path fill="#fff" d="M26.46 28.67a3.29 3.29 0 1 1 1 2.33 3.15 3.15 0 0 1-1-2.33Z"/></svg>