<svg xmlns="http://www.w3.org/2000/svg" width="95" height="22.63" viewBox="0 0 95 22.63"><path d="M18.94,7.6,18.48.32c-.06-.18-.35-.18-.35,0,0,1.57-2.8.25-3.79,0A11.49,11.49,0,0,0,0,11H0c0,7.39,4.88,11.42,11.17,11.42a8.12,8.12,0,0,0,8.37-6.66c.11-.43-.39-.34-.49,0-1.52,4.84-5.28,6-7.15,6C7.85,21.68,4.09,18.41,4,11,3.8,1.47,14.53-4.74,18.59,7.48,18.67,7.74,18.88,7.8,18.94,7.6Z" transform="translate(0 0)" fill="#fff"/><path d="M22.3,8.77c2.22-.93,8.22-.64,8.21,2.1v8.42c0,2.3,2.27,3.09,2.91,1.54.21-.2.56,0,.38.3-.4,1.63-4.43,1.89-5.82-.3-7.72,5.61-12.64-5.46-3.4-5.63,2.88-.43,3.2-2.09,3.2-3.25,0-2.89-1.51-3.15-2.41-3.15s-1.75.29-2.28,1.77C22.27,13.54,17.81,10.89,22.3,8.77Zm2.1,13a3.23,3.23,0,0,0,3.47-3.06v-4C20,17.59,22.48,21.61,24.4,21.73Z" transform="translate(0 0)" fill="#fff"/><path d="M38,8.49,34.26,9c-.23.06-.23.18.2.29.82,0,1.34.59,1.34,1.78v8.77c0,1.05-1.47,2-1.78,2.09-.7.29.35.24.35.24h6.15c.2,0,.84.06,0-.32s-1.95-1.11-1.95-2V13.24C38.6,10.47,40.41,9,42.18,9s3.41.41,3.41,4.26v6.61c0,1-1.26,1.83-1.92,2.06-.44.12-.62.27-.24.27H50c.35,0,.5-.09.18-.17a2.42,2.42,0,0,1-1.77-2.16V12.14c0-4.4-4.22-3.82-5.7-3.82-1.87,0-3.85,1.19-4,1.71C38.57,8.61,38.4,8.46,38,8.49Z" transform="translate(0 0)" fill="#fff"/><path d="M75.38,21.11c-.65,1.11-2.22,1.37-4.17,1.37a6.65,6.65,0,0,1-6.72-6.77c0-3.46,2-7.36,6.94-7.36,4.48,0,4.45,3,4.45.5V4.45c0-2.27-.9-2.94-1.59-3.14C73.27,1,72,.9,74.06.9L78,.82c.22,0,.26.05.26.41l0,17.18A3.43,3.43,0,0,0,80.56,22c.18,0,.38.15.17.21l-4.25.46c-.61.06-.87-.24-1.13-1.43m-3.76.58c2.32,0,3.87-.9,3.88-6.32,0-5.15-1.54-6.41-3.87-6.41s-4.2,3-4.21,6.46S69.27,21.78,71.59,21.78Z" transform="translate(0 0)" fill="#fff"/><path d="M71.6,15.52" transform="translate(0 0)" fill="#fff"/><path d="M53.19,8.78c2.22-.93,8.22-.63,8.22,2.11v8.42c0,2.3,2.27,3.09,2.91,1.54.2-.2.55-.06.38.29-.41,1.64-4.43,1.89-5.83-.29-7.72,5.61-12.64-5.46-3.4-5.63,2.88-.43,3.21-2.09,3.21-3.26,0-2.88-1.51-3.14-2.42-3.14S54.5,9.11,54,10.59C53.16,13.56,48.71,10.91,53.19,8.78Zm2,13a3.22,3.22,0,0,0,3.47-3.06v-4C50.8,17.61,53.24,21.63,55.16,21.75Z" transform="translate(0 0)" fill="#fff"/><path d="M83.46,8.84c2.21-.92,8.21-.63,8.21,2.11v8.42c0,2.3,2.27,3.09,2.91,1.54.21-.2.56-.05.38.3-.41,1.63-4.43,1.88-5.82-.3-7.73,5.61-12.64-5.46-3.4-5.63,2.88-.43,3.2-2.09,3.2-3.26,0-2.88-1.51-3.14-2.41-3.14s-1.75.29-2.28,1.77C83.42,13.62,79,11,83.46,8.84Zm2,13a3.23,3.23,0,0,0,3.47-3.06v-4C81.06,17.67,83.5,21.69,85.43,21.81Z" transform="translate(0 0)" fill="#fff"/><path d="M82.57.82l0,6.52h8.51V.82Zm5.61,4.64.11.34-1.11-.2c-.14,0-.23,0-.23.07l0,1.27h-.33l0-1.26c0-.13-.1-.12-.32-.08l-1,.2.14-.34c0-.13,0-.22,0-.3l-1.21-1L84.47,4c.06-.05.06-.1,0-.21l-.23-.74.59.13c.16,0,.21,0,.25-.09l.16-.34.58.65c.1.13.24,0,.19-.13l-.27-1.36.43.25c.07,0,.14.05.18,0v0l.46-.93.46.9c0,.09.1.09.19,0L87.87,2l-.26,1.25c0,.25.09.32.24.15l.56-.59.15.34c0,.1.12.08.22.06l.57-.12-.19.73v0c0,.09-.07.17,0,.22l.21.1-1.19,1C88.09,5.28,88.13,5.32,88.18,5.46Z" transform="translate(0 0)" fill="#fff"/><path d="M89.4,4.16l-.21-.1c-.1,0,0-.13,0-.22v0l.19-.73-.57.12c-.1,0-.18,0-.22-.06l-.15-.34-.56.59c-.15.17-.29.1-.24-.15L87.87,2l-.39.19c-.09.05-.14.05-.19,0l-.46-.9-.46.93v0c0,.08-.11.07-.18,0l-.43-.25L86,3.3c0,.18-.09.26-.19.13l-.58-.65-.16.34c0,.09-.09.12-.25.09l-.59-.13.23.74c0,.11,0,.16,0,.21l-.23.14,1.21,1c.1.08.09.17,0,.3l-.14.34,1-.2c.22,0,.32,0,.32.08l0,1.26H87l0-1.27c0-.11.09-.11.23-.07l1.11.2-.11-.34c-.05-.14-.09-.18,0-.3Z" transform="translate(0 0)" fill="#e20e1a"/><rect x="78.4" y="2.48" width="6.52" height="3.2" transform="translate(77.48 85.73) rotate(-89.94)" fill="#e20e1a"/><path d="M81,4.08" transform="translate(0 0)" fill="#e20e1a"/><rect x="88.71" y="2.48" width="6.52" height="3.2" transform="translate(87.79 96.05) rotate(-89.94)" fill="#e20e1a"/><path d="M91.26,4.08" transform="translate(0 0)" fill="#e20e1a"/></svg>