<svg xmlns="http://www.w3.org/2000/svg" width="237" height="72" fill="none"><path fill="#fff" d="M.02 8.18 5.1 7l6.87-1.62 7.2-1.7 8.07-1.9L33.77.22c.33-.08.66-.13 1.1-.22v11.39c.4.02.7.04.99.04H54.2c.84 0 .82.02.79.87a66.7 66.7 0 0 0-.05 2.8v41.7c0 .99.05 1.98.06 2.97 0 .81-.01.83-.83.83H34.9V72c-.84-.12-1.64-.2-2.41-.37-1.14-.26-2.26-.62-3.4-.9-1.13-.28-2.28-.48-3.41-.76-1.23-.3-2.43-.68-3.66-.98-1.02-.26-2.07-.44-3.1-.68-.8-.2-1.58-.45-2.38-.65-1.1-.27-2.23-.49-3.34-.76-1.18-.29-2.34-.63-3.52-.91-1.4-.34-2.8-.64-4.2-.97-.65-.15-1.3-.36-1.95-.52-.85-.2-1.7-.42-2.56-.59-.86-.16-.98-.28-.98-1.15L.01 8.84v-.66Z"/><path fill="#5079BB" d="M30.85 66.93 5.33 60.59h25.52v6.34ZM5.05 11.42l25.8-6.29v6.3H5.05Z"/><path fill="#388CC8" d="M5.03 16.42h25.88v39.13H5.03z"/><path fill="#DCE1EC" d="M34.94 16.42H49.9v39.13H34.94z"/><path fill="#fff" d="M78.85 28.73a5.33 5.33 0 0 1-5.15-3.04 7.54 7.54 0 0 1-.7-3.32c0-1.27.23-2.37.7-3.33a5.28 5.28 0 0 1 2-2.23 5.9 5.9 0 0 1 3.15-.81c1.4 0 2.58.35 3.52 1.06.94.7 1.6 1.65 1.98 2.85l-2.07.56a3.6 3.6 0 0 0-1.2-1.86 3.47 3.47 0 0 0-2.23-.68c-.82 0-1.5.18-2.06.55-.54.37-.95.88-1.23 1.55a6.23 6.23 0 0 0-.41 2.34c0 .9.13 1.67.4 2.34.28.66.7 1.18 1.24 1.55a3.6 3.6 0 0 0 2.06.55c.9 0 1.65-.23 2.22-.68a3.6 3.6 0 0 0 1.21-1.87l2.07.57a5.58 5.58 0 0 1-1.98 2.85 5.72 5.72 0 0 1-3.52 1.05Zm11.41 0a4.26 4.26 0 0 1-4-2.33 5.44 5.44 0 0 1-.56-2.5c0-.97.2-1.81.58-2.53a4.26 4.26 0 0 1 3.98-2.31 4.24 4.24 0 0 1 4 2.33c.38.73.57 1.56.57 2.5 0 .96-.19 1.8-.58 2.53a4.26 4.26 0 0 1-4 2.31Zm0-1.91c.81 0 1.42-.28 1.81-.82.4-.54.6-1.24.6-2.1 0-.9-.2-1.6-.6-2.13-.4-.53-1-.8-1.81-.8-.55 0-1 .13-1.36.38a2.1 2.1 0 0 0-.78 1.03c-.17.43-.26.94-.26 1.52 0 .88.2 1.6.6 2.13.41.52 1.01.79 1.8.79Zm17.44 1.66v-5.57c0-.63-.15-1.12-.46-1.47a1.6 1.6 0 0 0-1.26-.53c-.33 0-.63.07-.89.23-.26.14-.46.36-.61.66-.16.29-.23.63-.23 1.03l-.91-.53c0-.63.13-1.2.42-1.67.3-.49.7-.87 1.2-1.14.49-.27 1.04-.4 1.65-.4 1.02 0 1.8.3 2.33.9.54.61.81 1.41.81 2.4v6.09h-2.04Zm-11.02 0V19.3h1.81v2.84h.26v6.33h-2.06Zm5.53 0v-5.54a2.2 2.2 0 0 0-.47-1.5 1.6 1.6 0 0 0-1.27-.53c-.52 0-.94.18-1.26.53-.3.36-.46.82-.46 1.4l-.92-.62c0-.6.15-1.13.44-1.6.3-.48.7-.85 1.19-1.12.5-.28 1.07-.42 1.69-.42.68 0 1.25.15 1.71.44.47.3.81.69 1.04 1.2.23.49.35 1.05.35 1.68v6.08h-2.04Zm20.76 0v-5.57c0-.63-.15-1.12-.46-1.47a1.6 1.6 0 0 0-1.27-.53 1.65 1.65 0 0 0-1.5.89 2.2 2.2 0 0 0-.23 1.03l-.9-.53a3.05 3.05 0 0 1 1.61-2.81c.5-.27 1.05-.4 1.66-.4 1.01 0 1.79.3 2.33.9.54.61.81 1.41.81 2.4v6.09h-2.05Zm-11.02 0V19.3h1.8v2.84h.26v6.33h-2.06Zm5.53 0v-5.54a2.2 2.2 0 0 0-.47-1.5 1.6 1.6 0 0 0-1.27-.53c-.52 0-.94.18-1.26.53-.31.36-.47.82-.47 1.4l-.91-.62c0-.6.14-1.13.44-1.6a3.39 3.39 0 0 1 2.88-1.54c.68 0 1.25.15 1.7.44.47.3.82.69 1.04 1.2.24.49.35 1.05.35 1.68v6.08h-2.03Zm13.19.26c-.68 0-1.24-.11-1.68-.34-.44-.22-.8-.51-1.05-.86a3.76 3.76 0 0 1-.58-1.12 5.91 5.91 0 0 1-.3-1.99v-5.12h2.07v4.42c0 .28.02.6.06.95.04.36.13.7.28 1.02.14.33.36.6.64.8.29.21.68.32 1.16.32.26 0 .52-.05.77-.13.26-.09.49-.23.7-.43.2-.21.37-.5.5-.86.12-.36.18-.82.18-1.38l1.21.52c0 .78-.15 1.49-.45 2.12a3.6 3.6 0 0 1-1.34 1.52 3.9 3.9 0 0 1-2.17.56Zm3-.26v-2.84h-.25V19.3h2.05v9.17h-1.8Zm10.53 0v-4.41c0-.3-.02-.61-.06-.96a3.3 3.3 0 0 0-.28-1.01 1.9 1.9 0 0 0-.65-.81 1.9 1.9 0 0 0-1.15-.32c-.26 0-.52.05-.77.13a1.8 1.8 0 0 0-.7.44c-.2.2-.37.49-.5.85-.12.36-.18.82-.18 1.38l-1.21-.52c0-.78.15-1.49.45-2.12a3.5 3.5 0 0 1 1.34-1.51 3.93 3.93 0 0 1 2.17-.57c.68 0 1.24.11 1.68.34.44.22.8.51 1.05.86.27.35.46.73.58 1.12a7.85 7.85 0 0 1 .3 1.99v5.12h-2.07Zm-6.36 0V19.3h1.83v2.84h.24v6.33h-2.07Zm10.81-10.56v-1.88h2.05v1.88h-2.05Zm0 10.56V19.3h2.05v9.17h-2.05Zm9.96 0c-.6.11-1.2.16-1.78.14a4.08 4.08 0 0 1-1.55-.31c-.46-.2-.8-.52-1.05-.96-.2-.4-.32-.8-.33-1.21a53 53 0 0 1-.02-1.4v-7.98h2.04v7.86l.01.96c.01.28.07.5.18.68.2.34.53.53.97.57.45.04.96.02 1.53-.07v1.72Zm-6.39-7.56v-1.6h6.4v1.6h-6.4Zm9.32 11.63 1.77-4.84.03 1.42-4-9.82h2.13l2.84 7.27h-.55l2.76-7.27h2.05l-5.11 13.24h-1.92Zm11.69-4.07V16.25h5.05a7.83 7.83 0 0 1 .97.07c.71.11 1.3.34 1.75.7.47.37.81.83 1.03 1.38.23.55.34 1.16.34 1.84a4.8 4.8 0 0 1-.34 1.83c-.23.55-.57 1-1.03 1.37a3.6 3.6 0 0 1-1.75.7 6.4 6.4 0 0 1-.97.07h-3v4.27h-2.05Zm2.05-6.18h2.91a4.82 4.82 0 0 0 .78-.09c.34-.08.6-.23.8-.45.2-.21.33-.45.41-.73a2.66 2.66 0 0 0 0-1.6 1.8 1.8 0 0 0-.42-.73 1.43 1.43 0 0 0-.8-.45 4.82 4.82 0 0 0-.77-.08h-2.92v4.13Zm12.69 6.43a4.26 4.26 0 0 1-4-2.33 5.43 5.43 0 0 1-.56-2.5c0-.97.2-1.81.58-2.53a4.26 4.26 0 0 1 3.98-2.31 4.24 4.24 0 0 1 4 2.33c.38.73.57 1.56.57 2.5 0 .96-.19 1.8-.57 2.53a4.26 4.26 0 0 1-4 2.31Zm0-1.91c.81 0 1.42-.28 1.81-.82.4-.54.6-1.24.6-2.1 0-.9-.2-1.6-.6-2.13-.4-.53-1-.8-1.81-.8-.55 0-1 .13-1.36.38a2.1 2.1 0 0 0-.78 1.03c-.17.43-.25.94-.25 1.52 0 .88.2 1.6.6 2.13.4.52 1 .79 1.79.79Zm6.61 1.66V16h2.05v12.48h-2.05Zm4.76-10.56v-1.88h2.04v1.88h-2.04Zm0 10.56V19.3h2.04v9.17h-2.04Zm8.56.25c-.94 0-1.74-.2-2.41-.62a4.2 4.2 0 0 1-1.54-1.74 5.74 5.74 0 0 1-.53-2.47c0-.94.19-1.78.55-2.5.37-.73.89-1.3 1.56-1.72a4.46 4.46 0 0 1 2.4-.62c1.04 0 1.92.26 2.64.79.73.52 1.2 1.23 1.42 2.13l-2.04.56a2.2 2.2 0 0 0-.79-1.15 2.03 2.03 0 0 0-1.25-.42c-.53 0-.97.13-1.32.39-.34.25-.6.6-.76 1.03a4.3 4.3 0 0 0-.25 1.5c0 .88.2 1.58.59 2.12.39.54.97.8 1.74.8a2 2 0 0 0 1.28-.37c.32-.25.55-.6.71-1.08l2.09.47A3.95 3.95 0 0 1 210.5 28c-.7.5-1.57.74-2.6.74Zm5.71-10.81v-1.88h2.05v1.88h-2.05Zm0 10.56V19.3h2.05v9.17h-2.05Zm10.93 0v-4.41c0-.3-.02-.61-.06-.96a3.3 3.3 0 0 0-.28-1.01 1.9 1.9 0 0 0-.65-.81 1.9 1.9 0 0 0-1.15-.32c-.26 0-.52.05-.77.13a1.8 1.8 0 0 0-.7.44c-.2.2-.37.49-.5.85-.12.36-.18.82-.18 1.38l-1.21-.52c0-.78.15-1.49.45-2.12a3.5 3.5 0 0 1 1.34-1.51 3.93 3.93 0 0 1 2.17-.57c.68 0 1.24.11 1.68.34.44.22.8.51 1.06.86.25.35.45.73.57 1.12a7.89 7.89 0 0 1 .3 1.99v5.12h-2.07Zm-6.36 0V19.3h1.83v2.84h.24v6.33h-2.07Zm14.5 4.32a4.1 4.1 0 0 1-3.64-2l1.88-.92c.18.33.42.58.74.74a2.71 2.71 0 0 0 2.16.02c.34-.15.6-.37.77-.67.2-.29.28-.65.27-1.08v-2.6h.25V19.3h1.8v9.61a6.07 6.07 0 0 1-.13 1.3 2.9 2.9 0 0 1-.79 1.45 3.5 3.5 0 0 1-1.43.86c-.57.19-1.2.28-1.88.28Zm-.18-4.07c-.84 0-1.58-.2-2.2-.63-.64-.43-1.12-1-1.47-1.73a5.71 5.71 0 0 1-.52-2.47c0-.93.18-1.76.52-2.48a3.99 3.99 0 0 1 3.74-2.36 3.65 3.65 0 0 1 3.54 2.36c.3.73.46 1.55.46 2.48 0 .9-.15 1.73-.46 2.47a3.9 3.9 0 0 1-1.36 1.73c-.6.42-1.36.63-2.25.63Zm.31-1.83c.55 0 1-.12 1.33-.37.34-.26.58-.61.73-1.06.16-.46.24-.98.24-1.57 0-.6-.08-1.13-.24-1.58-.15-.45-.39-.8-.72-1.05a2.02 2.02 0 0 0-1.27-.38c-.55 0-1 .14-1.36.4-.35.27-.62.64-.79 1.1-.17.45-.25.95-.25 1.5 0 .57.08 1.07.24 1.53a2.1 2.1 0 0 0 2.09 1.48ZM73.76 51.38V38.34h1.89v6.09l5.46-6.09h2.35l-5.76 6.37 6.19 6.67h-2.43l-5.81-6.23v6.23h-1.9Zm18.26 0v-4.8c0-.39-.03-.78-.1-1.17a3.5 3.5 0 0 0-.36-1.13 2.13 2.13 0 0 0-.75-.83 2.25 2.25 0 0 0-1.26-.32c-.34 0-.66.06-.96.17a2 2 0 0 0-.8.54c-.22.25-.4.57-.53.98-.12.4-.19.9-.19 1.47l-1.17-.44c0-.89.16-1.67.5-2.35.32-.68.8-1.21 1.42-1.59a4.24 4.24 0 0 1 2.26-.57c.67 0 1.24.1 1.7.33a3.58 3.58 0 0 1 1.77 2.01 7.05 7.05 0 0 1 .39 2.27v5.43h-1.92Zm-6.87 0V41.6h1.7v2.83h.22v6.95h-1.92Zm15.27.27a4.45 4.45 0 0 1-4.2-2.48 5.98 5.98 0 0 1-.59-2.69c0-1.02.2-1.91.6-2.69a4.3 4.3 0 0 1 1.68-1.8 4.76 4.76 0 0 1 2.51-.66 4.46 4.46 0 0 1 4.21 2.48c.4.77.59 1.66.59 2.67 0 1.02-.2 1.92-.6 2.7a4.45 4.45 0 0 1-4.2 2.47Zm0-1.78c.94 0 1.64-.31 2.1-.94.46-.64.69-1.45.69-2.45a3.9 3.9 0 0 0-.7-2.44c-.47-.62-1.16-.93-2.09-.93-.63 0-1.15.15-1.56.44-.41.28-.72.68-.92 1.19-.2.5-.3 1.08-.3 1.74 0 1.03.24 1.85.7 2.47.48.61 1.17.92 2.08.92Zm8.52 1.51-2.99-9.79 1.87.01 2.05 6.71 2.06-6.7h1.63l2.07 6.7 2.04-6.7h1.87l-2.99 9.77h-1.52l-2.28-7.08-2.3 7.08h-1.51Zm12.4 0V38.07h1.9v13.31h-1.9Zm8.95.27c-.97 0-1.83-.2-2.56-.63a4.5 4.5 0 0 1-1.72-1.78c-.4-.77-.6-1.66-.6-2.67 0-1.07.2-2 .6-2.78a4.42 4.42 0 0 1 4.19-2.46 4.12 4.12 0 0 1 4.11 2.66c.35.85.48 1.86.41 3.04h-1.89v-.7c-.01-1.13-.23-1.97-.65-2.5-.42-.55-1.06-.82-1.91-.82-.95 0-1.66.3-2.14.9a4.07 4.07 0 0 0-.71 2.58c0 1.08.23 1.91.71 2.5.48.59 1.17.88 2.07.88.59 0 1.1-.13 1.53-.4.43-.27.77-.66 1-1.16l1.87.6a4.4 4.4 0 0 1-1.73 2.03c-.78.48-1.64.71-2.58.71Zm-3.49-4.62v-1.48h6.98v1.48h-6.98Zm13.84 4.62a4.09 4.09 0 0 1-3.9-2.52 6.33 6.33 0 0 1-.53-2.65c0-.98.18-1.86.54-2.63a4.15 4.15 0 0 1 3.92-2.52 3.87 3.87 0 0 1 3.76 2.52c.32.78.49 1.65.49 2.63s-.16 1.86-.5 2.64c-.32.78-.8 1.4-1.43 1.85-.63.46-1.42.68-2.35.68Zm.26-1.7a2.5 2.5 0 0 0 1.52-.45c.4-.3.68-.7.86-1.22a5.5 5.5 0 0 0 .27-1.8c0-.67-.1-1.27-.28-1.79a2.5 2.5 0 0 0-.85-1.21 2.34 2.34 0 0 0-1.46-.44c-.63 0-1.14.16-1.55.46-.4.31-.7.73-.9 1.24-.2.52-.3 1.1-.3 1.74 0 .65.1 1.23.3 1.76.2.52.5.93.89 1.24.4.3.9.46 1.5.46Zm2.65 1.43v-7.03h-.22v-6h1.9v13.03h-1.68ZM151.8 56a4.38 4.38 0 0 1-3.87-2.14l1.74-.88c.21.41.51.72.9.91.4.2.81.29 1.24.29a3 3 0 0 0 1.38-.29c.38-.19.67-.47.86-.85.2-.38.3-.85.29-1.41v-2.74h.23V41.6h1.67v10.04a9.75 9.75 0 0 1-.13 1.45 3.4 3.4 0 0 1-2.28 2.6 6.1 6.1 0 0 1-2.03.31Zm-.15-4.35a4.09 4.09 0 0 1-3.9-2.52 6.33 6.33 0 0 1-.53-2.65c0-.98.19-1.86.55-2.63a4.15 4.15 0 0 1 3.92-2.52 3.87 3.87 0 0 1 3.75 2.52c.33.78.5 1.65.5 2.63s-.17 1.86-.5 2.64a3.87 3.87 0 0 1-3.79 2.53Zm.26-1.7c.63 0 1.13-.16 1.52-.45.4-.3.68-.7.86-1.22.19-.52.28-1.12.28-1.8 0-.67-.1-1.27-.28-1.79a2.5 2.5 0 0 0-.86-1.21 2.34 2.34 0 0 0-1.45-.44c-.63 0-1.15.16-1.55.46-.4.31-.7.73-.9 1.24-.2.52-.3 1.1-.3 1.74 0 .65.1 1.23.3 1.76.2.52.49.93.88 1.24.4.3.9.46 1.5.46Zm11.21 1.7c-.97 0-1.83-.2-2.56-.63a4.5 4.5 0 0 1-1.71-1.78 5.71 5.71 0 0 1-.61-2.67c0-1.07.2-2 .6-2.78a4.42 4.42 0 0 1 4.19-2.46 4.12 4.12 0 0 1 4.11 2.66c.35.85.49 1.86.41 3.04h-1.89v-.7c-.01-1.13-.23-1.97-.65-2.5-.42-.55-1.05-.82-1.91-.82-.95 0-1.66.3-2.14.9a4.07 4.07 0 0 0-.71 2.58c0 1.08.24 1.91.71 2.5.48.59 1.17.88 2.07.88.59 0 1.1-.13 1.53-.4.43-.27.77-.66 1.01-1.16l1.86.6a4.4 4.4 0 0 1-1.73 2.03 4.8 4.8 0 0 1-2.58.71Zm-3.49-4.62v-1.48h6.98v1.48h-6.98Zm13.58 4.35V38.34h1.9v5.63h6.5v-5.63h1.91v13.04h-1.9v-5.63h-6.52v5.63h-1.89Zm16.54.26c-.68 0-1.25-.1-1.7-.32-.46-.22-.84-.5-1.13-.85a4.1 4.1 0 0 1-.65-1.16 7.79 7.79 0 0 1-.39-2.27V41.6h1.92v4.81c0 .38.03.77.1 1.18.06.4.18.77.35 1.11.19.35.44.62.75.83.33.22.75.32 1.27.32.34 0 .66-.05.96-.16.3-.12.57-.3.79-.54.23-.25.4-.58.53-.98.14-.4.2-.9.2-1.48l1.18.44c0 .9-.17 1.68-.5 2.36-.33.68-.8 1.2-1.43 1.58-.62.38-1.37.57-2.25.57Zm3.23-.26v-2.82h-.23V41.6h1.91v9.78h-1.68Zm8.82.27a3.9 3.9 0 0 1-2.36-.68 4.27 4.27 0 0 1-1.44-1.85 6.77 6.77 0 0 1-.49-2.64c0-.98.16-1.85.48-2.63.32-.78.8-1.4 1.43-1.84a3.91 3.91 0 0 1 2.34-.68c.91 0 1.7.23 2.37.68a4.37 4.37 0 0 1 1.55 1.84c.36.77.54 1.65.54 2.63s-.18 1.86-.54 2.65a4.4 4.4 0 0 1-1.53 1.84c-.66.46-1.45.68-2.36.68Zm-4.6-.27V38.34h1.9v6h-.22v7.04h-1.69Zm4.33-1.44a2.37 2.37 0 0 0 2.38-1.7c.2-.53.3-1.11.3-1.76 0-.64-.1-1.22-.3-1.74a2.7 2.7 0 0 0-.9-1.24c-.4-.3-.92-.46-1.54-.46-.6 0-1.09.15-1.47.44-.38.29-.66.7-.85 1.21a5.44 5.44 0 0 0-.27 1.8c0 .67.09 1.27.27 1.79.18.51.47.92.86 1.22.39.3.9.44 1.52.44Z"/></svg>