<svg xmlns="http://www.w3.org/2000/svg" viewBox="0 0 24 24" fill="none"><g clip-path="url(#a)"><path fill="#0A66C2" d="M22.23 0H1.77A1.77 1.77 0 0 0 0 1.77v20.46A1.77 1.77 0 0 0 1.77 24h20.46A1.77 1.77 0 0 0 24 22.23V1.77A1.77 1.77 0 0 0 22.23 0ZM7.15 20.45h-3.6V8.97h3.6v11.46ZM5.35 7.4a2.07 2.07 0 1 1 1.93-1.28A2.04 2.04 0 0 1 5.35 7.4Zm15.1 13.05h-3.6V14.2c0-1.84-.79-2.41-1.8-2.41-1.07 0-2.12.8-2.12 2.46v6.21H9.32V9h3.47v1.59h.05a3.94 3.94 0 0 1 3.43-1.91c2.01 0 4.18 1.2 4.18 4.7v7.08Z"/></g><defs><clipPath id="a"><path fill="#fff" d="M0 0h24v24H0z"/></clipPath></defs></svg>