<svg xmlns="http://www.w3.org/2000/svg" width="80" height="80" fill="none"><g clip-path="url(#a)"><path fill="#388CC8" d="M9.77 18.57a9.82 9.82 0 0 0-7.06 5.55 10.97 10.97 0 0 0-1.03 4.85c0 1.84-.56 4.47-1.42 6.5-.37.87-.35 1.58.1 2.15.24.32 1.88 1.43 2.88 1.95l.8.42-.66.33a5.38 5.38 0 0 0-2.31 2.43c-.2.42-.4 1-.46 1.26-.06.3-.1 1.94-.1 4.42 0 4.27 0 4.3.53 4.88.13.14.4.34.6.43.33.16.66.18 4.45.18h4.1l.18-.24c.25-.33.24-.64-.03-.92l-.22-.23H5.81v-7.29l-.23-.19c-.3-.24-.59-.24-.86-.01l-.21.17-.06 7.32H3.31c-1 0-1.17-.02-1.3-.17-.13-.16-.15-.56-.15-4.01 0-3.45.01-3.88.19-4.45a4.08 4.08 0 0 1 2.4-2.56c.44-.19.72-.21 2.03-.25l1.53-.04.16.64c.4 1.6 1.7 2.63 3.3 2.63a3.33 3.33 0 0 0 3.28-2.61l.17-.66 1.52.04c1.32.04 1.6.06 2.03.25a4.09 4.09 0 0 1 2.4 2.56c.18.57.19.84.19 4.47 0 3.62-.01 3.86-.17 4-.13.13-.36.16-1.3.16h-1.13l-.05-7.32-.22-.17c-.27-.23-.55-.23-.85.01l-.23.2v7.28H12.8l-.22.23c-.29.29-.29.64 0 .93l.22.23h4.04c4.4 0 4.41 0 4.97-.54.14-.14.33-.42.42-.62.15-.34.17-.68.17-4.34 0-4.45-.03-4.67-.61-5.81a5.58 5.58 0 0 0-2.26-2.3l-.65-.32.74-.4c1.7-.88 2.9-1.76 3.15-2.34.23-.54.2-.96-.11-1.78a17.28 17.28 0 0 1-1.42-6.6c-.12-2.35-.35-3.4-1.1-4.93a9.88 9.88 0 0 0-6.25-5.2 11.93 11.93 0 0 0-4.11-.17h-.01Zm3.95 1.57a8.32 8.32 0 0 1 3.85 2.44c1.58 1.7 2.17 3.33 2.31 6.39.12 2.6.37 3.85 1.23 6.22.27.74.48 1.41.45 1.48-.08.21-1.56 1.17-2.75 1.78-1.46.75-2.83 1.24-3.46 1.24h-.49v-1.53l.4-.26a8.11 8.11 0 0 0 2.1-2.44c.73-1.46.76-1.63.8-5.7.03-3.5.02-3.62-.16-3.91-.1-.17-.29-.34-.41-.4-.5-.18-.71-.11-1.5.56-.68.6-1.81 1.3-2.1 1.3-.08 0-.12-.15-.12-.56 0-.7-.18-1.08-.6-1.26-.42-.18-.63-.11-1.4.42-.78.55-1.02.68-1.76.94-.51.17-.83.2-2.53.24-2.94.08-2.8-.1-2.8 3.54 0 2.47.01 2.68.2 3.36a6.98 6.98 0 0 0 1.6 2.92c.37.4.85.84 1.06 1l.4.25v1.53h-.48c-.98 0-3.53-1.11-5.3-2.32-.52-.35-.94-.7-.94-.77 0-.08.18-.6.4-1.18.86-2.27 1.3-4.43 1.3-6.36 0-2.74.73-4.76 2.38-6.55A8.22 8.22 0 0 1 9 20.2a6.77 6.77 0 0 1 2.72-.32c.98.02 1.37.07 2 .27Zm-1.19 7.43c0 .5.31.95.78 1.11.32.12.43.12.98-.03a6.1 6.1 0 0 0 2.08-1.08l.49-.37-.04 3.03c-.04 2.87-.06 3.07-.24 3.64-.32.93-.7 1.56-1.4 2.26a5.24 5.24 0 0 1-6.27.95 6.47 6.47 0 0 1-2.19-2.3c-.53-1.07-.57-1.39-.62-3.93l-.04-2.32 1.74-.04c2.03-.06 2.74-.21 3.88-.86.4-.22.75-.4.79-.4.04-.02.06.14.06.34Zm-1.86 11.49c.75.1 1.68.04 2.6-.17l.24-.06v1.13c0 1.31-.08 1.7-.52 2.22-.8.97-2.13 1.04-2.98.16-.51-.52-.57-.74-.6-2.18l-.04-1.33.26.06 1.04.17Zm56.55-20.44a9.43 9.43 0 0 0-6.64 5.78 9.61 9.61 0 0 0-.58 3.52c0 1.02-.02 1.28-.18 1.62-.2.49-.24 1.42-.05 1.87.18.43.73 1.06 1.16 1.28.2.1.6.2.9.24.28.03.53.09.55.15 0 .05.09.41.17.8a6.9 6.9 0 0 0 2.4 3.8l.7.57v1.44h-1.36c-1.63 0-2.36.14-3.3.6a5.95 5.95 0 0 0-2.31 2.35c-.55 1.16-.57 1.3-.55 5.9l.03 4.15.27.4c.16.21.45.5.66.61l.4.21h9.5c10.39 0 9.83.03 10.41-.53.51-.5.6-.83.6-2.5 0-1.48 0-1.5-.23-1.73a.73.73 0 0 0-.45-.23.7.7 0 0 0-.44.23c-.22.22-.23.26-.23 1.6 0 1.85.06 1.78-1.44 1.78h-1.16v-3.46c0-2.17-.03-3.55-.09-3.71-.18-.51-.6-.64-1.02-.3l-.23.18v7.29H63.4V45.3l-.22-.22c-.28-.3-.62-.3-.9 0l-.23.22v7.22h-1.14c-1.02 0-1.18-.02-1.31-.18-.14-.16-.15-.52-.13-4.22l.03-4.06.29-.63a4.09 4.09 0 0 1 2.79-2.27c.26-.06 1.06-.1 1.75-.1h1.3l.05.4c.09.6.54 1.47.99 1.9 1.58 1.5 4 1.23 5.16-.57.32-.5.4-.71.57-1.49l.07-.26 1.54.04c1.3.04 1.61.07 2.04.25a4.14 4.14 0 0 1 2.34 2.41c.15.4.2.8.25 1.74.05 1.16.07 1.25.27 1.42.28.24.6.22.86-.06.21-.21.22-.28.22-1.28 0-2.22-.75-3.8-2.33-4.91-1.06-.74-1.7-.9-3.6-.95l-1.6-.04v-1.51l.45-.3a8.45 8.45 0 0 0 1.87-2.1c.36-.6.77-1.75.86-2.38l.06-.43h.38c1.6 0 2.8-1.72 2.23-3.19-.1-.25-.16-.85-.2-1.85-.05-.95-.14-1.75-.26-2.26a9.33 9.33 0 0 0-6.63-6.95 10.43 10.43 0 0 0-4.01-.07ZM71 20.05c.75.21 1.94.8 2.58 1.29a8.08 8.08 0 0 1 3.18 5.94l.05.86h-.49c-.52 0-.6-.07-.6-.5 0-.4-.39-1-.8-1.27-.63-.4-.96-.42-2.42-.05-2.59.66-4.37.66-6.94 0-1.23-.33-1.35-.34-1.74-.24-.81.23-1.33.82-1.43 1.61l-.06.44h-.96v-.64c0-1.98.87-3.97 2.4-5.47a7.64 7.64 0 0 1 3.79-2.07c.75-.17 2.7-.1 3.45.1H71Zm-5.93 7.58c2.7.75 4.97.77 7.76.04 1.02-.26 1.11-.27 1.32-.14.11.08.24.26.27.38.02.13.03 1.34 0 2.7-.02 1.9-.06 2.59-.18 3.02a5.36 5.36 0 0 1-6.46 3.93 4.85 4.85 0 0 1-2.47-1.48 5.07 5.07 0 0 1-1.43-2.55c-.17-.62-.18-1.02-.18-3.24 0-2.4 0-2.53.18-2.7.22-.24.21-.24 1.2.04Zm-2.72 2.92v1.03l-.42-.05c-.59-.07-.93-.46-.93-1.03 0-.33.06-.46.28-.7.23-.22.35-.28.67-.28h.4v1.03Zm14.42-.79c.71.6.26 1.8-.68 1.8h-.3v-2.04h.36c.25 0 .43.07.62.24Zm-9 9.23c.95.2 1.8.18 3.08-.1l.3-.06-.04 1.28c-.03 1.38-.1 1.65-.6 2.2a2 2 0 0 1-3.29-.53c-.19-.43-.21-.6-.21-1.7 0-.67.02-1.22.07-1.22l.69.13Z"/><path fill="#388CC8" d="M34.34 14.68c-3.3.9-6.14 1.7-6.3 1.78-.23.1-.8 1-2.84 4.52-1.88 3.24-2.56 4.47-2.55 4.7.01.26.43.74 2.44 2.81l2.41 2.49v1.77c0 .97-.04 1.76-.08 1.76-.21 0-.97.81-1.22 1.31-.21.42-.27.69-.27 1.22 0 .8.2 1.31.72 1.91.52.6 1.08.86 1.92.93l.71.06.18.85c.3 1.44.92 2.93 1.73 4.16a14.1 14.1 0 0 0 2.37 2.59l.5.39v1.75l-.54.04c-.86.07-1.09.3-1.88 1.92l-.7 1.4-2.7.83c-5.12 1.54-5.34 1.62-6.41 2.73a6.2 6.2 0 0 0-1.46 2.54c-.16.56-.18 1.04-.18 4.04v3.42l.25.2c.3.25.63.25.94 0l.24-.2.05-3.42c.06-3.24.07-3.44.3-4 .12-.34.26-.62.28-.62.08 0 4.37 3.8 4.62 4.1.52.59.64 1.04.64 2.37 0 .88.04 1.33.15 1.54.24.48.68.57 1.12.2.26-.2.26-.22.26-1.6 0-2.58-.19-2.9-3.39-5.73a73.52 73.52 0 0 1-2.34-2.1c0-.03.21-.17.48-.33.3-.18 1.9-.72 4-1.36l3.5-1.07 1.2 2.18a30.5 30.5 0 0 0 1.4 2.41c.33.37.72.55 1.21.55.54 0 .91-.22 1.84-1.06.38-.35.7-.63.72-.63.03 0 .14.22.24.48.1.26.29.61.41.78l.25.3-.56 3.14c-.3 1.74-.56 3.31-.56 3.49 0 .4.39.78.77.78.53 0 .64-.33 1.18-3.33l.57-3.13c.05-.28.08-.3.66-.3.48 0 .6.04.65.18.03.1.29 1.52.57 3.15.49 2.72.55 2.97.8 3.2.3.28.8.25 1.02-.06.21-.28.15-.88-.42-4.07l-.55-3.04.3-.38c.15-.21.34-.56.41-.78.06-.23.13-.4.16-.4s.35.27.73.61c.92.85 1.3 1.07 1.83 1.07.5 0 .9-.18 1.21-.55.12-.13.76-1.22 1.41-2.42l1.2-2.17 3.5 1.06c2.1.65 3.7 1.18 4 1.36.26.16.48.31.48.33 0 .03-1.06.97-2.35 2.1-3.2 2.83-3.39 3.16-3.39 5.73 0 1.39 0 1.4.27 1.62.44.36.88.27 1.11-.22.12-.2.16-.65.16-1.54 0-1.33.12-1.78.63-2.36.26-.3 4.55-4.1 4.63-4.1.02 0 .15.27.28.61.22.57.24.77.3 4l.05 3.43.24.2c.3.25.64.25.94 0l.25-.2v-3.42c0-3-.02-3.48-.19-4.04-.3-1-.78-1.85-1.45-2.54-1.08-1.11-1.29-1.2-6.4-2.73l-2.72-.83-.7-1.4c-.78-1.61-1.01-1.85-1.87-1.92l-.54-.04v-.88c0-.82.02-.88.26-1.05.5-.34 1.8-1.68 2.35-2.44.94-1.28 1.8-3.27 2.07-4.79.08-.47.09-.47.6-.57.95-.17 1.24-.27 1.66-.59.95-.7 1.4-1.82 1.16-2.89a3.03 3.03 0 0 0-1.14-1.8l-.41-.27V31l2.47-2.57c2.3-2.37 2.46-2.57 2.41-2.86-.05-.27-4.84-8.64-5.14-8.96-.13-.15-12.6-3.62-12.92-3.6-.1 0-2.89.76-6.2 1.68Zm12.3 1.58.22.06c3.08.85 5.58 1.53 5.59 1.55l2.23 3.82 2.21 3.8-3.12 3.22-.05-2.18c-.07-2.54-.13-2.76-.93-3.18-.38-.2-.58-.24-1.17-.2-.58.02-.73.08-.89.27a.77.77 0 0 0 .03 1.04c.19.2.33.24.82.24h.6v3.48H29.04l.02-1.72.03-1.7 4.7-.04c3.9-.02 4.73 0 4.86.13.95.85 2.76.9 3.8.12l.35-.27h2.7c1.7 0 2.77-.04 2.9-.12.47-.25.43-1.1-.07-1.35a12.4 12.4 0 0 0-2.39-.11h-2.12l.04-2.05c.06-2.25-.02-2.7-.45-2.9a15.4 15.4 0 0 0-2.84-.12c-2.48 0-2.6 0-2.87.22l-.28.22.07 4.63h-4.3c-4.27 0-4.31 0-4.76.23-.8.42-.87.64-.93 3.17l-.05 2.18-1.56-1.6-1.55-1.62 2.19-3.74 2.22-3.82c.04-.1 11.78-3.34 11.96-3.29l5.93 1.62Zm-4.29 4.65c0 .7-.05 1.47-.11 1.72-.2.85-.93 1.38-1.75 1.3-.57-.06-.94-.3-1.28-.82-.22-.33-.24-.46-.24-1.9v-1.58h3.38v1.28Zm9.17 9.05c-.28.32-1.48.93-2.53 1.28-4.6 1.55-12.17 1.55-16.79 0a8.63 8.63 0 0 1-2.5-1.28c-.19-.2-.03-.2 10.9-.2s11.1 0 10.92.2ZM29.95 32l.83.42V33c0 .87-.22 1.09-1.1 1.09h-.64v-1.27c0-.7.03-1.27.04-1.27l.88.44Zm22.23 2.1h-.61c-.52 0-.67-.04-.87-.27-.2-.21-.26-.36-.26-.82v-.58l.8-.43c.43-.23.82-.43.87-.43.04 0 .07.56.07 1.26v1.27Zm-18.87-.9a34.8 34.8 0 0 0 13.39.27c.62-.12 1.29-.26 1.48-.32.63-.18.72-.15.72.26 0 .8.6 1.69 1.38 2.07.3.14.66.2 1.28.2 1.06 0 1.53.13 1.89.49.76.79.13 2.15-1 2.15-.27 0-.4-.06-.45-.2-.12-.35-.36-.54-.71-.54-.58 0-.69.23-.83 1.61a10.49 10.49 0 0 1-1.1 3.84 9.74 9.74 0 0 1-16.98.89 9.95 9.95 0 0 1-1.6-4.74c-.13-1.42-.24-1.6-.91-1.6-.29 0-.54.2-.66.55-.05.14-.18.19-.52.19-.56 0-1.03-.37-1.2-.95-.1-.34-.09-.47.07-.8.31-.64.7-.8 2.03-.9 1.24-.07 1.55-.17 2.08-.76.4-.42.64-1 .64-1.5 0-.44.02-.44 1-.2Zm3.22 16.09a11.38 11.38 0 0 0 9-.32c.05 0 .1.37.1.83v.8l-.39.22c-.9.5-1.15.97-.8 1.5.31.46.6.4 1.92-.33.67-.4 1.24-.7 1.27-.7.06 0 1.06 2.09 1.06 2.23 0 .26-2.5 4.63-2.63 4.59-.07-.03-1.03-.86-2.13-1.83l-2-1.76.28-.15c.75-.39.98-1.04.54-1.5-.3-.3-.64-.26-1.37.16-.36.2-.7.37-.78.37-.07 0-1.23-.63-2.57-1.4l-2.44-1.4v-.8c0-.46.03-.83.08-.83.04 0 .43.15.86.32Zm-.1 3.6 2.82 1.62c.04.02-3.96 3.54-4.1 3.6-.12.04-2.63-4.33-2.63-4.6 0-.14 1-2.22 1.08-2.22.02 0 1.3.72 2.83 1.6Zm5.04 3.28.77.67c0 .02-.07.34-.2.72-.3.93-.54 1.12-1.43 1.12-.89 0-1.13-.2-1.43-1.11l-.22-.68.4-.35.74-.68c.2-.2.42-.35.5-.35.07 0 .46.3.87.66Z"/><path fill="#388CC8" d="M45.25 35.1c-.38.16-.44.3-.44 1.16 0 .8.2 1.1.74 1.1.55 0 .74-.3.74-1.16 0-1.01-.37-1.4-1.04-1.1Zm-10.1.13c-.39.44-.3 1.78.13 2.02.3.17.7.13.92-.1.3-.3.3-1.67.03-1.93-.26-.25-.87-.23-1.08 0ZM38.46 42c-.28.28-.27.86 0 1.12.2.18.4.2 2.16.2 1.85 0 1.93-.01 2.15-.23.28-.29.3-.8.04-1.09-.17-.2-.3-.21-2.17-.21-1.86 0-1.99 0-2.18.21Z"/><path fill="#fff" fill-rule="evenodd" d="M33.3 33.2c3.94.94 9.24 1.04 13.4.26.62-.12 1.29-.26 1.48-.32.63-.18.72-.15.72.26 0 .8.6 1.69 1.38 2.07.3.14.66.2 1.28.2 1.06 0 1.53.13 1.89.49.76.79.13 2.15-1 2.15-.27 0-.4-.06-.45-.2-.12-.35-.36-.54-.71-.54-.58 0-.69.23-.83 1.61a10.49 10.49 0 0 1-1.1 3.84 9.74 9.74 0 0 1-16.98.89 9.95 9.95 0 0 1-1.6-4.74c-.13-1.42-.24-1.6-.91-1.6-.29 0-.54.2-.66.55-.05.14-.18.19-.52.19-.56 0-1.03-.37-1.2-.95-.1-.34-.09-.47.07-.8.31-.64.7-.8 2.03-.9 1.24-.07 1.55-.17 2.08-.76.4-.42.64-1 .64-1.5 0-.44.02-.44 1-.2Zm11.5 3.06c0-.85.07-1 .45-1.17.67-.3 1.04.1 1.04 1.1 0 .86-.2 1.17-.74 1.17s-.74-.3-.74-1.1Zm-9.52 1c-.43-.25-.52-1.6-.13-2.03.2-.24.82-.26 1.08-.01.27.26.26 1.63-.03 1.93-.22.23-.61.27-.92.1Zm3.19 5.86c-.28-.26-.29-.84-.01-1.12.2-.2.32-.21 2.18-.21s2 .01 2.17.21c.26.3.24.8-.04 1.09-.22.22-.3.23-2.15.23-1.76 0-1.96-.02-2.15-.2Z" clip-rule="evenodd"/><path fill="#fff" d="M10.67 39.06c.75.1 1.68.04 2.6-.17l.24-.06v1.13c0 1.31-.08 1.7-.52 2.22-.8.97-2.13 1.04-2.98.16-.51-.52-.57-.74-.6-2.18l-.04-1.33.26.06 1.04.17Z"/><path fill="#fff" d="M13.72 20.14a8.32 8.32 0 0 1 3.85 2.44c1.58 1.7 2.17 3.33 2.31 6.39.12 2.6.37 3.85 1.23 6.22.27.74.48 1.41.45 1.48-.08.21-1.56 1.17-2.75 1.78-1.46.75-2.83 1.24-3.46 1.24h-.49v-1.53l.4-.26a8.11 8.11 0 0 0 2.1-2.44c.73-1.46.76-1.63.8-5.7.03-3.5.02-3.62-.16-3.91-.1-.17-.29-.34-.41-.4-.5-.18-.71-.11-1.5.56-.68.6-1.81 1.3-2.1 1.3-.08 0-.12-.15-.12-.56 0-.7-.18-1.08-.6-1.26-.42-.18-.63-.11-1.4.42-.78.55-1.02.68-1.76.94-.51.17-.83.2-2.53.24-2.94.08-2.8-.1-2.8 3.54 0 2.47.01 2.68.2 3.36a6.98 6.98 0 0 0 1.6 2.92c.37.4.85.84 1.06 1l.4.25v1.53h-.48c-.98 0-3.53-1.11-5.3-2.32-.52-.35-.94-.7-.94-.77 0-.08.18-.6.4-1.18.86-2.27 1.3-4.43 1.3-6.36 0-2.74.73-4.76 2.38-6.55A8.22 8.22 0 0 1 9 20.2a6.77 6.77 0 0 1 2.72-.32c.98.02 1.37.07 2 .27Z"/><path fill="#fff" d="M12.53 27.57c0 .5.31.95.78 1.11.32.12.43.12.98-.03a6.1 6.1 0 0 0 2.08-1.08l.49-.37-.04 3.03c-.04 2.87-.06 3.07-.24 3.64-.32.93-.7 1.56-1.4 2.26a5.24 5.24 0 0 1-6.27.95 6.47 6.47 0 0 1-2.19-2.3c-.53-1.07-.57-1.39-.62-3.93l-.04-2.32 1.74-.04c2.03-.06 2.74-.21 3.88-.86.4-.22.75-.4.79-.4.04-.02.06.14.06.34Zm38.99 2.39c-.28.32-1.48.93-2.53 1.28-4.6 1.55-12.17 1.55-16.79 0a8.63 8.63 0 0 1-2.5-1.28c-.19-.2-.03-.2 10.9-.2s11.1 0 10.92.2Zm-21.57 2.03.83.42V33c0 .87-.22 1.09-1.1 1.09h-.64v-1.27c0-.7.03-1.27.04-1.27l.88.44Zm16.69-15.73.22.06c3.08.85 5.58 1.53 5.59 1.55l2.23 3.82 2.21 3.8-3.12 3.22-.05-2.18c-.07-2.54-.13-2.76-.93-3.18-.38-.2-.58-.24-1.17-.2-.58.02-.73.08-.89.27a.77.77 0 0 0 .03 1.04c.19.2.33.24.82.24h.6v3.48H29.04l.02-1.72.03-1.7 4.7-.04c3.9-.02 4.73 0 4.86.13.95.85 2.76.9 3.8.12l.35-.27h2.7c1.7 0 2.77-.04 2.9-.12.47-.25.43-1.1-.07-1.35a12.4 12.4 0 0 0-2.39-.11h-2.12l.04-2.05c.06-2.25-.02-2.7-.45-2.9a15.4 15.4 0 0 0-2.84-.12c-2.48 0-2.6 0-2.87.22l-.28.22.07 4.63h-4.3c-4.27 0-4.31 0-4.76.23-.8.42-.87.64-.93 3.17l-.05 2.18-1.56-1.6-1.55-1.62 2.19-3.74 2.22-3.82c.04-.1 11.78-3.34 11.96-3.29l5.93 1.62Z"/><path fill="#fff" d="M42.35 20.91c0 .7-.05 1.47-.11 1.72-.2.85-.93 1.38-1.75 1.3-.57-.06-.94-.3-1.28-.82-.22-.33-.24-.46-.24-1.9v-1.58h3.38v1.28Zm9.83 13.18h-.61c-.52 0-.67-.04-.87-.27-.2-.21-.26-.36-.26-.82v-.58l.8-.43c.43-.23.82-.43.87-.43.04 0 .07.56.07 1.26v1.27ZM36.53 49.28a11.38 11.38 0 0 0 9-.32c.05 0 .1.37.1.83v.8l-.39.22c-.9.5-1.15.97-.8 1.5.31.46.6.4 1.92-.33.67-.4 1.24-.7 1.27-.7.06 0 1.06 2.09 1.06 2.23 0 .26-2.5 4.63-2.63 4.59-.07-.03-1.03-.86-2.13-1.83l-2-1.76.28-.15c.75-.39.98-1.04.54-1.5-.3-.3-.64-.26-1.37.16-.36.2-.7.37-.78.37-.07 0-1.23-.63-2.57-1.4l-2.44-1.4v-.8c0-.46.03-.83.08-.83.04 0 .43.15.86.32Zm-.1 3.59 2.82 1.63c.04.02-3.96 3.54-4.1 3.6-.12.04-2.63-4.33-2.63-4.6 0-.14 1-2.22 1.08-2.22.02 0 1.3.72 2.83 1.6Zm5.04 3.29.77.67c0 .02-.07.34-.2.72-.3.93-.54 1.12-1.43 1.12-.89 0-1.13-.2-1.43-1.11l-.22-.68.4-.35.74-.68c.2-.2.42-.35.5-.35.07 0 .46.3.87.66ZM67.76 39c.95.2 1.8.17 3.08-.11l.3-.06-.04 1.28c-.03 1.38-.1 1.65-.6 2.2a2 2 0 0 1-3.29-.53c-.19-.43-.21-.6-.21-1.7 0-.67.02-1.22.07-1.22l.69.13Zm-2.7-11.37c2.7.75 4.97.77 7.76.04 1.02-.26 1.11-.27 1.32-.14.11.08.24.26.27.38.02.13.03 1.34 0 2.7-.02 1.9-.06 2.59-.18 3.02a5.36 5.36 0 0 1-6.46 3.93 4.85 4.85 0 0 1-2.47-1.48 5.07 5.07 0 0 1-1.43-2.55c-.17-.62-.18-1.02-.18-3.24 0-2.4 0-2.53.18-2.7.22-.24.21-.24 1.2.04Z"/><path fill="#fff" d="M70.99 20.05c.75.21 1.94.8 2.58 1.29a8.08 8.08 0 0 1 3.18 5.94l.05.86h-.49c-.52 0-.6-.07-.6-.5 0-.4-.39-1-.8-1.27-.63-.4-.96-.42-2.42-.05-2.59.66-4.37.66-6.94 0-1.23-.33-1.35-.34-1.74-.24-.81.23-1.33.82-1.43 1.61l-.06.44h-.96v-.64c0-1.98.87-3.97 2.4-5.47a7.64 7.64 0 0 1 3.79-2.07c.75-.17 2.7-.1 3.45.1h-.01Zm-8.65 10.5v1.03l-.42-.05c-.59-.07-.93-.46-.93-1.03 0-.33.06-.46.28-.7.23-.22.35-.28.67-.28h.4v1.03Zm14.42-.79c.71.6.26 1.8-.68 1.8h-.3v-2.04h.36c.25 0 .43.07.62.24Z"/></g><defs><clipPath id="a"><path fill="#fff" d="M0 0h80v80H0z"/></clipPath></defs></svg>