<svg xmlns="http://www.w3.org/2000/svg" width="204" height="48" viewBox="0 0 204 48"><path d="m1.53,23.08c.91.05,1.71.08,2.4.08,1.3,0,2.23-.09,2.79-.28.83-.28,1.24-.91,1.24-1.89v-.15c-.02-.55-.13-.96-.32-1.22-.19-.26-.49-.46-.89-.6-.56-.2-1.42-.29-2.57-.29-.56,0-1.19.02-1.88.07-.35.02-.6.03-.76.03v3.28c-.01.35-.02.67-.02.98ZM.03,28.95c-.01-1.07-.02-3.84-.03-8.33v-2.48c0-.3.14-.53.42-.67.11-.05.27-.08.47-.09.2,0,.84-.04,1.92-.11.43-.02.82-.03,1.19-.03h.35c.41,0,.79.01,1.13.03,2.6.21,3.93,1.31,4,3.31v.23c0,2.45-1.41,3.71-4.23,3.8-.47.01-.93.02-1.38.02-.8,0-1.57-.02-2.34-.07,0,1.37.01,2.83.03,4.37,0,.21-.08.39-.24.54-.16.15-.34.23-.54.23h-.02c-.2,0-.38-.08-.52-.23-.15-.15-.22-.33-.22-.52Z" fill="#1e2f56" stroke-width="0"/><path d="m15.61,22.48c-.67-.47-1.31-.7-1.9-.7-.22,0-.44.03-.64.1-.76.24-1.35.77-1.76,1.6-.28.58-.42,1.16-.42,1.76,0,.3.03.61.1.91.21.91.76,1.61,1.65,2.1.34.19.72.28,1.14.28h.03c.4,0,.8-.09,1.18-.26.92-.41,1.44-1.1,1.58-2.07.07-.45.1-.84.1-1.17v-.18c0-.33-.03-.6-.1-.81-.13-.48-.33-.85-.57-1.13-.06-.08-.18-.22-.39-.42Zm.96-1.17s.04.04.07.07l.17.18c.04.06.1.11.17.16.81.78,1.21,1.9,1.21,3.34,0,.39-.03.8-.08,1.24-.1.76-.36,1.43-.79,2.01-.43.59-.96,1.02-1.61,1.3-.59.27-1.21.41-1.85.41h-.13c-.67-.01-1.28-.16-1.81-.46-1.29-.71-2.09-1.75-2.4-3.13-.1-.41-.15-.83-.15-1.24,0-.8.19-1.59.57-2.36.29-.58.66-1.07,1.12-1.48.45-.41.96-.7,1.52-.86.39-.12.78-.18,1.18-.18.94,0,1.89.34,2.84,1.01Z" fill="#1e2f56" stroke-width="0"/><path d="m19.99,28.94l.02-7.19v-3.6c0-.2.08-.37.23-.52.15-.15.33-.23.55-.23s.39.07.54.22c.15.15.22.32.22.53l-.02,7.08v3.72c0,.21-.08.38-.23.53-.15.15-.33.22-.54.22s-.39-.07-.54-.22c-.15-.15-.23-.32-.23-.53Z" fill="#1e2f56" stroke-width="0"/><path d="m24.88,21.39c.01.76.02,1.53.02,2.3v5.27c0,.21-.07.38-.22.53-.15.15-.33.22-.54.22s-.4-.07-.55-.21c-.15-.14-.23-.32-.23-.54v-5.05c0-.9,0-1.73-.02-2.49,0-.2.08-.37.23-.52.15-.15.33-.23.54-.23s.39.07.54.22.23.32.23.51Zm-1.32-3.52c.15-.15.34-.23.55-.23s.4.08.55.23c.15.15.23.33.23.54s-.08.38-.23.53c-.15.15-.34.22-.55.22s-.4-.07-.55-.22-.23-.32-.23-.53.08-.39.23-.54Z" fill="#1e2f56" stroke-width="0"/><path d="m32.93,23.23c-.12-.47-.47-.84-1.03-1.13-.43-.22-.88-.33-1.36-.34-.15,0-.29.01-.44.03-.64.1-1.16.41-1.56.95-.48.62-.72,1.48-.72,2.59v.23c.02.92.27,1.62.74,2.1.47.48,1.04.74,1.7.78.09.01.18.02.29.02.55,0,1.05-.14,1.51-.42.52-.33.83-.76.94-1.3.03-.2.14-.35.32-.46.13-.09.27-.13.42-.13h.15c.2.04.37.15.5.33.09.12.13.24.12.37,0,.05,0,.11-.02.16-.19.97-.72,1.72-1.58,2.25-.74.46-1.55.68-2.44.68-.12,0-.25,0-.39-.02-1.03-.08-1.91-.49-2.64-1.24-.74-.75-1.13-1.78-1.16-3.08v-.23c0-1.46.32-2.61.96-3.46.68-.89,1.55-1.42,2.6-1.58.25-.03.49-.05.72-.05.77,0,1.5.19,2.17.55.87.49,1.43,1.15,1.66,1.99.02.07.03.13.03.2-.01.13-.05.26-.12.37-.11.2-.26.32-.45.36-.07.01-.13.02-.18.02-.13-.01-.27-.05-.4-.11-.18-.11-.3-.26-.35-.44Z" fill="#1e2f56" stroke-width="0"/><path d="m42.7,24.29c-.07-.62-.32-1.18-.76-1.68-.44-.5-1.02-.78-1.74-.85-.09-.01-.18-.02-.27-.02-.6,0-1.12.21-1.55.62-.49.47-.81,1.12-.94,1.96,1.16,0,2.22,0,3.18-.02.95-.01,1.65-.02,2.08-.02Zm.74,1.47l-.12.02h-.44c-.49,0-1.24,0-2.25.02-1.01.01-2.09.02-3.24.02.07.62.27,1.17.6,1.66.34.49.81.82,1.41.99.24.07.47.1.71.1.37,0,.73-.08,1.09-.24.58-.26,1.05-.74,1.41-1.43.09-.18.24-.31.44-.38.08-.02.16-.03.25-.03.11,0,.22.03.34.08.19.09.32.23.39.42.03.09.05.17.05.24,0,.11-.03.21-.08.31-.52,1.01-1.24,1.72-2.17,2.14-.56.25-1.13.38-1.71.38h-.1c-.34,0-.68-.05-1.02-.15-.96-.26-1.74-.83-2.32-1.7-.56-.8-.84-1.77-.84-2.9v-.26c.06-1.6.52-2.82,1.39-3.65.78-.75,1.69-1.13,2.7-1.13.12,0,.24,0,.35.02,1.16.09,2.14.58,2.92,1.47.69.78,1.04,1.74,1.04,2.89,0,.14,0,.29-.02.44-.01.2-.09.36-.23.49-.14.13-.31.2-.51.2h-.05Z" fill="#1e2f56" stroke-width="0"/><path d="m57.81,20.62c-.12-.64-.46-1.16-1.02-1.55-.54-.36-1.18-.55-1.93-.59h-.22c-.66,0-1.24.13-1.75.39-.56.3-.91.7-1.04,1.17-.08.29-.12.54-.12.75,0,.14.02.26.05.36.09.26.26.48.51.64.25.17.58.31.98.43.68.2,1.27.33,1.76.42.49.08,1.06.21,1.71.4.64.19,1.16.41,1.55.67.96.61,1.44,1.47,1.44,2.58,0,.17-.01.36-.03.55-.15,1.09-.78,1.91-1.92,2.48-.81.41-1.74.62-2.79.62-.16-.01-.31-.02-.47-.02-1.24-.07-2.3-.4-3.16-1.01-1.04-.72-1.56-1.66-1.56-2.82.01-.21.09-.38.24-.53.15-.15.32-.22.54-.22s.39.08.54.23c.15.15.22.33.22.52,0,.65.31,1.19.92,1.62.62.43,1.4.67,2.35.73.13.01.26.02.39.02.8,0,1.48-.15,2.07-.44.67-.34,1.05-.79,1.13-1.35.02-.13.03-.26.03-.38,0-.26-.04-.48-.13-.67-.29-.61-1.22-1.08-2.79-1.4-.35-.08-.53-.11-.56-.11s-.06,0-.09-.02h-.02c-.76-.15-1.39-.3-1.89-.46-.5-.15-.94-.36-1.34-.62-.82-.55-1.23-1.3-1.23-2.23,0-.35.06-.72.17-1.11.26-.9.86-1.6,1.8-2.09.75-.39,1.59-.59,2.52-.59h.29c1.03.04,1.96.35,2.8.93.83.58,1.35,1.39,1.55,2.43.01.04.02.09.02.13,0,.15-.05.29-.15.42-.12.17-.29.28-.49.31-.04.01-.09.02-.13.02-.16,0-.3-.05-.44-.15-.18-.12-.28-.28-.3-.47Z" fill="#1e2f56" stroke-width="0"/><path d="m64.26,28.3c.06,0,.13,0,.21,0,.08,0,.2,0,.34.02.14.02.28.1.41.25.11.13.17.29.17.47v.08c-.02.2-.11.36-.27.49-.13.11-.29.16-.47.16h-.08s-.06.02-.13.05c-.03.01-.08.02-.15.02-.13,0-.34-.01-.62-.03-.44-.04-.81-.22-1.12-.53-.31-.31-.47-.77-.5-1.38-.02-.8-.03-2.1-.03-3.9v-1.97c-.33.01-.6.02-.81.02s-.4-.07-.55-.21c-.15-.14-.22-.32-.22-.52s.07-.38.21-.53c.14-.15.32-.22.55-.22h.82c.01-.73.02-1.3.02-1.71,0-.21.08-.38.24-.52.15-.14.32-.21.54-.21l.02.02c.21,0,.39.07.54.21.15.14.22.36.22.65l-.03,1.55h.97s.02,0,.03-.02c.27,0,.47.07.6.21.16.14.24.32.24.54,0,.19-.07.35-.22.51s-.36.23-.63.24c-.27,0-.61,0-1,0v1.57c0,2.9.03,4.44.08,4.6l.05.1s.12.05.27.05c.08,0,.17,0,.29-.02h.02l.02-.02Z" fill="#1e2f56" stroke-width="0"/><path d="m72.69,25.43c-.15.07-.54.14-1.18.23-.64.09-.99.14-1.04.15-.83.09-1.42.2-1.76.33s-.55.31-.6.54c-.03.15-.05.3-.05.44,0,.34.1.61.3.83.29.3.73.47,1.31.51.08.01.15.02.22.02.51,0,1.01-.13,1.5-.39.56-.3.98-.72,1.26-1.26.01-.07.03-.53.05-1.39Zm1.48,1.47l-.02.46v.47c0,.2.01.33.03.41.02.02.14.04.35.07.21.02.39.11.52.28.11.14.17.29.17.46v.08c-.03.2-.13.36-.29.49-.13.11-.33.16-.57.16h-.13c-.69-.07-1.17-.35-1.43-.85-.88.68-1.86,1.03-2.92,1.03-.12,0-.25,0-.37-.02-.96-.07-1.75-.41-2.35-1.04-.44-.46-.66-1.02-.66-1.7,0-.26.03-.53.1-.82.25-1.1,1.24-1.76,2.99-1.97.53-.07,1.02-.12,1.48-.16.95-.11,1.48-.26,1.58-.44-.01-.36-.03-.74-.07-1.14-.02-.26-.22-.49-.6-.68-.32-.16-.73-.24-1.23-.24-.07.01-.14.02-.22.02-.59.02-1.08.16-1.46.42-.38.26-.58.6-.59,1.01,0,.21-.08.38-.24.52-.15.14-.32.21-.52.21l-.02-.02c-.2,0-.38-.08-.54-.23-.15-.14-.22-.3-.22-.49,0-.92.4-1.66,1.21-2.22.62-.43,1.37-.67,2.27-.72h.27c.78,0,1.47.15,2.07.46.83.43,1.28,1.05,1.34,1.84.08,1.02.12,1.86.12,2.53,0,.23,0,.43-.02.62-.03.74-.05,1.14-.05,1.21Z" fill="#1e2f56" stroke-width="0"/><path d="m78.44,25.2v.07c-.01.88.26,1.62.82,2.21.56.59,1.2.93,1.93,1.02.11.01.22.02.32.02.58,0,1.08-.2,1.48-.59.6-.59.91-1.52.91-2.79,0-1.2-.29-2.08-.86-2.66-.41-.41-.94-.62-1.56-.62-.09,0-.18,0-.27.02-.74.07-1.39.4-1.95,1.01-.55.59-.82,1.32-.82,2.2v.11Zm-.08,3.51v.31c0,.14-.07.28-.22.42-.15.14-.32.21-.54.21s-.39-.07-.55-.21c-.15-.14-.23-.32-.23-.54,0-.77,0-2.32-.02-4.65v-1.68c0-1.64.01-3.12.03-4.43,0-.18.08-.35.24-.51.16-.14.34-.22.54-.23h.02c.21,0,.39.07.53.22.14.15.21.33.21.55-.02,1.12-.03,2.29-.03,3.51.78-.75,1.7-1.18,2.74-1.29.13-.01.27-.02.4-.02,1.04,0,1.94.37,2.71,1.11.83.83,1.24,2.03,1.24,3.6v.11c-.01,1.63-.44,2.87-1.29,3.72-.73.72-1.6,1.08-2.6,1.08-.16,0-.32-.01-.49-.03-1.02-.1-1.92-.52-2.69-1.26Z" fill="#1e2f56" stroke-width="0"/><path d="m88.6,21.39c.01.76.02,1.53.02,2.3v5.27c0,.21-.07.38-.22.53-.15.15-.33.22-.54.22s-.4-.07-.55-.21-.23-.32-.23-.54v-5.05c0-.9,0-1.73-.02-2.49,0-.2.08-.37.23-.52s.33-.23.54-.23.39.07.54.22c.15.15.23.32.23.51Zm-1.32-3.52c.15-.15.34-.23.56-.23s.4.08.55.23c.15.15.23.33.23.54s-.08.38-.23.53-.34.22-.55.22-.4-.07-.56-.22c-.15-.15-.23-.32-.23-.53s.08-.39.23-.54Z" fill="#1e2f56" stroke-width="0"/><path d="m90.69,28.94l.02-7.19v-3.6c0-.2.08-.37.23-.52.15-.15.33-.23.55-.23s.39.07.54.22c.15.15.22.32.22.53l-.02,7.08v3.72c0,.21-.08.38-.23.53-.15.15-.33.22-.54.22s-.39-.07-.54-.22c-.15-.15-.23-.32-.23-.53Z" fill="#1e2f56" stroke-width="0"/><path d="m95.83,21.39c.01.76.02,1.53.02,2.3v5.27c0,.21-.07.38-.22.53-.15.15-.33.22-.54.22s-.4-.07-.55-.21-.23-.32-.23-.54v-5.05c0-.9,0-1.73-.02-2.49,0-.2.08-.37.23-.52.15-.15.33-.23.54-.23s.39.07.54.22c.15.15.23.32.23.51Zm-1.32-3.52c.15-.15.34-.23.55-.23s.4.08.55.23c.15.15.23.33.23.54s-.08.38-.23.53c-.15.15-.34.22-.55.22s-.4-.07-.55-.22-.23-.32-.23-.53.08-.39.23-.54Z" fill="#1e2f56" stroke-width="0"/><path d="m97.73,20.73c.13-.15.32-.23.57-.23.04,0,.12,0,.22-.02.43,0,1.31.01,2.65.03.96.01,1.7.02,2.22.02h.77s.03,0,.05-.02c.29,0,.51.15.65.44.06.11.08.22.08.33,0,.18-.09.37-.27.55-.36.5-1.78,2.22-4.25,5.15-.02.04-.12.17-.29.37-.17.2-.4.47-.68.81,1.56,0,3.23.02,5.02.07.21,0,.39.08.54.23.14.14.22.32.22.52,0,.22-.08.39-.23.52-.15.13-.33.2-.56.21-1.83-.04-3.41-.07-4.76-.07-.67,0-1.28,0-1.83.02-.2,0-.38-.07-.54-.21-.16-.14-.24-.32-.24-.52s.07-.39.22-.54c1.25-1.5,2.12-2.54,2.59-3.11.47-.57,1.01-1.22,1.6-1.95.6-.73.96-1.17,1.08-1.32-.35-.01-.68-.02-.99-.02h-.62c-1.23-.02-2.04-.03-2.44-.03h-.2s-.02,0-.03.02c-.2-.01-.38-.08-.54-.21-.16-.14-.24-.32-.25-.52.01-.21.08-.38.22-.52Z" fill="#1e2f56" stroke-width="0"/><path d="m112.7,25.43c-.14.07-.54.14-1.18.23-.64.09-.99.14-1.04.15-.83.09-1.42.2-1.76.33-.35.13-.55.31-.61.54-.03.15-.05.3-.05.44,0,.34.1.61.3.83.29.3.73.47,1.31.51.08.01.15.02.22.02.52,0,1.01-.13,1.5-.39.56-.3.98-.72,1.26-1.26.01-.07.03-.53.05-1.39Zm1.48,1.47l-.02.46v.47c0,.2.01.33.03.41.02.02.14.04.35.07.21.02.39.11.52.28.11.14.17.29.17.46v.08c-.03.2-.13.36-.28.49-.14.11-.33.16-.57.16h-.13c-.69-.07-1.17-.35-1.43-.85-.89.68-1.86,1.03-2.92,1.03-.12,0-.25,0-.37-.02-.96-.07-1.75-.41-2.35-1.04-.44-.46-.65-1.02-.65-1.7,0-.26.03-.53.1-.82.25-1.1,1.24-1.76,2.99-1.97.53-.07,1.02-.12,1.48-.16.95-.11,1.48-.26,1.58-.44-.01-.36-.03-.74-.07-1.14-.02-.26-.22-.49-.6-.68-.33-.16-.73-.24-1.23-.24-.07.01-.14.02-.22.02-.59.02-1.08.16-1.46.42-.38.26-.58.6-.59,1.01,0,.21-.08.38-.24.52-.15.14-.32.21-.52.21l-.02-.02c-.2,0-.38-.08-.54-.23-.15-.14-.22-.3-.22-.49,0-.92.4-1.66,1.21-2.22.62-.43,1.37-.67,2.27-.72h.27c.78,0,1.47.15,2.07.46.83.43,1.28,1.05,1.34,1.84.08,1.02.12,1.86.12,2.53,0,.23,0,.43-.02.62-.03.74-.05,1.14-.05,1.21Z" fill="#1e2f56" stroke-width="0"/><path d="m119.91,28.3c.06,0,.13,0,.21,0,.08,0,.2,0,.34.02s.28.1.41.25c.11.13.17.29.17.47v.08c-.02.2-.11.36-.27.49-.14.11-.29.16-.47.16h-.08s-.06.02-.13.05c-.03.01-.08.02-.15.02-.14,0-.34-.01-.62-.03-.44-.04-.81-.22-1.12-.53-.31-.31-.47-.77-.5-1.38-.02-.8-.03-2.1-.03-3.9v-1.97c-.32.01-.6.02-.81.02s-.4-.07-.55-.21c-.15-.14-.22-.32-.22-.52s.07-.38.21-.53c.14-.15.32-.22.55-.22h.82c.01-.73.02-1.3.02-1.71,0-.21.08-.38.24-.52.15-.14.32-.21.54-.21l.02.02c.21,0,.39.07.54.21.14.14.22.36.22.65l-.03,1.55h.97s.02,0,.03-.02c.27,0,.47.07.6.21.16.14.24.32.24.54,0,.19-.07.35-.22.51-.15.15-.36.23-.63.24-.27,0-.61,0-1,0v1.57c0,2.9.03,4.44.08,4.6l.05.1s.12.05.27.05c.08,0,.17,0,.29-.02h.02l.02-.02Z" fill="#1e2f56" stroke-width="0"/><path d="m124.2,21.39c.01.76.02,1.53.02,2.3v5.27c0,.21-.07.38-.22.53-.15.15-.32.22-.54.22s-.39-.07-.55-.21-.23-.32-.23-.54v-5.05c0-.9,0-1.73-.02-2.49,0-.2.08-.37.23-.52s.33-.23.54-.23.39.07.54.22.23.32.23.51Zm-1.32-3.52c.15-.15.34-.23.56-.23s.4.08.56.23c.15.15.23.33.23.54s-.08.38-.23.53c-.15.15-.34.22-.56.22s-.4-.07-.56-.22c-.15-.15-.23-.32-.23-.53s.08-.39.23-.54Z" fill="#1e2f56" stroke-width="0"/><path d="m131.21,22.48c-.67-.47-1.3-.7-1.9-.7-.22,0-.44.03-.64.1-.76.24-1.35.77-1.76,1.6-.28.58-.42,1.16-.42,1.76,0,.3.03.61.1.91.21.91.76,1.61,1.65,2.1.34.19.72.28,1.14.28h.03c.4,0,.8-.09,1.18-.26.92-.41,1.45-1.1,1.58-2.07.07-.45.1-.84.1-1.17v-.18c0-.33-.03-.6-.1-.81-.13-.48-.32-.85-.57-1.13-.06-.08-.18-.22-.39-.42Zm.96-1.17s.04.04.07.07l.17.18c.04.06.1.11.17.16.81.78,1.21,1.9,1.21,3.34,0,.39-.03.8-.08,1.24-.1.76-.36,1.43-.79,2.01-.43.59-.96,1.02-1.61,1.3-.59.27-1.21.41-1.85.41h-.13c-.67-.01-1.28-.16-1.81-.46-1.29-.71-2.09-1.75-2.4-3.13-.1-.41-.15-.83-.15-1.24,0-.8.19-1.59.57-2.36.29-.58.66-1.07,1.12-1.48.45-.41.96-.7,1.52-.86.39-.12.78-.18,1.18-.18.94,0,1.89.34,2.84,1.01Z" fill="#1e2f56" stroke-width="0"/><path d="m141.04,28.98l.08-4.66c0-.97-.13-1.61-.4-1.92-.14-.16-.36-.32-.65-.47-.21-.11-.45-.16-.71-.16-.1-.01-.21,0-.32.02-.39.07-.78.24-1.15.54-.38.29-.69.73-.94,1.32-.25.59-.4,1.27-.44,2.05,0,.89,0,1.99.02,3.29,0,.21-.07.38-.22.53-.15.15-.32.22-.54.22s-.4-.07-.55-.21c-.15-.14-.23-.32-.23-.54-.01-1-.02-1.85-.02-2.56-.01-.04-.02-.13-.02-.25s0-.3.02-.51c-.02-2.88-.03-4.34-.03-4.39,0-.18.07-.35.2-.49.16-.15.34-.23.56-.23s.39.07.54.22c.15.15.22.3.23.45,0,.15,0,.28,0,.37.16-.17.34-.34.54-.49.56-.45,1.18-.71,1.87-.8.17-.02.34-.03.5-.03.47,0,.91.1,1.31.29.54.26.95.56,1.23.91.28.34.47.74.57,1.18.1.45.16.99.17,1.65l-.08,4.68c0,.2-.08.37-.23.51-.15.15-.33.22-.55.22s-.39-.07-.54-.22c-.15-.15-.22-.32-.22-.51Z" fill="#1e2f56" stroke-width="0"/><path d="m150.25,23.08c.91.05,1.71.08,2.4.08,1.3,0,2.23-.09,2.79-.28.83-.28,1.24-.91,1.24-1.89v-.15c-.02-.55-.13-.96-.32-1.22-.19-.26-.49-.46-.89-.6-.56-.2-1.42-.29-2.57-.29-.56,0-1.19.02-1.88.07-.35.02-.6.03-.76.03v3.28c-.01.35-.02.67-.02.98Zm-1.5,5.87c-.01-1.07-.02-3.84-.03-8.33v-2.48c0-.3.14-.53.42-.67.11-.05.27-.08.47-.09.2,0,.84-.04,1.92-.11.43-.02.82-.03,1.19-.03h.35c.41,0,.79.01,1.13.03,2.6.21,3.93,1.31,4,3.31v.23c0,2.45-1.41,3.71-4.23,3.8-.47.01-.93.02-1.38.02-.79,0-1.57-.02-2.33-.07,0,1.37.01,2.83.03,4.37,0,.21-.08.39-.24.54-.16.15-.34.23-.54.23h-.02c-.2,0-.38-.08-.52-.23-.15-.15-.22-.33-.22-.52Z" fill="#1e2f56" stroke-width="0"/><path d="m161.35,24.73v2.76c-.01.91-.02,1.43-.02,1.55-.02.21-.1.37-.24.51-.13.12-.3.18-.49.2h-.07c-.21-.02-.39-.11-.52-.26-.13-.14-.2-.29-.2-.46l.02-1.17c-.01-.32-.02-.7-.02-1.14,0-1.33,0-2.1,0-2.32,0-.22,0-.58,0-1.07v-1.94c0-.2.08-.37.23-.51.15-.15.33-.22.55-.22s.39.07.54.22c.15.15.22.29.22.42v.31c.64-.55,1.46-.9,2.47-1.04h.1c.18,0,.34.06.47.16.17.13.26.29.29.49,0,.03,0,.07.02.1.01.16-.04.31-.15.44-.14.16-.31.26-.52.28-.7.1-1.24.32-1.65.67-.54.45-.87,1.13-1.01,2.05Z" fill="#1e2f56" stroke-width="0"/><path d="m171.65,22.48c-.67-.47-1.3-.7-1.9-.7-.22,0-.44.03-.64.1-.76.24-1.35.77-1.76,1.6-.28.58-.42,1.16-.42,1.76,0,.3.03.61.1.91.21.91.76,1.61,1.65,2.1.34.19.72.28,1.14.28h.03c.4,0,.79-.09,1.18-.26.92-.41,1.44-1.1,1.58-2.07.07-.45.1-.84.1-1.17v-.18c0-.33-.03-.6-.1-.81-.13-.48-.32-.85-.57-1.13-.06-.08-.18-.22-.39-.42Zm.96-1.17s.04.04.07.07l.17.18c.04.06.1.11.17.16.81.78,1.21,1.9,1.21,3.34,0,.39-.03.8-.08,1.24-.1.76-.36,1.43-.79,2.01-.43.59-.96,1.02-1.61,1.3-.59.27-1.21.41-1.85.41h-.14c-.67-.01-1.28-.16-1.81-.46-1.29-.71-2.09-1.75-2.4-3.13-.1-.41-.15-.83-.15-1.24,0-.8.19-1.59.57-2.36.29-.58.66-1.07,1.12-1.48.45-.41.96-.7,1.52-.86.39-.12.78-.18,1.18-.18.94,0,1.89.34,2.84,1.01Z" fill="#1e2f56" stroke-width="0"/><path d="m175.63,17.86c.15-.15.34-.23.56-.23s.4.08.55.23c.15.15.23.33.23.54s-.08.38-.23.53-.34.22-.55.22-.4-.07-.56-.22-.23-.32-.23-.53.08-.39.23-.54Zm-.26,13.04c.04-1.55.07-3.11.07-4.66v-.91c-.01-1.85-.02-2.85-.02-3.02v-.91c0-.21.08-.38.23-.53.15-.15.33-.22.55-.22s.39.07.54.22c.15.15.22.31.22.48v1.32c.01,1.03.02,1.99.02,2.89,0,2.24-.02,4.04-.07,5.4-.02.8-.35,1.37-.98,1.71-.31.16-.67.24-1.06.24-.1,0-.21,0-.32-.02-.21-.02-.39-.11-.52-.26-.12-.14-.19-.3-.19-.47.01-.24.11-.43.29-.57.14-.11.31-.16.54-.16h.25c.2,0,.32-.04.37-.13.06-.11.08-.24.08-.39Z" fill="#1e2f56" stroke-width="0"/><path d="m185.41,24.29c-.07-.62-.32-1.18-.76-1.68-.44-.5-1.02-.78-1.74-.85-.09-.01-.18-.02-.27-.02-.6,0-1.12.21-1.55.62-.49.47-.81,1.12-.94,1.96,1.17,0,2.22,0,3.18-.02.95-.01,1.65-.02,2.08-.02Zm.74,1.47l-.12.02h-.44c-.49,0-1.24,0-2.25.02-1.01.01-2.09.02-3.24.02.07.62.27,1.17.6,1.66.34.49.81.82,1.41.99.24.07.47.1.71.1.37,0,.73-.08,1.09-.24.58-.26,1.05-.74,1.41-1.43.09-.18.24-.31.44-.38.08-.02.16-.03.25-.03.11,0,.22.03.34.08.19.09.32.23.39.42.03.09.05.17.05.24,0,.11-.03.21-.08.31-.52,1.01-1.24,1.72-2.17,2.14-.56.25-1.13.38-1.71.38h-.1c-.34,0-.68-.05-1.02-.15-.96-.26-1.74-.83-2.32-1.7-.56-.8-.84-1.77-.84-2.9v-.26c.06-1.6.52-2.82,1.4-3.65.78-.75,1.68-1.13,2.7-1.13.12,0,.24,0,.35.02,1.16.09,2.14.58,2.92,1.47.7.78,1.04,1.74,1.04,2.89,0,.14,0,.29-.02.44-.01.2-.09.36-.23.49-.14.13-.31.2-.51.2h-.05Z" fill="#1e2f56" stroke-width="0"/><path d="m195.24,23.23c-.12-.47-.47-.84-1.03-1.13-.42-.22-.88-.33-1.36-.34-.15,0-.29.01-.44.03-.64.1-1.16.41-1.56.95-.48.62-.72,1.48-.72,2.59v.23c.02.92.27,1.62.74,2.1.47.48,1.04.74,1.7.78.09.01.18.02.29.02.55,0,1.05-.14,1.51-.42.51-.33.83-.76.94-1.3.03-.2.14-.35.32-.46.13-.09.27-.13.42-.13h.15c.2.04.37.15.5.33.09.12.13.24.12.37,0,.05,0,.11-.02.16-.19.97-.72,1.72-1.58,2.25-.74.46-1.55.68-2.44.68-.12,0-.25,0-.39-.02-1.03-.08-1.91-.49-2.64-1.24-.74-.75-1.13-1.78-1.16-3.08v-.23c0-1.46.32-2.61.96-3.46.68-.89,1.55-1.42,2.6-1.58.25-.03.49-.05.72-.05.77,0,1.49.19,2.17.55.87.49,1.43,1.15,1.66,1.99.02.07.03.13.03.2-.01.13-.05.26-.12.37-.11.2-.26.32-.45.36-.07.01-.13.02-.18.02-.13-.01-.27-.05-.4-.11-.18-.11-.3-.26-.35-.44Z" fill="#1e2f56" stroke-width="0"/><path d="m201.75,28.3c.06,0,.13,0,.21,0,.08,0,.19,0,.34.02.14.02.28.1.41.25.11.13.17.29.17.47v.08c-.02.2-.11.36-.27.49-.14.11-.29.16-.47.16h-.08s-.06.02-.13.05c-.03.01-.08.02-.15.02-.14,0-.34-.01-.62-.03-.44-.04-.81-.22-1.12-.53-.31-.31-.47-.77-.5-1.38-.02-.8-.03-2.1-.03-3.9v-1.97c-.32.01-.6.02-.82.02s-.4-.07-.55-.21c-.15-.14-.22-.32-.22-.52s.07-.38.21-.53c.14-.15.32-.22.55-.22h.82c.01-.73.02-1.3.02-1.71,0-.21.08-.38.24-.52.15-.14.33-.21.54-.21l.02.02c.21,0,.39.07.54.21.15.14.22.36.22.65l-.03,1.55h.97s.02,0,.03-.02c.27,0,.47.07.6.21.16.14.24.32.24.54,0,.19-.07.35-.22.51-.15.15-.36.23-.63.24-.28,0-.61,0-1,0v1.57c0,2.9.03,4.44.08,4.6l.05.1s.12.05.27.05c.08,0,.17,0,.29-.02h.02l.02-.02Z" fill="#1e2f56" stroke-width="0"/><path d="m177.79,39.66c0-.91.32-1.69.98-2.35.65-.66,1.44-.99,2.36-.99s1.71.33,2.36.99c.65.66.98,1.44.98,2.35s-.33,1.71-.99,2.36c-.66.65-1.44.98-2.35.98s-1.69-.33-2.35-.98c-.66-.65-.99-1.44-.99-2.36Z" fill="#438dd0" stroke-width="0"/><path d="m187.56,39.66c0-.91.32-1.69.98-2.35.65-.66,1.44-.99,2.36-.99s1.71.33,2.36.99c.65.66.98,1.44.98,2.35s-.33,1.71-.99,2.36c-.66.65-1.44.98-2.35.98s-1.69-.33-2.35-.98c-.66-.65-.99-1.44-.99-2.36Z" fill="#5378be" stroke-width="0"/><path d="m197.32,39.66c0-.91.33-1.69.98-2.35.65-.66,1.44-.99,2.36-.99s1.71.33,2.36.99c.65.66.98,1.44.98,2.35s-.33,1.71-.99,2.36c-.66.65-1.44.98-2.35.98s-1.69-.33-2.35-.98c-.66-.65-.99-1.44-.99-2.36Z" fill="#25356e" stroke-width="0"/></svg>