<svg xmlns="http://www.w3.org/2000/svg" width="80" height="80" fill="none"><g clip-path="url(#a)"><path fill="#388CC8" d="M26.62.9v20.6l-.44-.63a7.08 7.08 0 0 0-4.54-2.7c-1.36-.2-7.57-.21-9.21-.02-2.4.28-3.9 1.1-5.08 2.74a18.13 18.13 0 0 0-2.9 7.16c-.16 1.05-.2 2.4-.18 5.89l.05 4.52.46.77c.29.47.75.94 1.21 1.23.66.41.9.47 1.89.47h1.11v1.2c0 1.32.22 1.75.95 1.93.2.05 3.51.07 7.36.05l7-.05.36-.36c.35-.34.35-.42.43-5.1l.08-4.76 3.21 1.79a24.81 24.81 0 0 0 4 1.97c1.63.33 3.16-.34 4.34-1.9l.52-.71 36.27-.16.7-.72V.75L73.36 0H27.5l-.89.9ZM71.7 32.25H37.4l-.18-.5c-.1-.28-.36-.79-.58-1.11l-.4-.6 3.71-5.63a72.71 72.71 0 0 0 3.6-5.76c-.4-.35-1.76-1.27-1.88-1.27-.08 0-1.81 2.54-3.85 5.63l-3.75 5.64a64.6 64.6 0 0 1-4.71-2.72c-.06-.1-.12-5.37-.12-11.73V2.66H71.7v29.58ZM22.6 21.09c.97.53 1.6 1.3 3.03 3.65 2.14 3.5 1.8 3.17 5.35 5.14a24.99 24.99 0 0 1 3.55 2.23c.9 1.1.24 2.75-1.15 2.9-.65.07-.9-.04-4.45-2.01l-3.75-2.1-.08-.98c-.06-.79-.15-1.05-.45-1.29a1.17 1.17 0 0 0-1.62.1l-.38.37v12.38h-11.2v-6.56c0-3.61-.04-6.68-.09-6.82-.12-.3-.84-.7-1.25-.7-.17 0-.46.14-.66.3l-.37.3L9 32.82c-.07 4.5-.09 4.89-.36 5.18a1.1 1.1 0 0 1-1.57 0c-.27-.31-.29-.6-.29-4.58.02-4.38.08-5.09.72-7.14a13.76 13.76 0 0 1 2.22-4.22 3.1 3.1 0 0 1 1.63-1.1c.87-.28 1.33-.3 5.78-.27 4.67.04 4.84.05 5.47.38Z"/><path fill="#388CC8" d="M65.17 6.92c-.05.1-.06 5.13-.05 11.16l.05 10.95 2.53.1V6.72h-1.23c-.84 0-1.25.06-1.3.19ZM48.39 29.1h2.45V15.97h-2.45v13.15Zm9.96 0h2.6V16.75h-2.6v12.37Zm-4.91.02 2.53-.09.05-4.2.03-4.17h-2.6v8.46ZM15.78 2.2a7.37 7.37 0 0 0-4.95 3.28 7.49 7.49 0 0 0 1.14 9.2 6.7 6.7 0 0 0 4.86 1.9c2.86 0 5.1-1.46 6.4-4.22.54-1.14.55-1.22.55-2.97 0-1.75-.01-1.83-.56-3a6.91 6.91 0 0 0-7.44-4.18Zm2.9 2.92c.9.42 1.8 1.33 2.27 2.31.52 1.1.52 2.82 0 3.92a5 5 0 0 1-2.24 2.28c-1.01.5-2.71.53-3.75.03a5.15 5.15 0 0 1-2.3-2.33 5.3 5.3 0 0 1-.03-3.85 5.16 5.16 0 0 1 2.51-2.46 4.94 4.94 0 0 1 3.54.1ZM11.9 46.46a6.46 6.46 0 0 0-4.61 6.37 6.49 6.49 0 0 0 3.83 6.07c.94.46 1.14.49 2.64.49 1.55 0 1.66-.02 2.76-.58a6.47 6.47 0 0 0 3.1-3.22c.46-.99.49-1.16.49-2.77 0-1.62-.03-1.79-.5-2.79a7.44 7.44 0 0 0-2.77-3.07 6.6 6.6 0 0 0-4.93-.5Zm3.33 2.62a4.17 4.17 0 0 1 2.36 4.7 4.52 4.52 0 0 1-1.99 2.62 3.94 3.94 0 0 1-5.61-2.24c-1.1-3.28 2.1-6.38 5.24-5.08Zm23.09-2.68a6.3 6.3 0 0 0-4.14 3.47 4.95 4.95 0 0 0-.63 2.67 5.1 5.1 0 0 0 .27 2.44 6.62 6.62 0 0 0 3.51 3.92c.94.46 1.14.49 2.63.49 1.48 0 1.68-.03 2.62-.49a6.62 6.62 0 0 0 3.5-3.92c.3-.83.34-1.2.28-2.44a4.95 4.95 0 0 0-.63-2.67 6.36 6.36 0 0 0-7.41-3.47Zm2.97 2.6c1.29.4 2.42 1.9 2.6 3.4.37 3.2-3.05 5.57-5.79 4a4.08 4.08 0 0 1-1.47-5.71c.96-1.63 2.73-2.27 4.66-1.7Zm23.19-2.58a6.62 6.62 0 0 0-4.2 3.66c-.44.95-.47 1.14-.47 2.74 0 1.6.03 1.78.49 2.77a6.47 6.47 0 0 0 3.1 3.22c1.1.56 1.2.58 2.77.58 1.56 0 1.67-.02 2.79-.6a6.65 6.65 0 0 0 3.06-8.77 6.35 6.35 0 0 0-7.54-3.6ZM68 49.25a4 4 0 0 1 2.15 3.5c.06 3.09-3.2 5.14-5.83 3.65a4.24 4.24 0 0 1-2.08-4.02 4.07 4.07 0 0 1 3.22-3.54 3.67 3.67 0 0 1 2.54.4ZM12.14 61.6a16.4 16.4 0 0 0-4.3 1.4 10.15 10.15 0 0 0-5.25 5.6c-.37 1.06-.4 1.37-.52 5.66-.14 4.72-.1 5.24.49 5.55.15.08 4.95.16 11.26.17l11 .02.33-.33c.3-.33.32-.45.32-4.83 0-4.9-.06-5.45-.87-7.22a11.7 11.7 0 0 0-3.57-3.91 13.17 13.17 0 0 0-6.75-2.13c-.92-.03-1.88-.02-2.14.02Zm4.43 2.9c2.34.7 4.46 2.15 5.42 3.68.83 1.35.95 2.09.95 5.87v3.41H4.54V74.6c.02-4.6.31-5.79 1.9-7.43a9.81 9.81 0 0 1 4.09-2.5c1.3-.44 1.64-.5 3.2-.5 1.33 0 2 .07 2.84.32Zm21.78-2.9c-3.2.48-6.72 2.42-8.23 4.53-1.55 2.16-1.75 3.15-1.86 8.58-.1 4.4-.03 4.91.57 5.15.12.05 5.18.1 11.22.12l10.97.02.34-.33c.3-.33.32-.45.32-5 0-4.48-.01-4.69-.37-5.78-1.33-4.13-5.73-7.12-10.74-7.3-.97-.04-1.96-.03-2.22 0Zm4.43 2.9c2.34.7 4.46 2.15 5.42 3.68.83 1.35.95 2.09.95 5.87v3.41h-18.4v-2.7c.02-4.67.33-5.89 1.86-7.55a9.55 9.55 0 0 1 4.13-2.53c1.3-.45 1.64-.5 3.2-.52 1.33 0 2 .08 2.84.33Zm21.78-2.9a16.38 16.38 0 0 0-5.49 2.05 10.58 10.58 0 0 0-4.25 5.44c-.23.77-.47 9.53-.27 10.1.06.22.26.48.41.58.22.14 3.13.18 11.3.21l11 .02.37-.44.37-.42-.06-4.63c-.06-4.23-.1-4.73-.4-5.67-1.32-4.07-5.78-7.07-10.76-7.26-.97-.03-1.96-.02-2.22.02Zm4.43 2.9c2.85.85 4.95 2.46 5.9 4.51.38.85.4.94.44 4.67l.06 3.78H56.97v-2.31c.03-5.02.3-6.28 1.85-7.94a9.55 9.55 0 0 1 4.13-2.53c1.3-.45 1.64-.5 3.2-.52 1.35 0 2 .08 2.84.33Z"/><path fill="#fff" d="M22.59 21.08c.97.53 1.6 1.3 3.03 3.65 2.14 3.5 1.8 3.17 5.35 5.14a24.99 24.99 0 0 1 3.55 2.23c.9 1.1.24 2.75-1.15 2.9-.65.07-.9-.04-4.45-2.01l-3.75-2.1-.08-.98c-.06-.79-.15-1.05-.45-1.29a1.17 1.17 0 0 0-1.62.1l-.38.37v12.38h-11.2v-6.56c0-3.61-.04-6.68-.09-6.82-.12-.3-.84-.7-1.25-.7-.17 0-.46.14-.66.3l-.37.3L9 32.82c-.07 4.5-.09 4.89-.36 5.18a1.1 1.1 0 0 1-1.57 0c-.27-.31-.29-.6-.29-4.58.02-4.38.08-5.09.72-7.14a13.76 13.76 0 0 1 2.22-4.22 3.1 3.1 0 0 1 1.63-1.1c.87-.28 1.33-.3 5.78-.27 4.67.04 4.84.05 5.47.38Z"/><path fill="#fff" fill-rule="evenodd" d="m37.38 32.24-.17-.5c-.1-.28-.36-.79-.58-1.11l-.4-.6 3.71-5.63a72.71 72.71 0 0 0 3.6-5.76c-.4-.35-1.76-1.27-1.88-1.27-.08 0-1.81 2.54-3.85 5.63l-3.75 5.64a64.6 64.6 0 0 1-4.71-2.72c-.06-.1-.12-5.37-.12-11.73V2.66h42.46v29.58h-34.3Zm27.74-14.16c-.01-6.03 0-11.05.05-11.16.05-.13.46-.2 1.3-.2h1.23v22.4l-2.53-.09-.05-10.95Zm-9.1 6.76-.05 4.19-2.53.1v-8.47h2.61l-.03 4.18Zm-7.63 4.27V15.96h2.45v13.15h-2.45Zm9.96 0V16.74h2.6v12.37h-2.6Z" clip-rule="evenodd"/><path fill="#fff" d="M18.68 5.12c.9.42 1.8 1.33 2.27 2.31.52 1.1.52 2.82 0 3.92a5 5 0 0 1-2.24 2.28c-1.01.5-2.71.53-3.75.03a5.15 5.15 0 0 1-2.3-2.33 5.3 5.3 0 0 1-.03-3.85 5.16 5.16 0 0 1 2.51-2.46 4.94 4.94 0 0 1 3.54.1ZM16.57 64.5c2.34.7 4.46 2.15 5.42 3.68.83 1.35.95 2.09.95 5.87v3.41H4.54V74.6c.02-4.6.31-5.79 1.9-7.43a9.81 9.81 0 0 1 4.09-2.5c1.3-.44 1.64-.5 3.2-.5 1.33 0 2 .07 2.84.32Zm26.21 0c2.34.7 4.46 2.15 5.42 3.68.83 1.35.95 2.09.95 5.87v3.41h-18.4v-2.7c.02-4.67.33-5.89 1.86-7.55a9.55 9.55 0 0 1 4.13-2.53c1.3-.45 1.64-.5 3.2-.52 1.33 0 2 .08 2.84.33Zm26.21 0c2.85.85 4.95 2.46 5.9 4.51.38.85.4.94.44 4.67l.06 3.78H56.97v-2.31c.03-5.02.3-6.28 1.85-7.94a9.55 9.55 0 0 1 4.13-2.53c1.3-.45 1.64-.5 3.2-.52 1.35 0 2 .08 2.84.33ZM68 49.25a4 4 0 0 1 2.14 3.5c.06 3.09-3.2 5.14-5.83 3.65a4.24 4.24 0 0 1-2.08-4.02 4.07 4.07 0 0 1 3.22-3.54 3.67 3.67 0 0 1 2.54.4ZM41.29 49c1.29.4 2.42 1.9 2.6 3.4.37 3.2-3.05 5.57-5.79 4a4.08 4.08 0 0 1-1.47-5.71c.96-1.63 2.73-2.27 4.66-1.7Zm-26.06.08a4.17 4.17 0 0 1 2.36 4.7 4.52 4.52 0 0 1-1.99 2.62 3.94 3.94 0 0 1-5.61-2.24c-1.1-3.28 2.1-6.38 5.24-5.08Z"/></g><defs><clipPath id="a"><path fill="#fff" d="M0 0h80v80H0z"/></clipPath></defs></svg>