<svg xmlns="http://www.w3.org/2000/svg" viewBox="0 0 24 24" fill="none"><g clip-path="url(#a)"><path fill="#FF0302" d="M23.52 6.19a3.02 3.02 0 0 0-2.12-2.14c-1.88-.5-9.38-.5-9.38-.5s-7.5 0-9.37.5A3.02 3.02 0 0 0 .53 6.19C.03 8.07.03 12 .03 12s0 3.93.5 5.81a3.02 3.02 0 0 0 2.12 2.14c1.87.5 9.37.5 9.37.5s7.5 0 9.38-.5a3.02 3.02 0 0 0 2.12-2.14c.5-1.88.5-5.81.5-5.81s0-3.93-.5-5.81Z"/><path fill="#FEFEFE" d="M9.57 15.57V8.43L15.84 12l-6.27 3.57Z"/></g><defs><clipPath id="a"><path fill="#fff" d="M0 0h24v24H0z"/></clipPath></defs></svg>