<svg xmlns="http://www.w3.org/2000/svg" width="115" height="40"><defs><mask id="a" width="45.34" height="40.01" x="-.02" y="0" maskUnits="userSpaceOnUse"><path fill="#fff" stroke-width="0" d="M-.02 40h22.74V0H-.02v40.01Z"/></mask></defs><g mask="url(#a)"><path fill="#fff" d="M43.51 24.56c-.92-.4-.51-1.1-.32-1.92l.04-.13 1.68-6.37-5.06 1.06c-.85.17-1.53.29-1.95-.6l-1.3-2.95-4.9 5.21c-1.3 1.46-2.56.84-2.09-1.33l2.24-10.97-3.43 1.69c-.81.39-1.21.46-1.68-.37L22.71 0l-4.03 8.16.06-.16c-.36.7-.98.6-1.58.24L13.4 6.07l2.42 11.92c.42 1.52-.85 2.23-1.75 1.16l-5.08-5.7-1.43 2.91c-.35.8-.74 1.12-2.18.8l-5.15-1.1 2 6.47c.31.96.28 1.43-.28 1.86L0 25.57l22.64 14.42-15.3-18.07 14.25 11.54 1.08-21.76 1.03 21.77 14.26-11.54-15.31 18.08.12-.07L44.8 25.91l.52-.44-1.81-.89Z"/></g><path fill="#fff" d="m49.7 26.18-.4-6.23c-.05-.15-.3-.15-.3 0-.03 1.35-2.41.22-3.25.03a9.85 9.85 0 0 0-12.3 9.1c0 6.33 4.2 9.77 9.6 9.77 4.3 0 6.47-2.74 7.18-5.71.09-.37-.33-.29-.42 0-1.3 4.14-4.53 5.18-6.12 5.16-3.48-.05-6.71-2.84-6.83-9.22-.15-8.13 9.06-13.45 12.55-2.99.07.22.25.27.3.1Z"/><path fill="#fff" d="M54.4 38.27c1.57.2 2.98-1.22 2.98-2.62v-3.39c-6.73 2.47-4.63 5.91-2.98 6.01Zm-1.81-11.09c1.9-.8 7.05-.55 7.05 1.79v7.2c0 1.97 1.95 2.64 2.5 1.32.17-.18.48-.05.33.25-.35 1.4-3.8 1.62-5-.25-6.63 4.81-10.85-4.66-2.93-4.81 2.48-.37 2.75-1.8 2.75-2.79 0-2.47-1.3-2.69-2.08-2.69-.83 0-1.5.25-1.95 1.52-.7 2.54-4.53.27-.67-1.54Z"/><path fill="#fff" d="m66.07 26.93-3.22.42c-.2.05-.2.15.17.25.7.03 1.15.5 1.15 1.52v7.5c0 .9-1.26 1.68-1.52 1.79-.6.25.3.2.3.2h5.28c.17 0 .72.05.03-.27-.8-.3-1.68-.95-1.68-1.72v-5.63c0-2.37 1.55-3.66 3.08-3.66 1.6 0 2.92.35 2.92 3.64v5.66c0 .82-1.07 1.57-1.65 1.77-.37.1-.53.22-.2.22h5.63c.3.03.43-.08.15-.15-1.35-.52-1.53-1.52-1.53-1.85v-6.58c0-3.76-3.63-3.26-4.9-3.26-1.6.02-3.3 1.02-3.48 1.47-.05-1.22-.2-1.35-.53-1.32Zm28.84 11.34c1.99 0 3.32-.77 3.32-5.41s-1.33-5.48-3.32-5.48-3.61 2.57-3.61 5.53 1.62 5.36 3.61 5.36Zm3.25-.57c-.55.95-1.9 1.17-3.58 1.17a5.7 5.7 0 0 1-5.78-5.78c0-2.97 1.68-6.31 5.95-6.31 3.85 0 3.82 2.57 3.82.42v-3.76c0-1.94-.78-2.52-1.37-2.69-.88-.3-2-.35-.2-.35l3.35-.07c.19 0 .22.05.22.35v14.71c0 1.02.38 2.59 2.03 3.04.15.02.33.12.15.17l-3.65.4c-.53.05-.75-.2-.98-1.22"/><path fill="#fff" d="M80.8 38.26c1.57.2 2.98-1.22 2.98-2.62v-3.39c-6.73 2.47-4.63 5.91-2.98 6.01Zm-1.7-11.09c1.9-.8 7.05-.55 7.05 1.79v7.2c0 1.97 1.95 2.64 2.5 1.32.18-.17.47-.05.32.25-.35 1.4-3.8 1.62-5-.25-6.62 4.81-10.85-4.66-2.93-4.81 2.48-.37 2.75-1.79 2.75-2.79 0-2.47-1.3-2.69-2.08-2.69-.83 0-1.5.25-1.95 1.52-.7 2.54-4.53.27-.68-1.55Zm27.68 11.12c1.58.2 2.98-1.22 2.98-2.62v-3.39c-6.73 2.47-4.63 5.91-2.98 6.01Zm-1.7-11.09c1.9-.8 7.05-.55 7.05 1.8v7.2c0 1.97 1.95 2.64 2.5 1.32.18-.17.47-.05.32.25-.35 1.4-3.8 1.62-5-.25-6.63 4.81-10.85-4.66-2.92-4.81 2.47-.37 2.75-1.79 2.75-2.79 0-2.47-1.3-2.69-2.08-2.69-.82 0-1.5.25-1.95 1.52-.7 2.54-4.53.27-.68-1.55Zm-2.92-1.29v-5.58h2.75v5.58h-2.75Zm8.85 0v-5.58h2.75v5.58h-2.75Zm-3.43-4.42.39-.8.39.77c.05.08.09.07.16.04l.34-.17-.22 1.07c-.05.21.08.27.2.13l.48-.51.13.29c.04.09.11.07.19.06l.49-.1-.16.62c-.02.09-.06.16.03.2l.18.09-1.02.86c-.11.11-.07.14-.03.26l.09.29-.95-.17c-.12-.03-.2-.03-.2.07l.04 1.09h-.29l.04-1.08c0-.11-.08-.1-.27-.06l-.88.17.11-.29c.04-.11.05-.18-.04-.26l-1.04-.84.19-.12c.05-.04.06-.09.03-.18l-.2-.63.5.11c.14.03.18 0 .21-.08l.14-.28.5.56c.09.1.21.03.17-.11l-.24-1.16.37.21c.06.04.12.04.16-.02m-55.6-7.56h-.42V9.52h.42v4.44Zm2.68-3.22c.45 0 .77.12.98.37.2.24.31.61.31 1.09v1.77h-.42V12.1c0-.62-.28-.92-.85-.92-.27 0-.51.09-.73.26a.85.85 0 0 0-.33.69v1.85h-.42v-3.17h.42v.49c.09-.14.23-.27.43-.38.2-.11.4-.16.62-.16Zm5.81 2.22c.18.18.39.26.64.26s.46-.09.64-.26c.18-.18.26-.39.26-.63s-.09-.46-.26-.63c-.18-.18-.39-.26-.64-.26s-.46.09-.64.26c-.18.18-.26.39-.26.63s.09.46.26.63Zm.74-2.38c.45 0 .84.17 1.16.51.32.34.48.75.48 1.23s-.16.89-.48 1.23c-.32.34-.71.51-1.16.51-.41 0-.74-.15-1.01-.46v2.04h-.85v-4.96h.85v.35c.26-.3.6-.46 1.01-.46Zm3.43 2.38c.18.18.39.26.64.26s.46-.09.64-.26c.18-.18.26-.39.26-.63s-.09-.46-.26-.63c-.18-.18-.39-.26-.64-.26s-.46.09-.64.26a.86.86 0 0 0 0 1.26Zm1.54-2.27h.85v3.27h-.85v-.35c-.26.3-.6.46-1.01.46-.46 0-.84-.17-1.16-.51-.32-.34-.48-.75-.48-1.23s.16-.89.48-1.23c.32-.34.71-.51 1.16-.51.41 0 .74.15 1.01.46v-.35Zm2.74.69c.11-.24.28-.43.53-.56.25-.13.53-.21.85-.23v1a1.16 1.16 0 0 0-.64 0 1 1 0 0 0-.52.35.98.98 0 0 0-.22.66v1.37h-.85V10.7h.85v.69Zm2.53 1.65v-1.6h-.42v-.74h.42V9.53h.85v1.16h.64v.74h-.64v1.37c0 .23.05.38.16.44s.27.05.47-.01v.74c-.18.07-.38.11-.62.11-.29 0-.51-.09-.65-.28a1.25 1.25 0 0 1-.21-.76Zm4.32-2.45c.38 0 .69.13.9.38.22.25.33.62.33 1.1v1.9h-.85v-1.8c0-.26-.05-.44-.15-.56-.1-.12-.26-.18-.48-.18s-.39.07-.53.21c-.14.14-.21.35-.21.63v1.69h-.85v-3.27h.85V11c.24-.28.57-.42.99-.42Zm2.91 1.37h1.48c0-.16-.07-.3-.2-.44a.74.74 0 0 0-.55-.2c-.2 0-.37.07-.52.21-.15.14-.22.28-.22.43Zm2.38.37-.01.26h-2.39c.06.22.18.4.34.54.16.13.38.2.63.2.37 0 .69-.1.98-.3l.24.73-.15.09c-.06.04-.2.08-.42.14-.21.06-.44.09-.67.09-.61 0-1.07-.16-1.38-.49-.31-.33-.46-.74-.46-1.25s.15-.93.44-1.25c.29-.33.71-.49 1.26-.49.51 0 .9.15 1.18.46.27.31.41.73.41 1.28Zm1.64-.94c.11-.24.28-.43.53-.56.25-.13.53-.21.85-.23v1a1.16 1.16 0 0 0-.64 0 1 1 0 0 0-.52.35.98.98 0 0 0-.22.66v1.37h-.85V10.7h.85v.69Zm3.7.5c.51.08.85.21 1.04.39.19.18.28.39.28.64 0 .34-.13.62-.39.84-.26.22-.61.32-1.06.32a2.52 2.52 0 0 1-1.52-.48l.28-.79a1.9 1.9 0 0 0 1.17.47c.45 0 .68-.09.68-.28 0-.07-.04-.12-.12-.16a2.03 2.03 0 0 0-.46-.11c-.3-.05-.54-.11-.74-.18-.2-.07-.34-.16-.44-.26a.82.82 0 0 1-.2-.31 1.1 1.1 0 0 1-.05-.38c0-.27.13-.51.4-.71.27-.2.61-.3 1.03-.3.44 0 .87.11 1.28.32l-.24.77a1.24 1.24 0 0 0-.44-.18c-.2-.06-.4-.09-.6-.09-.39 0-.59.06-.59.2 0 .11.13.19.4.24l.19.03.11.02Zm3.99-1.3c.38 0 .69.13.9.38.22.25.33.62.33 1.1v1.9h-.85v-1.8c0-.26-.05-.44-.15-.56-.1-.12-.26-.18-.48-.18s-.39.07-.53.21c-.14.14-.21.35-.21.63v1.69h-.85V9.3h.85v1.69c.24-.28.57-.42.99-.42Zm2.17 3.38v-3.27h.85v3.27h-.85Zm.84-3.87c-.11.11-.25.17-.41.17s-.3-.06-.41-.17c-.11-.11-.17-.25-.17-.41s.06-.3.17-.41c.11-.11.25-.17.41-.17s.3.06.41.17c.11.11.17.25.17.41s-.06.3-.17.41Zm2.17 2.87c.18.18.39.26.64.26s.46-.09.64-.26c.18-.18.26-.39.26-.63s-.09-.46-.26-.63c-.18-.18-.39-.26-.64-.26s-.46.09-.64.26c-.18.18-.26.39-.26.63s.09.46.26.63Zm.74-2.38c.45 0 .84.17 1.16.51.32.34.48.75.48 1.23s-.16.89-.48 1.23c-.32.34-.71.51-1.16.51-.41 0-.74-.15-1.01-.46v2.04h-.85v-4.96h.85v.35c.26-.3.6-.46 1.01-.46Zm8.88.21h.48l-1.42 3.26-.96-2.35-.96 2.35-1.42-3.26h.48l.95 2.23.95-2.34.95 2.34.95-2.23Zm1.25 3.17v-3.17h.42v3.17h-.42Zm.47-3.81a.36.36 0 0 1-.52 0 .36.36 0 0 1 0-.52.36.36 0 0 1 .52 0 .36.36 0 0 1 0 .52Zm1.37 2.77v-1.71h-.42v-.42h.42V9.52h.42v1.27h.64v.42h-.64v1.74c0 .3.04.49.13.55.15.11.32.11.51.01v.43c-.12.04-.24.07-.36.07a.6.6 0 0 1-.45-.16.62.62 0 0 1-.2-.37 2.92 2.92 0 0 1-.04-.56Zm3.63-2.18c.45 0 .77.12.98.37.2.24.31.61.31 1.09v1.77h-.42V12.1c0-.62-.28-.92-.85-.92-.27 0-.51.09-.73.26a.85.85 0 0 0-.33.69v1.85h-.42V9.33h.42v1.97c.09-.14.23-.27.43-.38.2-.11.4-.16.62-.16Z"/></svg>