<svg xmlns="http://www.w3.org/2000/svg" width="86" height="48" xmlns:xlink="http://www.w3.org/1999/xlink" viewBox="0 0 86 48"><defs><mask id="b" x="0" y="9.99" width="33.9" height="30.01" maskUnits="userSpaceOnUse"><g id="c"><path d="m0,40h17V9.99H0v30.01Z" fill="#fff" stroke-width="0"/></g></mask></defs><g mask="url(#b)"><path d="m16.95,40l.09-.06,16.47-10.52.39-.33-1.35-.67c-.69-.3-.39-.82-.24-1.44l.03-.1,1.25-4.78-3.78.8c-.64.12-1.14.22-1.46-.45l-.97-2.21-3.66,3.91c-.97,1.1-1.91.63-1.57-1l1.67-8.23-2.56,1.27c-.61.29-.9.34-1.26-.28l-3-5.9-3.01,6.12.04-.12c-.27.52-.73.45-1.18.18l-2.81-1.63,1.81,8.94c.32,1.14-.63,1.67-1.31.87l-3.8-4.28-1.07,2.19c-.26.6-.56.84-1.63.6l-3.85-.83,1.5,4.85c.23.72.21,1.07-.21,1.39L.02,29.18l16.93,10.82Z" fill="#ea2029" stroke-width="0"/><path d="m28.4,26.43l-10.66,8.66-.77-16.33-.81,16.32-10.65-8.65,11.44,13.56,11.45-13.56Z" fill="#a31b25" stroke-width="0"/></g><path d="m37.17,29.64l-.3-4.67c-.04-.11-.22-.11-.22,0-.02,1.01-1.8.16-2.43.02-5.5-1.25-9.2,3.16-9.2,6.82,0,4.75,3.14,7.33,7.18,7.33,3.21,0,4.84-2.06,5.36-4.28.07-.28-.25-.22-.32,0-.97,3.1-3.39,3.89-4.58,3.87-2.6-.04-5.02-2.13-5.11-6.92-.11-6.1,6.77-10.08,9.39-2.24.05.17.19.21.22.07Z" fill="#211d1d" stroke-width="0"/><path d="m40.69,38.7c1.18.15,2.22-.92,2.22-1.96v-2.54c-5.03,1.85-3.46,4.43-2.22,4.51Zm-1.35-8.32c1.42-.6,5.27-.41,5.27,1.35v5.4c0,1.48,1.46,1.98,1.87.99.13-.13.36-.04.24.19-.26,1.05-2.84,1.22-3.74-.19-4.95,3.61-8.12-3.5-2.19-3.61,1.85-.28,2.06-1.35,2.06-2.09,0-1.85-.97-2.02-1.55-2.02-.62,0-1.12.19-1.46,1.14-.52,1.91-3.38.21-.5-1.16Z" fill="#211d1d" stroke-width="0"/><path d="m49.42,30.2l-2.41.32c-.15.04-.15.11.13.19.52.02.86.37.86,1.14v5.63c0,.67-.94,1.26-1.14,1.35-.45.19.22.15.22.15h3.94c.13,0,.54.04.02-.21-.6-.23-1.25-.71-1.25-1.29v-4.23c0-1.78,1.16-2.75,2.3-2.75,1.2,0,2.19.26,2.19,2.73v4.24c0,.62-.8,1.18-1.23,1.33-.28.07-.39.17-.15.17h4.21c.23.02.32-.06.11-.11-1.01-.39-1.14-1.14-1.14-1.38v-4.94c0-2.82-2.71-2.45-3.66-2.45-1.2.02-2.47.77-2.6,1.1-.04-.92-.15-1.01-.39-.99Z" fill="#211d1d" stroke-width="0"/><path d="m70.98,38.7c1.49,0,2.49-.58,2.49-4.06s-1-4.11-2.49-4.11-2.7,1.93-2.7,4.15,1.21,4.02,2.7,4.02Zm2.43-.43c-.41.71-1.42.88-2.67.88-2.37,0-4.32-1.83-4.32-4.34,0-2.22,1.25-4.73,4.45-4.73,2.88,0,2.86,1.93,2.86.32v-2.82c0-1.46-.58-1.89-1.03-2.02-.66-.22-1.5-.26-.15-.26l2.51-.06c.14,0,.17.04.17.26v11.03c0,.77.28,1.94,1.51,2.28.11.02.24.09.11.13l-2.73.3c-.39.04-.56-.15-.73-.92" fill="#211d1d" stroke-width="0"/><path d="m60.43,38.69c1.18.15,2.22-.92,2.22-1.96v-2.54c-5.03,1.85-3.46,4.43-2.22,4.51Zm-1.27-8.32c1.42-.6,5.27-.41,5.27,1.35v5.4c0,1.48,1.46,1.98,1.87.99.13-.13.35-.04.24.19-.26,1.05-2.84,1.22-3.74-.19-4.95,3.61-8.11-3.5-2.19-3.61,1.85-.28,2.06-1.35,2.06-2.09,0-1.85-.97-2.02-1.55-2.02-.62,0-1.12.19-1.46,1.14-.52,1.91-3.38.21-.51-1.16Z" fill="#211d1d" stroke-width="0"/><path d="m79.86,38.71c1.18.15,2.22-.92,2.22-1.96v-2.54c-5.03,1.85-3.46,4.43-2.22,4.51Zm-1.27-8.32c1.42-.6,5.27-.41,5.27,1.35v5.4c0,1.48,1.46,1.98,1.87.99.13-.13.36-.04.24.19-.26,1.05-2.84,1.22-3.74-.19-4.96,3.61-8.11-3.5-2.19-3.61,1.85-.28,2.05-1.35,2.05-2.1,0-1.85-.97-2.02-1.55-2.02-.62,0-1.12.19-1.46,1.14-.52,1.91-3.38.21-.51-1.16Z" fill="#211d1d" stroke-width="0"/><path d="m76.4,25.24h2.06v4.19h-2.06v-4.19Z" fill="#ea1e29" stroke-width="0"/><path d="m83.02,25.24h2.06v4.19h-2.06v-4.19Z" fill="#ea1e29" stroke-width="0"/><path d="m80.45,26.11l.29-.6.29.58c.03.06.06.06.12.03l.25-.12-.16.8c-.03.16.06.2.15.1l.36-.38.09.22c.03.06.08.06.14.04l.37-.08-.12.47h0c-.01.07-.04.12.02.15l.13.07-.76.64c-.08.08-.05.11-.02.19l.07.22-.71-.13c-.09-.02-.15-.02-.15.05l.03.81h-.21l.03-.81c0-.08-.06-.08-.2-.05l-.66.13.09-.22c.03-.08.04-.14-.03-.19l-.78-.63.14-.09s.04-.07.02-.14l-.15-.47.38.08c.11.02.13,0,.16-.06l.1-.21.37.42c.07.08.16.03.13-.09l-.18-.87.27.16s.09.03.12-.02" fill="#ea1e29" stroke-width="0"/><path d="m38.56,17.14h.32v3.33h-.32v-3.33Z" fill="#201c1c" stroke-width="0"/><path d="m40.87,18.05c.33,0,.58.09.73.28.15.18.23.45.23.81v1.33h-.32v-1.41c0-.46-.21-.69-.63-.69-.2,0-.38.07-.55.2-.17.13-.25.3-.25.51v1.39h-.32v-2.38h.32v.37c.07-.11.17-.2.32-.28.15-.08.3-.12.46-.12Z" fill="#201c1c" stroke-width="0"/><path d="m45.22,19.72c.13.13.29.2.48.2s.34-.07.48-.2c.13-.13.2-.29.2-.48s-.07-.34-.2-.48c-.13-.13-.29-.2-.48-.2s-.34.07-.48.2c-.13.13-.2.29-.2.48s.07.34.2.48Zm.55-1.78c.34,0,.63.13.87.38.24.26.36.56.36.92s-.12.67-.36.92c-.24.26-.53.38-.87.38-.3,0-.55-.11-.75-.34v1.53h-.63v-3.72h.63v.26c.2-.23.45-.34.75-.34Z" fill="#201c1c" stroke-width="0"/><path d="m48.34,19.72c.13.13.29.2.48.2s.34-.07.48-.2c.13-.13.2-.29.2-.48s-.07-.34-.2-.48c-.13-.13-.29-.2-.48-.2s-.34.07-.48.2c-.13.13-.2.29-.2.48s.07.34.2.48Zm1.15-1.7h.63v2.46h-.63v-.26c-.2.23-.45.34-.75.34-.34,0-.63-.13-.87-.38-.24-.26-.36-.56-.36-.92s.12-.67.36-.92c.24-.26.53-.38.87-.38.3,0,.55.11.75.34v-.26Z" fill="#201c1c" stroke-width="0"/><path d="m51.54,18.53c.08-.18.21-.32.4-.42.18-.1.4-.16.63-.18v.75c-.17-.04-.32-.04-.47,0-.15.04-.28.13-.39.26-.11.13-.16.3-.16.5v1.03h-.63v-2.46h.63v.52Z" fill="#201c1c" stroke-width="0"/><path d="m53.43,19.77v-1.2h-.32v-.55h.32v-.87h.63v.87h.48v.55h-.48v1.03c0,.17.04.28.12.33.08.04.2.04.35-.01v.56c-.13.05-.29.08-.47.08-.22,0-.38-.07-.49-.21-.11-.14-.16-.33-.16-.57Z" fill="#201c1c" stroke-width="0"/><path d="m56.66,17.93c.29,0,.51.09.68.28.16.19.25.46.25.83v1.43h-.63v-1.35c0-.19-.04-.33-.11-.42-.08-.09-.2-.13-.36-.13s-.29.05-.4.16c-.11.11-.16.26-.16.48v1.27h-.63v-2.46h.63v.24c.18-.21.43-.32.74-.32Z" fill="#201c1c" stroke-width="0"/><path d="m58.84,18.96h1.11c0-.12-.05-.23-.15-.33-.1-.1-.23-.15-.41-.15-.15,0-.28.05-.39.16-.11.1-.17.21-.17.32Zm1.78.28s0,.11,0,.2h-1.79c.05.17.13.3.26.4.12.1.28.15.47.15.27,0,.52-.08.73-.23l.18.55s-.06.04-.11.06c-.05.03-.15.06-.31.1-.16.04-.33.06-.5.06-.46,0-.8-.12-1.03-.37-.23-.24-.35-.56-.35-.94s.11-.7.33-.94c.22-.24.53-.37.94-.37.38,0,.68.11.88.34.2.23.31.55.31.96Z" fill="#201c1c" stroke-width="0"/><path d="m61.84,18.53c.08-.18.21-.32.4-.42.18-.1.4-.16.63-.18v.75c-.17-.04-.32-.04-.47,0-.15.04-.28.13-.39.26-.11.13-.16.3-.16.5v1.03h-.63v-2.46h.63v.52Z" fill="#201c1c" stroke-width="0"/><path d="m64.61,18.9c.38.06.64.16.78.29.14.14.21.3.21.48,0,.26-.1.47-.29.63-.19.16-.46.24-.79.24-.26,0-.49-.04-.7-.12-.21-.08-.35-.16-.44-.24l.21-.59c.11.1.24.18.4.24.16.07.32.1.47.1.34,0,.5-.06.5-.21,0-.05-.03-.09-.09-.12-.06-.03-.18-.05-.34-.08-.22-.04-.4-.08-.55-.14-.15-.05-.26-.12-.33-.19-.07-.07-.12-.15-.15-.23-.03-.08-.04-.17-.04-.28,0-.2.1-.38.3-.53.2-.15.46-.22.77-.22.33,0,.65.08.96.24l-.18.57c-.07-.05-.18-.1-.33-.14-.15-.04-.3-.07-.45-.07-.29,0-.44.04-.44.15,0,.08.1.14.3.18.03,0,.08.01.14.02l.08.02Z" fill="#201c1c" stroke-width="0"/><path d="m67.59,17.93c.29,0,.51.09.68.28.16.19.24.46.24.83v1.43h-.63v-1.35c0-.19-.04-.33-.11-.42-.08-.09-.2-.13-.36-.13s-.29.05-.4.16c-.11.11-.16.26-.16.48v1.27h-.63v-3.49h.63v1.27c.18-.21.43-.32.74-.32Z" fill="#201c1c" stroke-width="0"/><path d="m69.22,18.01h.63v2.46h-.63v-2.46Zm.63-.44c-.08.08-.19.13-.31.13s-.23-.04-.31-.13c-.08-.08-.13-.19-.13-.31s.04-.23.13-.31c.08-.08.19-.13.31-.13s.23.04.31.13c.08.08.13.19.13.31s-.04.23-.13.31Z" fill="#201c1c" stroke-width="0"/><path d="m71.46,19.72c.13.13.29.2.48.2s.34-.07.48-.2c.13-.13.2-.29.2-.48s-.07-.34-.2-.48c-.13-.13-.29-.2-.48-.2s-.34.07-.48.2c-.13.13-.2.29-.2.48s.07.34.2.48Zm.55-1.78c.34,0,.63.13.87.38.24.26.36.56.36.92s-.12.67-.36.92-.53.38-.87.38c-.3,0-.55-.11-.75-.34v1.53h-.63v-3.72h.63v.26c.2-.23.45-.34.75-.34Z" fill="#201c1c" stroke-width="0"/><path d="m78.65,18.09h.36l-1.07,2.45-.72-1.76-.72,1.76-1.07-2.45h.36l.71,1.67.71-1.75.71,1.75.71-1.67Z" fill="#201c1c" stroke-width="0"/><path d="m79.6,18.09h.32v2.38h-.32v-2.38Zm.35-.48c-.05.05-.12.08-.2.08s-.14-.03-.2-.08c-.05-.05-.08-.12-.08-.2s.03-.14.08-.2c.05-.05.12-.08.2-.08s.14.03.2.08c.05.05.08.12.08.2s-.03.14-.08.2Z" fill="#201c1c" stroke-width="0"/><path d="m80.97,19.69v-1.28h-.32v-.32h.32v-.95h.32v.95h.48v.32h-.48v1.31c0,.23.03.36.09.41.11.08.24.08.38,0v.32c-.09.03-.18.05-.27.05-.14,0-.25-.04-.33-.12-.08-.08-.13-.17-.15-.28-.02-.11-.03-.25-.03-.42Z" fill="#201c1c" stroke-width="0"/><path d="m83.68,18.05c.33,0,.58.09.73.28.15.18.23.45.23.81v1.33h-.32v-1.41c0-.46-.21-.69-.63-.69-.2,0-.38.07-.54.2-.17.13-.25.3-.25.52v1.39h-.32v-3.49h.32v1.48c.07-.11.17-.2.32-.28.15-.08.3-.12.46-.12Z" fill="#201c1c" stroke-width="0"/></svg>