<svg xmlns="http://www.w3.org/2000/svg" width="237" height="72"><path fill="#091639" d="M0 8.18 5.1 7 12 5.39l7.21-1.71 8.07-1.89L33.79.22c.32-.08.65-.13 1.1-.22v11.39h19.33c.85 0 .82 0 .79.86s0 1.87 0 2.8v41.74c0 1 0 2 .06 3 0 .81 0 .83-.83.83H34.92V72c-.84-.12-1.64-.19-2.41-.37-1.14-.26-2.26-.62-3.4-.9s-2.28-.48-3.41-.76-2.43-.68-3.66-1c-1-.26-2.07-.44-3.1-.68-.8-.19-1.58-.45-2.38-.65-1.11-.27-2.23-.49-3.34-.76s-2.35-.63-3.53-.91c-1.39-.34-2.8-.64-4.19-1-.66-.15-1.31-.36-2-.52-.85-.21-1.7-.42-2.56-.59s-1-.28-1-1.15V8.18Z"/><path fill="#5079bb" d="M30.86 66.93 5.33 60.59h25.53ZM5.05 11.42l25.81-6.29v6.29Z"/><path fill="#388cc8" d="M5.03 16.42h25.89v39.13H5.03z"/><path fill="#dce1ec" d="M34.96 16.42h14.96v39.13H34.96z"/><path fill="#091639" d="M78.88 28.73a5.93 5.93 0 0 1-3.14-.79 5.36 5.36 0 0 1-2-2.25 7.41 7.41 0 0 1-.7-3.32 7.45 7.45 0 0 1 .7-3.33 5.24 5.24 0 0 1 2-2.23 5.85 5.85 0 0 1 3.14-.81 5.66 5.66 0 0 1 3.52 1.06 5.52 5.52 0 0 1 2 2.85l-2.06.56a3.55 3.55 0 0 0-1.22-1.86 3.42 3.42 0 0 0-2.22-.68 3.56 3.56 0 0 0-2 .55A3.37 3.37 0 0 0 75.59 20a6.16 6.16 0 0 0-.41 2.34 6 6 0 0 0 .41 2.34 3.36 3.36 0 0 0 1.24 1.55 3.64 3.64 0 0 0 2 .55 3.48 3.48 0 0 0 2.22-.68 3.62 3.62 0 0 0 1.22-1.87l2.06.57a5.61 5.61 0 0 1-2 2.85 5.72 5.72 0 0 1-3.45 1.08ZM90.3 28.73a4.53 4.53 0 0 1-2.41-.62 4.27 4.27 0 0 1-1.59-1.7 5.36 5.36 0 0 1-.56-2.51 5.34 5.34 0 0 1 .57-2.53 4.19 4.19 0 0 1 1.61-1.7 5 5 0 0 1 4.79 0 4.23 4.23 0 0 1 1.59 1.71 5.34 5.34 0 0 1 .57 2.51 5.26 5.26 0 0 1-.58 2.52 4.27 4.27 0 0 1-1.59 1.7 4.61 4.61 0 0 1-2.4.62Zm0-1.91a2.1 2.1 0 0 0 1.81-.82 3.44 3.44 0 0 0 .6-2.1 3.39 3.39 0 0 0-.61-2.13 2.12 2.12 0 0 0-1.8-.8 2.3 2.3 0 0 0-1.36.38 2.11 2.11 0 0 0-.78 1 4.13 4.13 0 0 0-.26 1.52 3.49 3.49 0 0 0 .6 2.13 2.16 2.16 0 0 0 1.8.82ZM107.75 28.48v-5.57a2.14 2.14 0 0 0-.46-1.47 1.79 1.79 0 0 0-2.15-.3 1.47 1.47 0 0 0-.62.66 2.21 2.21 0 0 0-.23 1l-.91-.53a3.17 3.17 0 0 1 .43-1.67 3.08 3.08 0 0 1 1.19-1.11 3.47 3.47 0 0 1 1.67-.41A3 3 0 0 1 109 20a3.44 3.44 0 0 1 .81 2.39v6.09Zm-11 0v-9.17h1.81v2.84h.26v6.33Zm5.53 0v-5.54a2.22 2.22 0 0 0-.46-1.5 1.64 1.64 0 0 0-1.28-.53 1.59 1.59 0 0 0-1.25.53 2 2 0 0 0-.47 1.39l-.92-.61a3 3 0 0 1 .44-1.6 3.12 3.12 0 0 1 1.16-1.12 3.42 3.42 0 0 1 1.69-.42 3.16 3.16 0 0 1 1.72.44 2.71 2.71 0 0 1 1 1.19 4 4 0 0 1 .35 1.69v6.08ZM123 28.48v-5.57a2.14 2.14 0 0 0-.47-1.47 1.61 1.61 0 0 0-1.27-.53 1.65 1.65 0 0 0-.88.23 1.47 1.47 0 0 0-.62.66 2.21 2.21 0 0 0-.23 1l-.91-.53a3.17 3.17 0 0 1 .43-1.67 3 3 0 0 1 1.19-1.14 3.4 3.4 0 0 1 1.66-.41 3 3 0 0 1 2.33.92 3.44 3.44 0 0 1 .81 2.39v6.09Zm-11 0v-9.17h1.81v2.84h.25v6.33Zm5.52 0v-5.54a2.22 2.22 0 0 0-.46-1.5 1.63 1.63 0 0 0-1.28-.53 1.59 1.59 0 0 0-1.25.53 2.05 2.05 0 0 0-.47 1.39l-.92-.61a3 3 0 0 1 .44-1.6 3.2 3.2 0 0 1 1.19-1.12 3.44 3.44 0 0 1 1.69-.42 3.16 3.16 0 0 1 1.72.44 2.65 2.65 0 0 1 1 1.19 3.84 3.84 0 0 1 .35 1.69v6.08ZM130.73 28.74a3.69 3.69 0 0 1-1.73-.34 2.9 2.9 0 0 1-1-.86 4 4 0 0 1-.58-1.12 6.46 6.46 0 0 1-.24-1.12 7.82 7.82 0 0 1 0-.87v-5.12h2.07v4.42a8.49 8.49 0 0 0 .06.95 3.49 3.49 0 0 0 .27 1 2 2 0 0 0 .64.8 2 2 0 0 0 1.17.32 2.54 2.54 0 0 0 .77-.13 1.94 1.94 0 0 0 .69-.43 2.3 2.3 0 0 0 .5-.86 4.41 4.41 0 0 0 .19-1.38l1.21.52a4.75 4.75 0 0 1-.46 2.12 3.56 3.56 0 0 1-1.33 1.52 3.92 3.92 0 0 1-2.23.58Zm3-.26v-2.84h-.24v-6.33h2.05v9.17ZM144.26 28.48v-4.41a8.51 8.51 0 0 0-.06-1 3.44 3.44 0 0 0-.28-1 1.82 1.82 0 0 0-1.8-1.13 2.54 2.54 0 0 0-.77.13 1.8 1.8 0 0 0-.7.44 2.24 2.24 0 0 0-.49.85 4.14 4.14 0 0 0-.19 1.38l-1.21-.52a4.88 4.88 0 0 1 .45-2.12 3.5 3.5 0 0 1 1.34-1.51 3.92 3.92 0 0 1 2.17-.57 3.61 3.61 0 0 1 1.68.34 2.9 2.9 0 0 1 1 .86 3.53 3.53 0 0 1 .58 1.12 5.09 5.09 0 0 1 .24 1.13 7.93 7.93 0 0 1 .06.86v5.12Zm-6.36 0v-9.17h1.82v2.84h.28v6.33ZM148.71 17.92V16h2v1.88Zm0 10.56v-9.17h2v9.17ZM158.68 28.48a8.41 8.41 0 0 1-1.79.14 4 4 0 0 1-1.55-.31 2.07 2.07 0 0 1-1-1 2.72 2.72 0 0 1-.33-1.21v-9.4h2v8.82a1.57 1.57 0 0 0 .18.68 1.2 1.2 0 0 0 1 .57 6.29 6.29 0 0 0 1.53-.07Zm-6.4-7.56v-1.61h6.4v1.61ZM161.61 32.55l1.76-4.84v1.42l-4-9.82h2.13l2.83 7.27h-.54l2.76-7.27h2l-5.12 13.24ZM173.3 28.48V16.25h5.46a4 4 0 0 1 .52.05 3.7 3.7 0 0 1 1.75.71 3.26 3.26 0 0 1 1 1.37 5.12 5.12 0 0 1 0 3.67 3.43 3.43 0 0 1-1 1.37 3.7 3.7 0 0 1-1.74.7l-.53.05h-3.45v4.27Zm2-6.18h3.3a1.59 1.59 0 0 0 .39-.07 1.47 1.47 0 0 0 .8-.45 1.61 1.61 0 0 0 .41-.73 2.47 2.47 0 0 0 .13-.79 2.53 2.53 0 0 0-.13-.8 1.64 1.64 0 0 0-.41-.74 1.47 1.47 0 0 0-.8-.45 2.28 2.28 0 0 0-.39-.06h-3.3ZM188.05 28.73a4.53 4.53 0 0 1-2.41-.62 4.27 4.27 0 0 1-1.59-1.7 5.36 5.36 0 0 1-.56-2.51 5.22 5.22 0 0 1 .58-2.53 4.1 4.1 0 0 1 1.6-1.7 5 5 0 0 1 4.79 0 4.17 4.17 0 0 1 1.59 1.71 5.83 5.83 0 0 1 0 5 4.3 4.3 0 0 1-1.6 1.7 4.61 4.61 0 0 1-2.4.65Zm0-1.91a2.1 2.1 0 0 0 1.81-.82 3.44 3.44 0 0 0 .6-2.1 3.45 3.45 0 0 0-.6-2.13 2.15 2.15 0 0 0-1.81-.8 2.32 2.32 0 0 0-1.36.38 2.11 2.11 0 0 0-.78 1 4.13 4.13 0 0 0-.26 1.52 3.43 3.43 0 0 0 .61 2.13 2.13 2.13 0 0 0 1.79.82ZM194.66 28.48V16h2.05v12.48ZM199.42 17.92V16h2.05v1.88Zm0 10.56v-9.17h2.05v9.17ZM208 28.73a4.56 4.56 0 0 1-2.42-.62 4.23 4.23 0 0 1-1.58-1.74 5.78 5.78 0 0 1-.54-2.47 5.68 5.68 0 0 1 .55-2.5 4.21 4.21 0 0 1 1.57-1.72 4.51 4.51 0 0 1 2.4-.62 4.33 4.33 0 0 1 2.64.79 3.6 3.6 0 0 1 1.46 2.15l-2 .55a2.19 2.19 0 0 0-.79-1.15A2 2 0 0 0 208 21a2.1 2.1 0 0 0-1.31.39 2.18 2.18 0 0 0-.77 1 4.39 4.39 0 0 0-.24 1.51 3.51 3.51 0 0 0 .58 2.11 2.31 2.31 0 0 0 3 .43 2.3 2.3 0 0 0 .71-1.08l2.09.47a4 4 0 0 1-1.47 2.17 4.38 4.38 0 0 1-2.59.73ZM213.7 17.92V16h2.05v1.88Zm0 10.56v-9.17h2.05v9.17ZM224.63 28.48v-4.41a8.51 8.51 0 0 0-.06-1 3.16 3.16 0 0 0-.28-1 2 2 0 0 0-.64-.81 1.92 1.92 0 0 0-1.16-.32 2.54 2.54 0 0 0-.77.13 1.8 1.8 0 0 0-.7.44 2.24 2.24 0 0 0-.49.85 4.41 4.41 0 0 0-.19 1.38l-1.21-.52a4.88 4.88 0 0 1 .45-2.12 3.5 3.5 0 0 1 1.34-1.51 3.92 3.92 0 0 1 2.17-.57 3.61 3.61 0 0 1 1.68.34 2.85 2.85 0 0 1 1.06.86 4 4 0 0 1 .58 1.12 5.67 5.67 0 0 1 .23 1.13 7.93 7.93 0 0 1 .06.86v5.12Zm-6.36 0v-9.17h1.83v2.84h.24v6.33ZM232.77 32.81a4.53 4.53 0 0 1-1.47-.24 4.12 4.12 0 0 1-1.25-.69 3.51 3.51 0 0 1-.92-1.07l1.88-.93a1.76 1.76 0 0 0 .74.74 2.32 2.32 0 0 0 1 .24 2.76 2.76 0 0 0 1.14-.22 1.68 1.68 0 0 0 .77-.67 1.77 1.77 0 0 0 .26-1.08v-2.61h.26v-7H237v10.27a4.14 4.14 0 0 1-.1.63 2.8 2.8 0 0 1-.78 1.46 3.49 3.49 0 0 1-1.43.86 6 6 0 0 1-1.92.31Zm-.18-4.08a3.84 3.84 0 0 1-2.2-.63 4.19 4.19 0 0 1-1.46-1.73 6.15 6.15 0 0 1 0-4.95 4.17 4.17 0 0 1 1.48-1.73 4 4 0 0 1 2.26-.63 3.68 3.68 0 0 1 2.19.63 3.84 3.84 0 0 1 1.35 1.73 6.89 6.89 0 0 1 0 4.95 3.68 3.68 0 0 1-3.62 2.36Zm.32-1.83a2.13 2.13 0 0 0 1.32-.37 2.15 2.15 0 0 0 .74-1.06 5.29 5.29 0 0 0 0-3.15 2.11 2.11 0 0 0-.72-1.05 2 2 0 0 0-1.27-.38 2.18 2.18 0 0 0-1.36.41 2.3 2.3 0 0 0-.79 1.08 4.33 4.33 0 0 0-.26 1.52 4.57 4.57 0 0 0 .25 1.52 2.35 2.35 0 0 0 .77 1.08 2.09 2.09 0 0 0 1.32.4ZM73.79 51.38v-13h1.89v6.09l5.46-6.09h2.36l-5.77 6.37 6.19 6.67H81.5l-5.82-6.23v6.23ZM92.06 51.38v-4.81a6.57 6.57 0 0 0-.1-1.16 3.56 3.56 0 0 0-.36-1.13 2.22 2.22 0 0 0-.75-.83 2.26 2.26 0 0 0-1.26-.32 2.77 2.77 0 0 0-1 .17 2 2 0 0 0-.8.54 2.68 2.68 0 0 0-.53 1 4.81 4.81 0 0 0-.19 1.47l-1.18-.44a5.31 5.31 0 0 1 .5-2.35 3.74 3.74 0 0 1 1.43-1.59 4.23 4.23 0 0 1 2.25-.57 4 4 0 0 1 1.71.33 2.91 2.91 0 0 1 1.11.86 3.78 3.78 0 0 1 .66 1.15 5.61 5.61 0 0 1 .31 1.22A8.71 8.71 0 0 1 94 46v5.43Zm-6.87 0V41.6h1.69v2.83h.23v7ZM100.46 51.65a4.78 4.78 0 0 1-2.54-.65 4.52 4.52 0 0 1-1.67-1.82 6 6 0 0 1-.58-2.69 5.79 5.79 0 0 1 .6-2.69A4.39 4.39 0 0 1 98 42a5.21 5.21 0 0 1 5 0 4.52 4.52 0 0 1 1.67 1.82 5.83 5.83 0 0 1 .58 2.67 6 6 0 0 1-.59 2.7A4.52 4.52 0 0 1 103 51a4.75 4.75 0 0 1-2.54.65Zm0-1.78a2.43 2.43 0 0 0 2.1-.94 4.08 4.08 0 0 0 .69-2.45 3.89 3.89 0 0 0-.7-2.44 2.45 2.45 0 0 0-2.09-.93 2.64 2.64 0 0 0-1.56.44 2.51 2.51 0 0 0-.9 1.19 4.66 4.66 0 0 0-.3 1.74 4 4 0 0 0 .69 2.52 2.46 2.46 0 0 0 2.07.87ZM109 51.38l-3-9.79h1.88l2 6.71 2.12-6.7h1.63l2.06 6.71 2-6.71h1.87l-3 9.78h-1.52l-2.24-7.08-2.3 7.08ZM121.39 51.38V38.07h1.89v13.31ZM130.34 51.65a5.06 5.06 0 0 1-2.56-.63 4.51 4.51 0 0 1-1.71-1.78 5.59 5.59 0 0 1-.61-2.67 6.06 6.06 0 0 1 .6-2.78 4.42 4.42 0 0 1 1.68-1.79 4.81 4.81 0 0 1 2.51-.64 4.43 4.43 0 0 1 2.54.7 4 4 0 0 1 1.57 2 6.86 6.86 0 0 1 .42 3h-1.9v-.69a4.09 4.09 0 0 0-.65-2.52 2.25 2.25 0 0 0-1.91-.81 2.53 2.53 0 0 0-2.13.89 4.06 4.06 0 0 0-.72 2.59 3.86 3.86 0 0 0 .72 2.5 2.48 2.48 0 0 0 2.06.88 2.82 2.82 0 0 0 1.53-.4 2.73 2.73 0 0 0 1-1.16l1.86.59a4.39 4.39 0 0 1-1.73 2 4.77 4.77 0 0 1-2.57.72ZM126.85 47v-1.45h7V47ZM140.69 51.65a4 4 0 0 1-2.36-.68 4.4 4.4 0 0 1-1.53-1.84 6.3 6.3 0 0 1-.53-2.65 6.15 6.15 0 0 1 .54-2.63 4.35 4.35 0 0 1 1.54-1.85 4.16 4.16 0 0 1 2.38-.68 3.91 3.91 0 0 1 2.33.68 4.13 4.13 0 0 1 1.43 1.84 7.33 7.33 0 0 1 0 5.27 4.25 4.25 0 0 1-1.44 1.89 3.92 3.92 0 0 1-2.36.65Zm.27-1.71a2.49 2.49 0 0 0 1.52-.44 2.59 2.59 0 0 0 .86-1.22 5.5 5.5 0 0 0 .27-1.8 5.22 5.22 0 0 0-.28-1.79 2.45 2.45 0 0 0-.85-1.21A2.35 2.35 0 0 0 141 43a2.55 2.55 0 0 0-1.55.46 2.8 2.8 0 0 0-.9 1.24 4.81 4.81 0 0 0-.29 1.74 4.93 4.93 0 0 0 .29 1.76 2.84 2.84 0 0 0 .88 1.24 2.38 2.38 0 0 0 1.57.5Zm2.65 1.44v-7h-.22v-6h1.91v13ZM151.86 56a4.9 4.9 0 0 1-1.53-.24A4.47 4.47 0 0 1 149 55a3.82 3.82 0 0 1-1-1.17l1.75-.88a2 2 0 0 0 .91.91 2.79 2.79 0 0 0 1.24.29 3 3 0 0 0 1.37-.29 1.86 1.86 0 0 0 .86-.85 2.89 2.89 0 0 0 .29-1.41v-2.71h.23V41.6h1.68v10.75a5.62 5.62 0 0 1-.1.7 3.36 3.36 0 0 1-2.28 2.59 6.15 6.15 0 0 1-2.09.36Zm-.15-4.35a4 4 0 0 1-2.36-.68 4.4 4.4 0 0 1-1.53-1.84 6.3 6.3 0 0 1-.53-2.65 6.15 6.15 0 0 1 .54-2.63 4.35 4.35 0 0 1 1.54-1.85 4.16 4.16 0 0 1 2.38-.68 3.91 3.91 0 0 1 2.33.68 4.13 4.13 0 0 1 1.43 1.84 7.33 7.33 0 0 1 0 5.27 4.25 4.25 0 0 1-1.44 1.89 3.92 3.92 0 0 1-2.36.65Zm.27-1.71a2.49 2.49 0 0 0 1.52-.44 2.59 2.59 0 0 0 .86-1.22 5.5 5.5 0 0 0 .27-1.8 5.22 5.22 0 0 0-.28-1.79 2.52 2.52 0 0 0-.85-1.21A2.35 2.35 0 0 0 152 43a2.55 2.55 0 0 0-1.55.46 2.72 2.72 0 0 0-.9 1.24 4.81 4.81 0 0 0-.29 1.74 4.93 4.93 0 0 0 .29 1.76 2.76 2.76 0 0 0 .88 1.24 2.38 2.38 0 0 0 1.57.5ZM163.19 51.65a5.1 5.1 0 0 1-2.57-.63 4.51 4.51 0 0 1-1.71-1.78 5.71 5.71 0 0 1-.61-2.67 6.06 6.06 0 0 1 .6-2.78 4.51 4.51 0 0 1 1.69-1.79 4.78 4.78 0 0 1 2.51-.64 4.46 4.46 0 0 1 2.54.7 4.16 4.16 0 0 1 1.57 2 6.73 6.73 0 0 1 .41 3h-1.89v-.69a4.16 4.16 0 0 0-.65-2.52 2.27 2.27 0 0 0-1.91-.81 2.57 2.57 0 0 0-2.14.89 4.06 4.06 0 0 0-.71 2.59A3.86 3.86 0 0 0 161 49a2.51 2.51 0 0 0 2.07.88 2.82 2.82 0 0 0 1.53-.4 2.73 2.73 0 0 0 1-1.16l1.86.59a4.39 4.39 0 0 1-1.73 2 4.82 4.82 0 0 1-2.54.74ZM159.7 47v-1.45h7V47ZM173.28 51.38v-13h1.89V44h6.52v-5.66h1.91v13h-1.91v-5.59h-6.52v5.63ZM189.83 51.64a4 4 0 0 1-1.71-.32 3.23 3.23 0 0 1-1.12-.85 4.3 4.3 0 0 1-.65-1.16 5.91 5.91 0 0 1-.31-1.22A8.71 8.71 0 0 1 186 47v-5.4h1.92v4.81a8.12 8.12 0 0 0 .09 1.18 4 4 0 0 0 .36 1.11 2.15 2.15 0 0 0 .75.83 2.24 2.24 0 0 0 1.27.32 2.76 2.76 0 0 0 1-.16 2.14 2.14 0 0 0 .79-.54 2.49 2.49 0 0 0 .53-1 4.61 4.61 0 0 0 .2-1.48l1.18.44a5.35 5.35 0 0 1-.5 2.36 3.71 3.71 0 0 1-1.43 1.58 4.23 4.23 0 0 1-2.33.59Zm3.23-.26v-2.82h-.23v-7h1.91v9.78ZM201.87 51.65a3.89 3.89 0 0 1-2.35-.68 4.25 4.25 0 0 1-1.44-1.85 6.72 6.72 0 0 1-.49-2.64 6.85 6.85 0 0 1 .48-2.63A4.2 4.2 0 0 1 199.5 42a4 4 0 0 1 2.34-.68 4.11 4.11 0 0 1 2.37.68 4.37 4.37 0 0 1 1.55 1.84 6.15 6.15 0 0 1 .54 2.63 6.31 6.31 0 0 1-.54 2.65 4.4 4.4 0 0 1-1.53 1.88 4 4 0 0 1-2.36.65Zm-4.6-.27v-13h1.91v6H199v7Zm4.34-1.44a2.35 2.35 0 0 0 1.5-.46 2.69 2.69 0 0 0 .88-1.24 4.92 4.92 0 0 0 .3-1.76 4.81 4.81 0 0 0-.3-1.74 2.7 2.7 0 0 0-.89-1.24 2.55 2.55 0 0 0-1.55-.46 2.4 2.4 0 0 0-1.47.44 2.58 2.58 0 0 0-.85 1.21 6.1 6.1 0 0 0 0 3.59 2.59 2.59 0 0 0 .86 1.22 2.49 2.49 0 0 0 1.52.44Z"/></svg>