<svg xmlns="http://www.w3.org/2000/svg" width="80" height="80" fill="none"><path fill="#388CC8" d="M36.4.1C32.2.57 26.1 2.32 25 3.37c-.55.52-.52 1.55.03 2.11.64.64 1.1.61 3.19-.22a35.63 35.63 0 0 1 6.52-1.78c.79-.13 1.43-.2 1.45-.19.01.02.14.28.26.58.22.52.2.58-.22 1.22-.76 1.13-.8 2.13-.14 3.38.76 1.42 2.01 2.34 4.59 3.36l1.7.67-.1.49c-.32 1.4-.38 1.8-.4 2.48 0 .43-.06.88-.15 1.04-.18.34-1.05.71-2.04.87-2.18.36-3.47 2.14-3.5 4.85-.02 1.33.1 1.72.81 2.47.62.67 1.32.9 2.69.87 1.42-.03 1.63.07 3.01 1.37a4.57 4.57 0 0 0 3.6 1.47h.89l.56 1c.32.54.98 1.45 1.5 2.01.51.57 1.01 1.2 1.12 1.38.1.19.24 1.05.3 1.9.11 1.3.19 1.66.57 2.26 1.46 2.34 4.88 1.7 6.74-1.24.24-.37.66-1.31.95-2.08.39-1.08.56-1.4.78-1.4.2 0 .66.51 1.35 1.56 2.48 3.66 4.43 4.55 6.81 3.11.86-.51.88-.51 1.37-.26.69.34 1.93.3 2.84-.1.42-.17.8-.33.83-.33.12 0-.11 2.9-.36 4.62a32.77 32.77 0 0 1-8.04 16.96c-.06 0-.31-.39-.56-.86a7.87 7.87 0 0 0-2.75-2.72A6.99 6.99 0 0 0 51.14 59c-.28 1.34-.12 5.4.24 6.33l.3.72-.54.45c-.84.72-.92.74-1.28.25-.48-.6-1.5-1.59-2.25-2.18l-.63-.49.38-.98c.33-.88.4-1.33.46-3.65.09-4.11-.38-5.69-2.31-7.61A7.43 7.43 0 0 0 40 49.5a7.4 7.4 0 0 0-5.52 2.34c-1.93 1.9-2.41 3.49-2.3 7.6.06 2.25.12 2.8.43 3.65l.37 1-.62.48c-.73.58-1.75 1.58-2.22 2.17-.37.49-.44.47-1.3-.25l-.53-.45.3-.72c.36-.94.52-4.99.24-6.33A6.99 6.99 0 0 0 18.8 54.2a7.87 7.87 0 0 0-2.75 2.72c-.25.47-.5.86-.56.86-.19 0-2.04-2.39-3.16-4.06-2.54-3.83-4.1-8.02-5.03-13.4-.08-.47-.07-.5.58-.6.36-.06 1.11-.28 1.66-.48.55-.2 1.1-.38 1.24-.38.13 0 .91.66 1.74 1.46.83.8 1.8 1.58 2.14 1.75 1.72.81 3.48.3 4.7-1.35 1.15-1.54 1.1-2.53-.25-5.42-.97-2.07-1-2.33-.33-2.74l.52-.3 1.21 1.16c1.71 1.66 2.28 1.92 4.03 1.9 4.13-.02 6.26-2.24 5.3-5.48-.84-2.7-3.21-4.61-7.6-6.13-2.69-.9-2.67-.9-3.08-2.16-.83-2.55-1.73-3.42-3.75-3.66-1.26-.14-2.56-.44-2.56-.56 0-.16 1.2-1.7 2.17-2.82 1.17-1.36 1.36-1.76 1.13-2.48-.24-.69-.7-1-1.5-1-.56 0-.73.1-1.42.81C9.4 15.8 6.12 22.11 4.79 28.07c-.65 2.93-.8 4.41-.79 7.9 0 3.72.22 5.57 1.08 8.93a32.52 32.52 0 0 0 2.7 7.15 34.94 34.94 0 0 0 5.87 8.4L15 61.93l.11 1.2c.06.66.24 1.57.4 2.04l.28.82-1.1 1.02a11.2 11.2 0 0 0-3.02 4.55c-.42 1.22-.45 1.52-.51 4.18-.03 1.58-.02 3.03.03 3.25.06.2.33.52.61.69.49.31.94.31 28.2.31 27.26 0 27.71 0 28.2-.31.28-.17.55-.49.61-.7.05-.21.07-1.66.03-3.24-.06-2.63-.09-2.96-.5-4.12-.6-1.73-1.61-3.3-2.98-4.56L64.21 66l.29-.8c.14-.45.31-1.35.37-2.03l.13-1.23 1.35-1.49c4.36-4.81 7.08-9.7 8.58-15.56A30.3 30.3 0 0 0 76 35.9c0-3.78-.2-5.58-1.07-8.97A35.93 35.93 0 0 0 55.94 3.67a41.8 41.8 0 0 0-3.53-1.55 45.93 45.93 0 0 0-7.07-1.8 51.7 51.7 0 0 0-8.95-.21Zm7.21 3.12a33.6 33.6 0 0 1 16.32 6.54 44.07 44.07 0 0 1 5.8 5.66 33.32 33.32 0 0 1 6.14 12.26c.47 1.83 1 4.88.85 5.1a6 6 0 0 1-2.3.87l-.6-.33a2.74 2.74 0 0 0-1.12-.23c-.58 0-.9.1-1.57.56-.47.31-.95.63-1.11.7-.4.22-1.11-.47-2.2-2.1-1.1-1.68-1.7-2.34-2.56-2.84a2.95 2.95 0 0 0-3.7.35c-.7.64-1.2 1.5-1.71 3.08a4.44 4.44 0 0 1-1.84 2.44c-.07 0-.2-.58-.25-1.3a5.96 5.96 0 0 0-1.83-4.24c-.6-.67-1.4-1.8-1.76-2.49-.9-1.65-1.44-1.98-3.37-1.98h-1.32l-1.1-1.03c-1.46-1.36-2.45-1.82-3.99-1.8H39.2l.11-.58c.19-.99.35-1.27.8-1.38 2.04-.44 3.01-.87 3.77-1.66.69-.71.97-1.46 1.14-3.06.08-.75.25-1.75.4-2.22a2.9 2.9 0 0 0-.27-2.5c-.47-.83-1.24-1.33-3.3-2.13-1.44-.56-2.04-.88-2.5-1.33l-.6-.6.39-.6c.36-.55.73-1.91.63-2.29-.04-.09-.1-.36-.15-.6l-.09-.43h1.38c.75 0 1.98.08 2.7.16Zm-31.5 17.2c.4.17 1.3.4 2.03.48a4.3 4.3 0 0 1 1.49.35c.1.1.4.81.67 1.6.74 2.1 1.3 2.56 4.48 3.67 3.45 1.2 5.1 2.23 5.79 3.61.48.99.5 1.25.1 1.61-.35.33-2.02.64-2.61.5a6.94 6.94 0 0 1-1.71-1.37c-1.35-1.36-1.92-1.7-2.9-1.7-1.25 0-3.18 1-3.77 1.95-.85 1.39-.73 2.65.56 5.44.47 1 .85 1.87.85 1.94 0 .22-.68.84-.91.84-.11 0-.85-.64-1.63-1.4-.79-.79-1.76-1.6-2.18-1.8-1-.52-2.19-.52-3.44-.02-.5.2-1.15.42-1.4.49l-.48.1v-1.54c0-3.94 1.06-8.65 2.84-12.62.81-1.83 1.16-2.44 1.38-2.44.08 0 .45.14.84.31ZM42 53.07a4.72 4.72 0 0 1 2.2 2.2c.42.87.44.94.44 3.62 0 3.13-.14 3.66-1.29 4.8A4.3 4.3 0 0 1 40 65.05a4.3 4.3 0 0 1-3.34-1.36c-1.08-1.08-1.27-1.72-1.34-4.5-.03-1.46.02-2.7.11-3.07a5.38 5.38 0 0 1 3.22-3.33c.8-.25 2.6-.1 3.34.28Zm-18.72 3.66a4.65 4.65 0 0 1 2.42 2.4c.25.88.23 4.36-.03 5.12a3.81 3.81 0 0 1-6.39 1.25c-.86-.93-1-1.53-1-3.95.01-1.57.07-2.25.25-2.66a3.9 3.9 0 0 1 4.75-2.16Zm36.6.38c1.54.93 2.04 2.31 1.9 5.16-.08 1.8-.4 2.67-1.23 3.45a3.8 3.8 0 0 1-6.26-1.64c-.22-.8-.2-4.16.03-4.94a5.06 5.06 0 0 1 2.32-2.4 4.22 4.22 0 0 1 3.24.37Zm-24.44 9.66c.33.4 2.3 1.17 3.44 1.38.9.15 1.37.15 2.28 0a9.75 9.75 0 0 0 3.43-1.4c.24-.21.32-.2.82.1.83.51 2.3 2.19 2.89 3.25a10.49 10.49 0 0 1 1.13 5.08v1.7H30.58v-1.7c0-2.87.77-5.06 2.39-6.83.78-.86 1.91-1.8 2.17-1.8.06 0 .2.1.3.22ZM18.9 69.13a6.87 6.87 0 0 0 6.3 0c.62-.3 1.17-.55 1.22-.55.06 0 .49.36.94.79l.83.78-.3 1.06a14.2 14.2 0 0 0-.39 3.35l-.1 2.31H14.27v-1.45c0-2.55.65-4.18 2.3-5.87a7.16 7.16 0 0 1 1.1-.97 10 10 0 0 1 1.23.55Zm35.92 0a6.9 6.9 0 0 0 6.33-.01l1.13-.57.47.33a8.68 8.68 0 0 1 2.1 2.47 8.3 8.3 0 0 1 .9 4.07v1.45H52.6l-.1-2.23a14.29 14.29 0 0 0-.38-3.35l-.32-1.13.85-.8c.45-.42.88-.78.94-.78.05 0 .6.25 1.22.55Z"/><path fill="#fff" d="M12.11 20.42c.4.17 1.3.4 2.03.48a4.3 4.3 0 0 1 1.49.35c.1.1.4.81.67 1.6.74 2.1 1.3 2.56 4.48 3.67 3.45 1.2 5.1 2.23 5.79 3.61.48.99.5 1.25.1 1.61-.35.33-2.02.64-2.61.5a6.94 6.94 0 0 1-1.71-1.37c-1.35-1.36-1.92-1.7-2.9-1.7-1.25 0-3.18 1-3.77 1.95-.85 1.39-.73 2.65.56 5.44.47 1 .85 1.87.85 1.94 0 .22-.68.84-.91.84-.11 0-.85-.64-1.63-1.4-.79-.79-1.76-1.6-2.18-1.8-1-.52-2.19-.52-3.44-.02-.5.2-1.15.42-1.4.49l-.48.1v-1.54c0-3.94 1.06-8.65 2.84-12.62.81-1.83 1.16-2.44 1.38-2.44.08 0 .45.14.84.31Zm11.16 36.31a4.65 4.65 0 0 1 2.42 2.4c.25.88.23 4.36-.03 5.12a3.81 3.81 0 0 1-6.39 1.25c-.86-.93-1-1.53-1-3.95.01-1.57.07-2.25.25-2.66a3.9 3.9 0 0 1 4.75-2.16Zm-4.37 12.4a6.87 6.87 0 0 0 6.29 0c.62-.3 1.17-.55 1.22-.55.06 0 .49.36.94.79l.83.78-.3 1.06a14.2 14.2 0 0 0-.39 3.35l-.1 2.31H14.27v-1.45c0-2.55.65-4.18 2.3-5.87a7.16 7.16 0 0 1 1.1-.97 10 10 0 0 1 1.23.55Zm16.53-2.36c.33.4 2.3 1.17 3.44 1.38.9.15 1.37.15 2.28 0a9.75 9.75 0 0 0 3.43-1.4c.24-.21.32-.2.82.1.83.51 2.3 2.19 2.89 3.25a10.49 10.49 0 0 1 1.13 5.08v1.7H30.58v-1.7c0-2.87.77-5.06 2.39-6.83.78-.86 1.91-1.8 2.17-1.8.06 0 .2.1.3.22Zm19.38 2.36a6.9 6.9 0 0 0 6.33-.01l1.13-.57.47.33a8.68 8.68 0 0 1 2.1 2.47 8.3 8.3 0 0 1 .9 4.07v1.45H52.6l-.1-2.23a14.29 14.29 0 0 0-.38-3.35l-.32-1.13.85-.8c.45-.42.88-.78.94-.78.05 0 .6.25 1.22.55Zm5.06-12.03c1.54.94 2.04 2.32 1.9 5.17-.08 1.8-.4 2.67-1.23 3.45a3.8 3.8 0 0 1-6.26-1.64c-.22-.8-.2-4.16.03-4.94a5.06 5.06 0 0 1 2.32-2.4 4.22 4.22 0 0 1 3.24.37ZM42 53.07a4.72 4.72 0 0 1 2.19 2.2c.42.87.44.94.44 3.62 0 3.13-.14 3.66-1.29 4.8A4.3 4.3 0 0 1 40 65.05a4.3 4.3 0 0 1-3.34-1.36c-1.08-1.08-1.27-1.72-1.34-4.5-.03-1.46.02-2.7.11-3.07a5.38 5.38 0 0 1 3.22-3.33c.8-.25 2.6-.1 3.34.28Zm1.61-49.85a33.6 33.6 0 0 1 16.32 6.54 44.07 44.07 0 0 1 5.8 5.66 33.32 33.32 0 0 1 6.14 12.26c.47 1.83 1 4.88.85 5.1a6 6 0 0 1-2.3.87l-.6-.33a2.74 2.74 0 0 0-1.12-.23c-.58 0-.9.1-1.57.56-.47.31-.95.63-1.11.7-.4.22-1.11-.47-2.2-2.1-1.1-1.68-1.7-2.34-2.56-2.84a2.95 2.95 0 0 0-3.7.35c-.7.64-1.2 1.5-1.71 3.08a4.44 4.44 0 0 1-1.84 2.44c-.07 0-.2-.58-.25-1.3a5.96 5.96 0 0 0-1.83-4.24c-.6-.67-1.4-1.8-1.76-2.49-.9-1.65-1.44-1.98-3.37-1.98h-1.32l-1.1-1.03c-1.46-1.36-2.45-1.82-3.99-1.8H39.2l.11-.58c.19-.99.35-1.27.8-1.38 2.04-.44 3.01-.87 3.77-1.66.69-.71.97-1.46 1.14-3.06.08-.75.25-1.75.4-2.22a2.9 2.9 0 0 0-.27-2.5c-.47-.83-1.24-1.33-3.3-2.13-1.44-.56-2.04-.88-2.5-1.33l-.6-.6.39-.6c.36-.55.73-1.91.63-2.29-.04-.09-.1-.36-.15-.6l-.09-.43h1.38c.75 0 1.98.08 2.7.16Z"/><path fill="#388CC8" d="M19 6.74c-.86.73-.69 2.03.33 2.51 1.57.75 2.92-1.22 1.7-2.45-.6-.6-1.37-.61-2.03-.06Z"/></svg>