<svg xmlns="http://www.w3.org/2000/svg" width="24" height="24" viewBox="0 0 24 24"><path d="M24,12.27a13.87,13.87,0,0,0-.22-2.45H12.24v4.64h6.59a5.48,5.48,0,0,1-2.44,3.62l4,3h0A11.6,11.6,0,0,0,24,12.27Z" fill="#4285f4"/><path d="M16.39,18.08h0a7.49,7.49,0,0,1-4.15,1.15,7.29,7.29,0,0,1-6.85-5L1.3,17.39h0A12.28,12.28,0,0,0,12.24,24a11.81,11.81,0,0,0,8.11-2.91h0Z" fill="#34a853"/><path d="M5.39,14.28h0a7,7,0,0,1,0-4.56h0L1.3,6.61h0a11.82,11.82,0,0,0,0,10.78h0Z" fill="#fbbc05"/><path d="M5.39,9.72a7.29,7.29,0,0,1,6.85-5,6.71,6.71,0,0,1,4.69,1.8l3.51-3.44A11.9,11.9,0,0,0,12.24,0,12.28,12.28,0,0,0,1.3,6.61h0L5.39,9.72Z" fill="#ea4335"/></svg>