<svg xmlns="http://www.w3.org/2000/svg" width="80" height="80" fill="none"><g clip-path="url(#a)"><path fill="#388CC8" d="M.72 1c-.48.56-.79 1.06-.7 1.1.1.07 4.44 3.73 9.66 8.14l9.5 8.02-.08.74a3.58 3.58 0 0 0 1.16 3.14c.95.94 1.68 1.23 3.14 1.23h.98l-.02 1.1c0 .63.07 1.3.13 1.5.12.32-.01.55-.94 1.5l-1.1 1.14-3.04.06c-2.98.05-3.08.07-3.8.5-.4.25-2.92 2.65-5.59 5.35-5.25 5.32-5.51 5.64-5.53 7.27v.9l-1.52 1.57c-.83.88-1.67 1.88-1.83 2.24-.44.9-.46 2.87-.01 3.79.2.43 2.56 2.93 6.54 6.96 6.8 6.88 7.1 7.11 8.75 7.11 1.73 0 1.96-.2 8.78-7.1a132.5 132.5 0 0 0 6.54-6.89c.26-.5.33-1.09.4-4.3l.07-3.72L38.6 37l.05 5.41.03 5.4-7.85 7.94V79.2l.41.4.4.41h16.7l.4-.41.41-.4V55.74L41.3 47.8v-5.38c0-2.96.03-5.38.08-5.38s1.5 1.2 3.24 2.66l3.14 2.65.08 3.72c.08 3.67.08 3.74.52 4.46.25.42 3.23 3.54 6.63 6.95 6.69 6.72 6.88 6.87 8.55 6.88 1.72 0 1.95-.2 8.77-7.1 3.97-4.03 6.34-6.56 6.54-6.97a5.6 5.6 0 0 0-.02-3.79c-.16-.36-1-1.36-1.83-2.24l-1.52-1.58v-.89c-.02-1.63-.28-1.95-5.53-7.27a84.29 84.29 0 0 0-5.6-5.35c-.71-.43-.8-.45-3.79-.5l-3.04-.06-1.1-1.14c-.92-.95-1.06-1.18-.94-1.5.06-.2.13-.87.13-1.5l-.02-1.1h.98c1.46 0 2.2-.3 3.14-1.23a3.62 3.62 0 0 0 1.18-3.13l-.1-.74 9.6-8.08c5.27-4.45 9.6-8.13 9.62-8.2.02-.05-.34-.52-.82-1.04L78.33 0l-9.55 8.07a1059.4 1059.4 0 0 1-9.58 8.06l-.6-.3c-.5-.24-1.38-.27-10.23-.32-5.33-.02-9.7-.09-9.7-.14 0-.04 2.88-3.09 6.38-6.78l6.38-6.7-.93-.85c-.53-.48-1-.86-1.07-.83-.04.02-2.17 2.23-4.69 4.9a113.13 113.13 0 0 1-4.76 4.85c-.08 0-2.22-2.19-4.76-4.86a237.71 237.71 0 0 0-4.7-4.89 5 5 0 0 0-1.04.83l-.95.85 9.69 10.18-3.37 3.39-6.46.05c-5.8.05-6.54.08-7.04.34-.45.23-.62.25-.85.08-.16-.11-4.31-3.62-9.24-7.78C6.33 3.98 2.14.45 1.94.3 1.58 0 1.57.02.72 1Zm26.91 19.74h-2.58c-2.52 0-2.58-.02-2.98-.41a1.3 1.3 0 0 1-.4-.9c0-.32.14-.66.4-.91l.4-.41h7.78l-2.62 2.63Zm9.16 0h-5.4l2.62-2.63h5.4l-2.62 2.63Zm9.16 0h-5.4l2.62-2.63h5.4l-2.62 2.63Zm11.94-2.22c.26.25.4.6.4.9 0 .32-.14.66-.4.9l-.4.42h-7.78l2.62-2.63h2.58c2.52 0 2.59.01 2.98.4ZM31.56 26h-1.93c-1.83 0-1.95-.02-2.32-.41-.26-.25-.41-.6-.41-.9 0-.32.15-.67.4-.91.4-.42.42-.42 3.64-.42h3.24L31.56 26Zm9.16 0h-5.4l2.62-2.64h5.4L40.72 26Zm11.94-2.22c.26.24.4.59.4.9 0 .31-.14.66-.4.9l-.4.42h-7.78l2.62-2.64h2.58c2.52 0 2.58.02 2.98.42Zm-16.93 4.84 8.59.1-7.04 5.92c-3.87 3.26-7.2 6.1-7.39 6.29-.37.36-.37.44-.37 4.26v3.9l-2.05 2.08c-1.9 1.9-2.06 2.04-2.24 1.74a4.52 4.52 0 0 0-2.39-1.84c-.95-.28-.95-.28-1.22-1.19a3.82 3.82 0 0 0-2.15-2.55c-.8-.38-.88-.46-.96-1.1a6.07 6.07 0 0 0-.48-1.47l-.39-.79.87-.26a7.3 7.3 0 0 0 3.43-2.75 7.45 7.45 0 0 0 1.03-4.23v-1.51H20.4l-.07 1.68c-.08 1.9-.36 2.68-1.3 3.52-.72.64-1.2.82-3.08 1.2-1.7.35-2.12.66-2.12 1.51 0 .35.24.74.88 1.45.85.92 1.4 2.13 1.4 2.98 0 .53-.49 1.94-.81 2.34l-.31.38-3.93-3.95c-3.66-3.67-3.94-3.99-3.94-4.53s.33-.9 4.96-5.56l4.95-4.97h6.53l1.39-1.5c1.24-1.34 1.44-1.48 1.8-1.37.22.07 4.26.17 8.99.22Zm19.3 1.16 1.39 1.49h6.52l4.96 4.97c4.63 4.66 4.95 5.02 4.95 5.56s-.28.86-3.9 4.51c-2.33 2.34-3.98 3.89-4.1 3.82-.47-.3-.9-1.51-.9-2.57 0-1.28.28-1.87 1.4-3.08.59-.62.8-.98.8-1.33 0-.87-.43-1.18-2.13-1.53-1.9-.38-2.35-.56-3.09-1.2-.93-.84-1.32-1.91-1.32-3.69v-1.51h-2.65l.06 1.92c.08 2.16.41 3.2 1.47 4.53a7.4 7.4 0 0 0 3.11 2.09l.72.21-.4.8c-.2.42-.42 1.1-.47 1.46-.08.64-.16.72-.96 1.1a3.82 3.82 0 0 0-2.14 2.55c-.28.9-.28.9-1.23 1.19a4.52 4.52 0 0 0-2.39 1.84c-.18.3-.34.17-2.24-1.74l-2.04-2.08v-3.87c0-3.45-.03-3.91-.28-4.2-.16-.2-2.03-1.8-4.14-3.58a73.76 73.76 0 0 1-3.84-3.36c0-.07 1.4-1.33 3.14-2.78l3.14-2.67 2.01-.01c1.11 0 2.16-.07 2.34-.15.64-.28.83-.15 2.2 1.31Zm-48 16.3.98.99-1.68 1.7-1.69 1.67-.64-.69c-.54-.57-.65-.8-.65-1.38 0-.63.1-.8 1.26-1.98.69-.72 1.29-1.3 1.36-1.3.04 0 .52.45 1.06.99Zm68.36.33 1.27 1.32-.1.75c-.06.6-.2.9-.67 1.37l-.58.6-3.36-3.38.98-.99A9.43 9.43 0 0 1 74 45.1c.06 0 .68.6 1.39 1.32Zm-64.44 3.62.99.99-3.36 3.37-1.01-1.03-1.03-1.02 1.63-1.65c.9-.9 1.67-1.65 1.72-1.65.05 0 .52.45 1.06 1Zm60.84.66 1.64 1.65-1.04 1.02-1 1.03-3.36-3.37.98-.99a9.43 9.43 0 0 1 1.06-.99c.05 0 .82.74 1.72 1.65Zm-52.92-.56c.75.97.64 1.15-3.01 4.84l-3.35 3.37-1.02-1.03-1.03-1.02 1.67-1.67 1.65-1.68.44.37c.66.5 1.33.44 1.9-.17.66-.69 2.11-2.91 2.11-3.2 0-.37.26-.29.64.19Zm42.86-.2c0 .3 1.46 2.52 2.11 3.21.57.61 1.24.68 1.9.17l.44-.37 1.65 1.68 1.67 1.67-1.03 1.02-1.01 1.03-3.36-3.37c-3.64-3.69-3.76-3.87-3-4.84.37-.48.63-.56.63-.2ZM41.3 56.3v-4.7l5.23 5.27v20.5H33.44v-20.5l5.15-5.18.1 4.6h2.6Zm-18.63-2.32c.33.34.48.64.48 1.02 0 .47-.35.88-3.06 3.63-2.83 2.87-3.1 3.1-3.65 3.1-.47 0-.72-.13-1.3-.74l-.74-.76 3.37-3.36c2.99-3.01 3.4-3.37 3.89-3.37.38 0 .67.15 1.01.48Zm39.55 2.9 3.37 3.35-.74.76c-.59.6-.83.74-1.3.74-.55 0-.83-.23-3.66-3.1-2.71-2.75-3.05-3.16-3.05-3.63 0-.74.75-1.5 1.48-1.5.5 0 .9.36 3.9 3.37Z"/><path fill="#388CC8" d="M36.06 65.51h7.85v-2.63h-7.85v2.63Zm0 6.59h7.85v-2.63h-7.85v2.63Z"/><path fill="#fff" d="m35.73 28.63 8.59.1-7.04 5.92c-3.87 3.26-7.2 6.1-7.39 6.29-.37.36-.37.44-.37 4.26v3.9l-2.05 2.08c-1.9 1.9-2.06 2.04-2.24 1.74a4.52 4.52 0 0 0-2.39-1.84c-.95-.28-.95-.28-1.22-1.19a3.82 3.82 0 0 0-2.15-2.55c-.8-.38-.88-.46-.96-1.1a6.07 6.07 0 0 0-.48-1.47l-.39-.79.87-.26a7.3 7.3 0 0 0 3.43-2.75 7.45 7.45 0 0 0 1.03-4.23v-1.51H20.4l-.07 1.68c-.08 1.9-.36 2.68-1.3 3.52-.72.64-1.2.82-3.08 1.2-1.7.35-2.12.66-2.12 1.51 0 .35.24.74.88 1.45.85.92 1.4 2.13 1.4 2.98 0 .53-.49 1.94-.81 2.34l-.31.38-3.93-3.95c-3.66-3.67-3.94-3.99-3.94-4.53s.33-.9 4.96-5.56l4.95-4.97h6.53l1.39-1.5c1.24-1.34 1.44-1.48 1.8-1.37.22.07 4.26.17 8.99.22ZM7.03 46.09l.98.99-1.68 1.7-1.69 1.67-.64-.69c-.54-.57-.65-.8-.65-1.38 0-.63.1-.8 1.26-1.98.69-.72 1.29-1.3 1.36-1.3.04 0 .52.45 1.06.99Zm3.92 3.95.99.99-3.36 3.37-1.01-1.03-1.03-1.02 1.63-1.65c.9-.9 1.67-1.65 1.72-1.65.05 0 .52.45 1.06 1Z"/><path fill="#fff" d="M18.87 50.14c.75.97.64 1.15-3.01 4.84l-3.35 3.37-1.02-1.03-1.03-1.02 1.67-1.67 1.65-1.68.44.37c.66.5 1.33.44 1.9-.17.66-.69 2.11-2.91 2.11-3.2 0-.37.26-.29.64.19Zm3.79 3.84c.33.34.48.64.48 1.02 0 .47-.35.88-3.06 3.63-2.83 2.87-3.1 3.1-3.65 3.1-.47 0-.72-.13-1.3-.74l-.74-.76 3.37-3.36c2.99-3.01 3.4-3.37 3.89-3.37.38 0 .67.15 1.01.48Z"/><path fill="#fff" fill-rule="evenodd" d="M38.69 56.3h2.6v-4.7l5.23 5.27v20.5H33.44v-20.5l5.15-5.18.1 4.6Zm-2.63 9.21v-2.63h7.85v2.63h-7.85Zm0 6.59v-2.63h7.85v2.63h-7.85Z" clip-rule="evenodd"/><path fill="#fff" d="m55.03 29.8 1.39 1.48h6.52l4.96 4.97c4.63 4.66 4.95 5.02 4.95 5.56s-.28.86-3.9 4.51c-2.33 2.34-3.98 3.89-4.1 3.82-.47-.3-.9-1.51-.9-2.57 0-1.28.28-1.87 1.4-3.08.59-.62.8-.98.8-1.33 0-.87-.43-1.18-2.13-1.53-1.9-.38-2.35-.56-3.09-1.2-.93-.84-1.32-1.91-1.32-3.69v-1.51h-2.65l.06 1.92c.08 2.16.41 3.2 1.47 4.53a7.4 7.4 0 0 0 3.11 2.09l.72.21-.4.8c-.2.42-.42 1.1-.47 1.46-.08.64-.16.72-.96 1.1a3.82 3.82 0 0 0-2.14 2.55c-.28.9-.28.9-1.23 1.19a4.52 4.52 0 0 0-2.39 1.84c-.18.3-.34.17-2.24-1.74l-2.04-2.08v-3.87c0-3.45-.03-3.91-.28-4.2-.16-.2-2.03-1.8-4.14-3.58a73.76 73.76 0 0 1-3.84-3.36c0-.07 1.4-1.33 3.14-2.78l3.14-2.67 2.01-.01c1.11 0 2.16-.07 2.34-.15.64-.28.83-.15 2.2 1.31Zm7.17 27.07 3.38 3.36-.74.76c-.59.6-.83.74-1.3.74-.55 0-.83-.23-3.66-3.1-2.71-2.75-3.05-3.16-3.05-3.63 0-.74.75-1.5 1.48-1.5.5 0 .9.36 3.9 3.37Z"/><path fill="#fff" d="M61.73 49.94c0 .3 1.46 2.52 2.11 3.21.57.61 1.24.68 1.9.17l.44-.37 1.65 1.68 1.67 1.67-1.03 1.02-1.01 1.03-3.36-3.37c-3.64-3.69-3.76-3.87-3-4.84.37-.48.63-.56.63-.2Zm10.06.76 1.64 1.65-1.04 1.02-1 1.03-3.36-3.37.98-.99a9.43 9.43 0 0 1 1.06-.99c.05 0 .82.74 1.72 1.65Zm3.6-4.28 1.27 1.32-.1.75c-.06.6-.2.9-.67 1.37l-.58.6-3.36-3.38.98-.99A9.43 9.43 0 0 1 74 45.1c.06 0 .68.6 1.39 1.32ZM52.66 23.79c.26.24.4.59.4.9 0 .31-.14.66-.4.9l-.4.42h-7.78l2.62-2.64h2.58c2.52 0 2.58.02 2.98.42Zm-9.33-.42-2.61 2.64h-5.4l2.62-2.64h5.4ZM31.56 26h-1.93c-1.83 0-1.95 0-2.32-.4-.26-.25-.41-.6-.41-.9 0-.32.15-.67.4-.91.4-.42.42-.42 3.64-.42h3.24l-2.62 2.64Zm-3.93-5.26h-2.58c-2.52 0-2.58-.02-2.98-.41a1.3 1.3 0 0 1-.4-.9c0-.32.14-.66.4-.91l.4-.41h7.78l-2.62 2.63ZM39.4 18.1l-2.6 2.64h-5.4l2.6-2.63h5.4Zm9.17 0-2.62 2.64h-5.4l2.62-2.63h5.4Zm9.32.42c.26.25.4.6.4.9 0 .32-.14.66-.4.9l-.4.42h-7.78l2.62-2.63h2.58c2.52 0 2.59.01 2.98.4Z"/></g><defs><clipPath id="a"><path fill="#fff" d="M0 0h80v80H0z"/></clipPath></defs></svg>