<svg xmlns="http://www.w3.org/2000/svg" xmlns:xlink="http://www.w3.org/1999/xlink" style="display:none"><symbol id="alert-triangle" viewBox="0 0 24 24"><g fill="none"><path d="M12 12.97V8.13m0 8.43v.04m6.05 4.03H5.95A3.63 3.63 0 012.47 18c-.2-.64.04-1.31.4-1.88L8.9 5.1a3.63 3.63 0 016.18 0l6.05 11.03c.35.57.58 1.24.4 1.88a3.63 3.63 0 01-3.5 2.62z"/></g></symbol><symbol id="arrow-right-sm" viewBox="0 0 24 24"><g fill="none"><path d="M12.83 7.63L17 12m0 0l-4.17 4.38M17 12H7"/></g></symbol><symbol id="asterisk"><g fill="none"><path d="M1.932 5.666l-.917-.665L2.1 3.636l-1.68-.49.35-1.078 1.638.609L2.345.92h1.134l-.063 1.757 1.638-.609.35 1.078-1.68.49 1.078 1.365-.917.665-.973-1.442-.98 1.442z" fill="#388CC8"/></g></symbol><symbol id="blockquote"><path d="M24 2.434c-3.228-.523-5.626.095-7.193 1.852-1.567 1.757-2.35 4.346-2.35 7.766v9.69H24v-9.69h-4.912c-.258-1.71-.024-3.1.701-4.168.749-1.069 1.965-1.532 3.65-1.39L24 2.435zm-14.456 0c-3.228-.523-5.626.095-7.193 1.852C.784 6.043 0 8.632 0 12.052v9.69h9.544v-9.69H4.632c-.258-1.71-.024-3.1.701-4.168.749-1.069 1.965-1.532 3.65-1.39l.56-4.06z" fill="#fff"/></symbol><symbol id="box" viewBox="0 0 24 24"><g fill="none"><path d="M21.53 7.2H2.47M15 10.5H9m12.6-2.73V19.2a2.4 2.4 0 01-2.4 2.4H4.8a2.4 2.4 0 01-2.4-2.4V7.77c0-.38.09-.74.25-1.08L4.3 3.4c.3-.6.93-.99 1.61-.99H18.1c.68 0 1.3.39 1.6 1l1.66 3.3c.16.33.25.7.25 1.07z"/></g></symbol><symbol id="calendar" viewBox="0 0 24 24"><g fill="none"><path d="M7.25 17.55v-.08m5.06.08v-.08m0-4.5v-.09m4.5.09v-.09M3.88 8.47h15.75M5.9 2v1.69M17.37 2v1.69m0 0H6.13a3.38 3.38 0 00-3.37 3.37v11.25a3.37 3.37 0 003.38 3.38h11.25a3.37 3.37 0 003.37-3.38V7.06a3.37 3.37 0 00-3.38-3.37z"/></g></symbol><symbol id="check"><g fill="none"><path d="M1 5l4 4 8-8"/></g></symbol><symbol id="chevron-down" viewBox="0 0 24 24"><g fill="none"><path d="M16.8 9.6L12 14.4 7.2 9.6"/></g></symbol><symbol id="chevron-left" viewBox="0 0 24 24"><g fill="none"><path d="M14.4 16.8L9.6 12l4.8-4.8"/></g></symbol><symbol id="chevron-right" viewBox="0 0 24 24"><g fill="none"><path d="M9.6 7.2l4.8 4.8-4.8 4.8"/></g></symbol><symbol id="close" viewBox="0 0 24 24"><g fill="none"><path d="M19 5L5 19m14 0L5 5"/></g></symbol><symbol id="down-arrow" viewBox="0 0 24 24"><path d="M18.17 13.2l-6.17 6m0 0l-6.17-6m6.17 6V4.8" fill="none"/></symbol><symbol id="download" viewBox="0 0 24 24"><g fill="none"><path d="M3.6 15.22v3.7a2.13 2.13 0 002.1 2.12h12.6a2.13 2.13 0 002.1-2.12v-3.7M12 2.96v12m0 0l4.8-4.59M12 14.96l-4.8-4.59"/></g></symbol><symbol id="email" viewBox="0 0 24 24"><g fill="none"><path d="M4.2 6.6l7.12 4.93c.4.28.95.28 1.36 0L19.8 6.6m-15 12.6h14.4a2.4 2.4 0 002.4-2.4V7.2a2.4 2.4 0 00-2.4-2.4H4.8a2.4 2.4 0 00-2.4 2.4v9.6a2.4 2.4 0 002.4 2.4z"/></g></symbol><symbol id="eye-open" viewBox="0 0 24 24"><g fill="none"><path stroke="#000" stroke-linecap="round" stroke-linejoin="round" stroke-width="2" d="M15.58 12a3.58 3.58 0 11-7.15 0 3.58 3.58 0 017.15 0z"/><path stroke="#000" stroke-linecap="round" stroke-linejoin="round" stroke-width="1.5" d="M12 20.27c3.53 0 6.82-2.08 9.11-5.68.9-1.41.9-3.78 0-5.19-2.29-3.6-5.58-5.68-9.11-5.68-3.53 0-6.82 2.08-9.11 5.68a5.33 5.33 0 000 5.19c2.29 3.6 5.58 5.68 9.11 5.68z"/></g></symbol><symbol id="facebook"><path d="M24 12.07C24 5.41 18.63 0 12 0S0 5.41 0 12.07C0 18.1 4.39 23.09 10.12 24v-8.44H7.07v-3.49h3.05V9.41c0-3.03 1.79-4.7 4.53-4.7 1.31 0 2.69.24 2.69.24v2.97h-1.51c-1.49 0-1.96.93-1.96 1.89v2.26h3.33l-.53 3.49h-2.8V24c5.74-.91 10.12-5.9 10.12-11.93z"/></symbol><symbol id="file" viewBox="0 0 24 24"><g fill="none"><path d="M15 2.4V6c0 .66.54 1.2 1.2 1.2h3.6m-11.4 0h2.4m-2.4 3.6h7.2m-7.2 3.6h7.2M18 4.2a26.53 26.53 0 01-1.44-1.41 1.23 1.23 0 00-.89-.39H6.6a2.4 2.4 0 00-2.4 2.4v14.4a2.4 2.4 0 002.4 2.4h10.8a2.4 2.4 0 002.4-2.4V6.48c0-.3-.12-.6-.33-.82A34.3 34.3 0 0018 4.2z"/></g></symbol><symbol id="filter" viewBox="0 0 24 24"><g fill="none"><path d="M6.6 12h10.8M4.2 7.2h15.6m-9.6 9.6h3.6"/></g></symbol><symbol id="globe" viewBox="0 0 24 24"><path fill="none" d="M9.74 2.26a33.16 33.16 0 000 19.48m4.5-19.5a33.23 33.23 0 010 19.5m-12-7.48a33.16 33.16 0 0019.48 0M2.26 9.74a33.23 33.23 0 0119.5 0M22 12A10 10 0 1112 2a10 10 0 0110 10z"/></symbol><symbol id="grid" viewBox="0 0 24 24"><g fill="none"><path d="M19.47 2.4c1.17 0 2.13.94 2.13 2.1v3.6c0 1.16-.96 2.1-2.13 2.1h-3.2a2.12 2.12 0 01-2.14-2.1V4.5c0-1.16.96-2.1 2.14-2.1h3.2zm-14.94 0c-1.17 0-2.13.94-2.13 2.1v3.6c0 1.16.96 2.1 2.13 2.1h3.2c1.18 0 2.14-.94 2.14-2.1V4.5c0-1.16-.96-2.1-2.14-2.1h-3.2zm14.94 11.4c1.17 0 2.13.94 2.13 2.1v3.6c0 1.16-.96 2.1-2.13 2.1h-3.2a2.12 2.12 0 01-2.14-2.1v-3.6c0-1.16.96-2.1 2.14-2.1h3.2zm-14.94 0c-1.17 0-2.13.94-2.13 2.1v3.6c0 1.16.96 2.1 2.13 2.1h3.2c1.18 0 2.14-.94 2.14-2.1v-3.6c0-1.16-.96-2.1-2.14-2.1h-3.2z"/></g></symbol><symbol id="home" viewBox="0 0 24 24"><g fill="none"><path d="M2.4 9.24c0-.39.2-.76.54-.99l8.32-5.62c.44-.3 1.04-.3 1.48 0l8.32 5.62c.34.23.54.6.54 1v10.52c0 1.01-.86 1.83-1.92 1.83H4.32a1.87 1.87 0 01-1.92-1.83V9.24z"/></g></symbol><symbol id="image" viewBox="0 0 24 24"><path fill="none" d="M2.88 20.5A4 4 0 006 22h12a4 4 0 004-4v-.5m-19.12 3A4 4 0 012 18V6a4 4 0 014-4h12a4 4 0 014 4v11.5m-19.12 3L8.5 15l2.5 2.5 5-5.5 6 5.5M10 8a2 2 0 11-2-2 2 2 0 012 2z"/></symbol><symbol id="instagram"><path d="M12.01 2.16c3.21 0 3.59.01 4.85.07 1.17.05 1.81.25 2.23.41.56.22.96.48 1.38.9.42.42.68.82.9 1.38.16.42.36 1.06.41 2.23.06 1.27.07 1.65.07 4.85s-.01 3.59-.07 4.85c-.05 1.17-.25 1.81-.41 2.23-.22.56-.48.96-.9 1.38-.42.42-.82.68-1.38.9-.42.16-1.06.36-2.23.41-1.27.06-1.65.07-4.85.07s-3.59-.01-4.85-.07c-1.17-.05-1.81-.25-2.23-.41-.56-.22-.96-.48-1.38-.9-.42-.42-.68-.82-.9-1.38-.16-.42-.36-1.06-.41-2.23-.06-1.27-.07-1.65-.07-4.85s.01-3.59.07-4.85c.05-1.17.25-1.81.41-2.23.22-.56.48-.96.9-1.38s.82-.68 1.38-.9c.42-.16 1.06-.36 2.23-.41 1.26-.06 1.64-.07 4.85-.07zm0-2.16C8.75 0 8.34.01 7.06.07 5.78.13 4.91.33 4.15.63c-.79.31-1.46.72-2.13 1.39A5.99 5.99 0 00.63 4.14c-.3.76-.5 1.64-.56 2.91C.01 8.33 0 8.74 0 12s.01 3.67.07 4.95c.06 1.28.26 2.15.56 2.91.31.79.72 1.46 1.39 2.13.67.67 1.34 1.08 2.12 1.38.76.3 1.64.5 2.91.56 1.28.06 1.69.07 4.95.07s3.67-.01 4.95-.07c1.28-.06 2.15-.26 2.91-.56.79-.3 1.46-.72 2.12-1.38s1.08-1.34 1.38-2.12c.3-.76.5-1.64.56-2.91.06-1.28.07-1.69.07-4.95s-.01-3.67-.07-4.95c-.06-1.28-.26-2.15-.56-2.91-.3-.8-.7-1.47-1.37-2.13A5.827 5.827 0 0019.87.64c-.76-.3-1.64-.5-2.91-.56C15.67.02 15.27 0 12.01 0z"/><path d="M12.01 5.84c-3.41 0-6.17 2.76-6.17 6.17s2.76 6.17 6.17 6.17 6.17-2.76 6.17-6.17-2.76-6.17-6.17-6.17zm0 10.16c-2.21 0-4-1.79-4-4s1.79-4 4-4 4 1.79 4 4-1.79 4-4 4zM19.86 5.59c0 .8-.65 1.44-1.44 1.44s-1.44-.65-1.44-1.44.65-1.44 1.44-1.44 1.44.65 1.44 1.44z"/></symbol><symbol id="link-broken" viewBox="0 0 24 24"><g fill="none"><path d="M7.471 10.283l-2.233 2.234a4.451 4.451 0 00.047 6.343 4.45 4.45 0 003.18 1.352c1.22.009 2.329-.444 3.163-1.278l2.233-2.234m2.853-2.798l2.234-2.233a4.45 4.45 0 00-.047-6.343A4.536 4.536 0 0015.72 4a4.405 4.405 0 00-3.162 1.278l-2.234 2.233M8.706 15.42l6.7-6.7M5.336 5.216L4.23 4.111m4.948-.843l.18-1.823M1.723 9.08l1.89-.187m15.33 9.612l1.105 1.106m-4.947.843l-.181 1.823m7.636-7.637l-1.89.188"/></g></symbol><symbol id="linkedin"><path d="M22.23 0H1.77A1.772 1.772 0 000 1.77v20.46A1.772 1.772 0 001.77 24h20.46A1.772 1.772 0 0024 22.23V1.77A1.772 1.772 0 0022.23 0zM7.15 20.44H3.54V8.98h3.61v11.46zM5.34 7.39c-.41 0-.81-.13-1.15-.35-.34-.23-.6-.55-.76-.93-.15-.38-.19-.8-.11-1.2a2.065 2.065 0 011.63-1.62c.4-.08.82-.04 1.2.12s.7.42.93.76c.23.34.35.74.35 1.15 0 .27-.05.55-.15.8-.1.25-.26.48-.45.68-.19.19-.43.35-.68.45-.25.1-.53.15-.8.15zm15.11 13.06h-3.61v-6.26c0-1.85-.78-2.42-1.8-2.42-1.07 0-2.12.81-2.12 2.46v6.22H9.31V8.99h3.47v1.59h.05c.35-.7 1.57-1.91 3.43-1.91 2.01 0 4.19 1.19 4.19 4.69v7.09z"/></symbol><symbol id="list" viewBox="0 0 24 24"><g fill="none"><path d="M8.72 6H21.6M8.72 12.48H21.6M8.72 18.96H21.6M3.6 6v.01m0 6.47v.01m0 6.47v.01"/></g></symbol><symbol id="lock" viewBox="0 0 24 24"><g fill="none"><path d="M6.6 8.8v-.91C6.6 4.85 9 2.4 12 2.4c3 0 5.4 2.45 5.4 5.49v.91m-10.8 0c-.99 0-1.8.82-1.8 1.83v9.14c0 1 .81 1.83 1.8 1.83h10.8c.99 0 1.8-.82 1.8-1.83v-9.14c0-1-.81-1.83-1.8-1.83m-10.8 0h10.8M12 13.37c.99 0 1.8.82 1.8 1.83 0 1-.81 1.83-1.8 1.83s-1.8-.82-1.8-1.83c0-1 .81-1.83 1.8-1.83z"/></g></symbol><symbol id="marker" viewBox="0 0 24 24"><g fill="none"><path d="M12 21.6s7.51-6.68 7.51-11.69a7.51 7.51 0 10-15.02 0C4.49 14.92 12 21.6 12 21.6z"/><path d="M14.4 9.6a2.4 2.4 0 11-4.8 0 2.4 2.4 0 014.8 0z"/></g></symbol><symbol id="media-strip" viewBox="0 0 24 24"><g fill="none"><path d="M7.2 21V3m9.6 18V3M2.4 12h19.2M2.4 7.2h4.8m9.6 0h4.8M2.4 16.8h4.8m9.6 0h4.8M2.4 18V6A3.6 3.6 0 016 2.4h12A3.6 3.6 0 0121.6 6v12a3.6 3.6 0 01-3.6 3.6H6A3.6 3.6 0 012.4 18z"/></g></symbol><symbol id="menu" viewBox="0 0 24 24"><g fill="none"><path d="M21.6 19.2H2.4M21.6 12H2.4m19.2-7.2H2.4"/></g></symbol><symbol id="microphone" viewBox="0 0 24 24"><g fill="none"><path d="M4.4 11.18a7.68 7.68 0 007.6 6.57m0 0a7.68 7.68 0 007.6-6.57M12 17.75v3.85m0-19.2a3.3 3.3 0 00-3.29 3.3v4.38a3.3 3.3 0 106.58 0V5.69A3.3 3.3 0 0012 2.4z"/></g></symbol><symbol id="search" viewBox="0 0 24 24"><g fill="none"><path d="M16.93 17.04l3.47 3.36m-1.12-8.96a7.84 7.84 0 11-15.68 0 7.84 7.84 0 0115.68 0z"/></g></symbol><symbol id="twitter"><path d="M0 12v10c0 1.1.9 2 2 2h20c1.1 0 2-.9 2-2V12 2c0-1.1-.9-2-2-2H2C.9 0 0 .9 0 2v10zm0 0v6c.01-3.29.01-8.69.01-11.99v6zm4.91-7.11c.05.07 1.17 1.7 2.49 3.62 1.32 1.92 2.54 3.7 2.71 3.95.17.25.31.46.31.47s-.06.09-.14.18c-.08.09-.3.35-.49.57-.19.22-.51.6-.72.83-.2.24-.56.65-.79.92-.23.27-.65.76-.93 1.08-.86 1.01-.99 1.15-1.65 1.92-.35.41-.69.8-.75.87-.06.07-.11.13-.11.14 0 .01.22.02.62.02h.62l.68-.8c.38-.44.75-.87.82-.96.17-.19 1.44-1.68 1.55-1.8.04-.05.1-.12.13-.15.03-.04.28-.33.56-.65.27-.32.51-.59.52-.6 0 0 .15-.18.32-.38s.31-.36.32-.36.87 1.25 1.92 2.79c1.05 1.53 1.93 2.81 1.95 2.85l.04.06h2.13c1.75 0 2.13 0 2.12-.02 0-.02-1.03-1.51-3.65-5.33-1.89-2.75-2.14-3.12-2.13-3.14 0-.02.26-.32 1.95-2.29.29-.34.69-.8.89-1.03.2-.23.4-.46.45-.52.05-.05.29-.34.54-.63.25-.29.68-.79.95-1.11.27-.32.5-.59.52-.6.02-.03-.01-.03-.61-.03h-.63l-.28.33c-.37.44-1.05 1.22-1.24 1.44-.08.1-.19.22-.24.27-.04.05-.13.15-.2.23-.06.07-.38.44-.7.82-.32.38-.59.69-.6.7s-.07.08-.15.18c-.14.16-.28.33-.93 1.08-.28.33-.3.34-.32.31-.01-.02-.85-1.23-1.85-2.7L9.08 4.76H4.8l.09.13zm1.67.87l.89 1.27c.9 1.28 4.42 6.33 6.68 9.57.72 1.04 1.32 1.89 1.34 1.91.02.02.23.02.98.02h.97l-2.53-3.62c-1.39-1.99-3.4-4.87-4.47-6.4L8.5 5.73H6.56l.03.04z" fill-rule="evenodd"/></symbol><symbol id="user-profile" viewBox="0 0 24 24"><g fill="none"><path d="M3.24 19.5c1.32-2.21 4.23-3.72 8.76-3.72 4.53 0 7.44 1.5 8.76 3.72M15.6 8.1a3.6 3.6 0 11-7.2 0 3.6 3.6 0 017.2 0z"/></g></symbol><symbol id="youtube"><path d="M23.5 6.15c-.14-.51-.4-.98-.78-1.36-.37-.38-.84-.65-1.35-.79-1.88-.51-9.38-.51-9.38-.51s-7.5 0-9.38.51c-.51.14-.97.41-1.35.79-.37.38-.64.85-.78 1.36C0 8.05 0 12 0 12s0 3.95.5 5.85c.14.51.4.98.78 1.36.37.38.84.65 1.35.79 1.88.51 9.38.51 9.38.51s7.5 0 9.38-.51c.51-.14.97-.41 1.35-.79.37-.38.64-.85.78-1.36.5-1.89.5-5.85.5-5.85s0-3.95-.5-5.85zM15.82 12L9.55 8.41v7.18L15.82 12z" fill-rule="evenodd"/></symbol></svg>