<svg xmlns="http://www.w3.org/2000/svg" width="80" height="80" fill="none"><g clip-path="url(#a)"><path fill="#388CC8" d="M32.96.16c-.6.25-1.39.9-1.64 1.39-.3.61-1.17 3.7-1.17 4.25 0 .9 1.14 1.4 1.86.78.2-.17.49-.87.8-2.06.28-.98.6-1.9.75-2 .19-.14 1.72-.19 6.44-.19 4.72 0 6.25.05 6.44.19.25.2 4.14 13.83 3.98 13.97-.06.08-19.97-2.75-20.08-2.84-.03-.02.1-.57.26-1.2.41-1.44.41-1.91.02-2.3-.44-.44-1.31-.43-1.66.03-.14.2-4.17 14.39-8.95 31.53L11.3 72.9l-4.46.08c-4.96.1-4.92.08-5.97 1.23a3.42 3.42 0 0 0-.72 3.38c.22.8 1.45 2.03 2.28 2.25.4.12 9.64.17 29.68.17 29.04 0 29.07 0 29.41-.31.47-.44.47-1.28 0-1.72-.34-.31-.37-.31-29.38-.31H3.1l-.38-.4c-.22-.2-.39-.56-.39-.78 0-.21.17-.57.4-.78l.37-.39h73.8l.37.4c.5.48.5 1.07 0 1.56l-.37.39H65.93l-.38.39c-.5.48-.5 1.07 0 1.56l.38.39h5.5c3.87 0 5.69-.06 6.14-.19.39-.12.92-.48 1.34-.9a3.27 3.27 0 0 0 .2-4.7c-1-1.15-1-1.15-5.96-1.24l-4.46-.08-9.72-34.85a9345.59 9345.59 0 0 0-9.99-35.66 3.18 3.18 0 0 0-1.71-2.1C46.69.02 46.12-.02 40 0c-4 0-6.8.07-7.04.16Zm7.88 17.4c5.67.82 10.33 1.52 10.36 1.56.1.09 3.91 13.76 3.86 13.83-.04.04-28.85-4.07-28.96-4.15-.04-.04 3.41-12.54 3.54-12.75.03-.06.25-.08.48-.03l10.72 1.55Zm.24 15.8a852.8 852.8 0 0 1 14.69 2.2c.04.04.73 2.39 1.51 5.18 1.05 3.74 1.38 5.13 1.24 5.16-.17.05-34.56-4.84-35.5-5.05-.3-.07-.3-.22.97-4.72.72-2.54 1.35-4.73 1.4-4.84.04-.16.23-.19.57-.13l15.12 2.2Zm-.25 12.43a1177.8 1177.8 0 0 1 18.58 2.77c.08.1 3.45 12.05 3.81 13.52.08.3.05.4-.1.35-.13-.04-10.04-1.48-22.03-3.21a2163.62 2163.62 0 0 1-22.2-3.25l-.4-.11 1.67-6.02 1.79-6.38c.04-.18.15-.34.23-.34.1 0 8.47 1.2 18.65 2.67Zm.2 15.79 22.99 3.32 1.05 3.75c.57 2.08 1.07 3.9 1.12 4.04.08.26-1.23.28-26.18.28a4610 4610 0 0 1-26.27-.05c0-.06 3.85-13.88 4-14.38.05-.14.13-.26.19-.26.06-.02 10.46 1.48 23.1 3.3Z"/><path fill="#fff" d="m41.03 61.58 22.99 3.32 1.05 3.75c.57 2.08 1.07 3.9 1.12 4.04.08.26-1.23.28-26.18.28a4610 4610 0 0 1-26.27-.05c0-.06 3.85-13.88 4-14.38.05-.14.13-.26.19-.26.06-.02 10.46 1.48 23.1 3.3Zm-.2-15.78c10.15 1.46 18.52 2.71 18.58 2.76.08.1 3.45 12.05 3.81 13.52.08.3.05.4-.1.35-.13-.04-10.04-1.48-22.03-3.21a2163.62 2163.62 0 0 1-22.2-3.25l-.4-.11 1.67-6.02 1.79-6.38c.04-.18.15-.34.23-.34.1 0 8.47 1.2 18.65 2.67Zm.25-12.45a852.8 852.8 0 0 1 14.69 2.2c.04.05.73 2.4 1.51 5.2 1.05 3.73 1.38 5.12 1.24 5.15-.17.05-34.56-4.84-35.5-5.05-.3-.07-.3-.22.97-4.72.72-2.54 1.35-4.73 1.4-4.84.04-.16.23-.19.57-.13l15.12 2.2Zm-.24-15.78c5.67.81 10.33 1.51 10.36 1.55.1.09 3.91 13.76 3.86 13.83-.04.04-28.85-4.07-28.96-4.15-.04-.04 3.41-12.54 3.54-12.75.03-.06.25-.08.48-.03l10.72 1.55Z"/></g><defs><clipPath id="a"><path fill="#fff" d="M0 0h80v80H0z"/></clipPath></defs></svg>