<svg xmlns="http://www.w3.org/2000/svg" xmlns:xlink="http://www.w3.org/1999/xlink" width="24" height="24"><defs><linearGradient id="a" x1="11.99" x2="11.99" y1="26.75" y2=".75" gradientTransform="matrix(1 0 0 -1 0 26)" gradientUnits="userSpaceOnUse"><stop offset="0" stop-color="#fca759"/><stop offset=".19" stop-color="#e82d56"/><stop offset=".74" stop-color="#a22db4"/><stop offset="1" stop-color="#643dce"/></linearGradient><linearGradient xlink:href="#a" id="c" x1="11.75" x2="11.75"/><linearGradient xlink:href="#a" id="d" x1="18.41" x2="18.41"/><clipPath id="b" transform="translate(.01)"><path fill="none" d="M0 0h24v24H0z"/></clipPath></defs><g clip-path="url(#b)"><path fill="url(#a)" d="M12 2.16c3.2 0 3.59 0 4.85.07a6.61 6.61 0 0 1 2.22.41 3.75 3.75 0 0 1 1.38.9 3.75 3.75 0 0 1 .9 1.38 6.48 6.48 0 0 1 .4 2.22c.07 1.27.08 1.65.08 4.85s0 3.59-.07 4.85a6.71 6.71 0 0 1-.41 2.22 4 4 0 0 1-2.28 2.28 6.71 6.71 0 0 1-2.22.41c-1.27.06-1.65.07-4.85.07s-3.59 0-4.85-.07a6.71 6.71 0 0 1-2.22-.41 3.71 3.71 0 0 1-1.38-.9 3.71 3.71 0 0 1-.9-1.38 6.46 6.46 0 0 1-.4-2.22c-.07-1.62-.1-3.23-.08-4.85 0-3.2 0-3.59.07-4.85a6.61 6.61 0 0 1 .41-2.22 3.75 3.75 0 0 1 .9-1.38 3.71 3.71 0 0 1 1.38-.9 6.46 6.46 0 0 1 2.22-.4c1.26-.07 1.64-.08 4.85-.08ZM12 0C8.74 0 8.33 0 7.05.07a8.73 8.73 0 0 0-2.9.56A5.65 5.65 0 0 0 2 2 5.9 5.9 0 0 0 .62 4.14a8.78 8.78 0 0 0-.55 2.91C0 8.7 0 10.35 0 12c0 3.26 0 3.67.07 5a8.64 8.64 0 0 0 .56 2.9A5.65 5.65 0 0 0 2 22a5.88 5.88 0 0 0 2.12 1.39 8.54 8.54 0 0 0 2.91.55C8.33 24 8.74 24 12 24s3.66 0 4.94-.07a8.79 8.79 0 0 0 2.91-.56 6.15 6.15 0 0 0 3.51-3.51 8.71 8.71 0 0 0 .56-2.86c0-1.28.07-1.69.07-4.95s0-3.66-.07-4.94a8.79 8.79 0 0 0-.56-2.91A5.51 5.51 0 0 0 22 2 5.88 5.88 0 0 0 19.86.63 8.79 8.79 0 0 0 17 .07C15.67 0 15.25 0 12 0Z" transform="translate(.01)"/><path fill="url(#c)" d="M12 5.84a6.17 6.17 0 0 0-.5 12.33h.5a6.17 6.17 0 0 0 0-12.33ZM12 16a4 4 0 1 1 4-4 4 4 0 0 1-4 4Z" transform="translate(.01)"/><path fill="url(#d)" d="M19.85 5.6a1.44 1.44 0 0 1-2.85 0 1.44 1.44 0 0 1 2.88 0Z" transform="translate(.01)"/></g></svg>