<svg xmlns="http://www.w3.org/2000/svg" width="24" height="24" viewBox="0 0 24 24"><path d="m12.01,2.16c3.21,0,3.59.01,4.85.07,1.17.05,1.81.25,2.23.41.56.22.96.48,1.38.9.42.42.68.82.9,1.38.16.42.36,1.06.41,2.23.06,1.27.07,1.65.07,4.85s-.01,3.59-.07,4.85c-.05,1.17-.25,1.81-.41,2.23-.22.56-.48.96-.9,1.38-.42.42-.82.68-1.38.9-.42.16-1.06.36-2.23.41-1.27.06-1.65.07-4.85.07s-3.59-.01-4.85-.07c-1.17-.05-1.81-.25-2.23-.41-.56-.22-.96-.48-1.38-.9-.42-.42-.68-.82-.9-1.38-.16-.42-.36-1.06-.41-2.23-.06-1.27-.07-1.65-.07-4.85s.01-3.59.07-4.85c.05-1.17.25-1.81.41-2.23.22-.56.48-.96.9-1.38s.82-.68,1.38-.9c.42-.16,1.06-.36,2.23-.41,1.26-.06,1.64-.07,4.85-.07Zm0-2.16c-3.26,0-3.67.01-4.95.07-1.28.06-2.15.26-2.91.56-.79.31-1.46.72-2.13,1.39-.67.67-1.08,1.34-1.39,2.12-.3.76-.5,1.64-.56,2.91-.06,1.28-.07,1.69-.07,4.95s.01,3.67.07,4.95c.06,1.28.26,2.15.56,2.91.31.79.72,1.46,1.39,2.13.67.67,1.34,1.08,2.12,1.38.76.3,1.64.5,2.91.56,1.28.06,1.69.07,4.95.07s3.67-.01,4.95-.07c1.28-.06,2.15-.26,2.91-.56.79-.3,1.46-.72,2.12-1.38s1.08-1.34,1.38-2.12c.3-.76.5-1.64.56-2.91.06-1.28.07-1.69.07-4.95s-.01-3.67-.07-4.95c-.06-1.28-.26-2.15-.56-2.91-.3-.8-.7-1.47-1.37-2.13-.67-.67-1.34-1.08-2.12-1.38-.76-.3-1.64-.5-2.91-.56-1.29-.06-1.69-.08-4.95-.08Z"/><path d="m12.01,5.84c-3.41,0-6.17,2.76-6.17,6.17s2.76,6.17,6.17,6.17,6.17-2.76,6.17-6.17-2.76-6.17-6.17-6.17Zm0,10.16c-2.21,0-4-1.79-4-4s1.79-4,4-4,4,1.79,4,4-1.79,4-4,4Z"/><path d="m19.86,5.59c0,.8-.65,1.44-1.44,1.44s-1.44-.65-1.44-1.44.65-1.44,1.44-1.44,1.44.65,1.44,1.44Z"/></svg>
