<svg xmlns="http://www.w3.org/2000/svg" width="24" height="24" viewBox="0 0 24 24"><path d="m0,12v10c0,1.1.9,2,2,2h10s10,0,10,0c1.1,0,2-.9,2-2v-10s0-10,0-10c0-1.1-.9-2-2-2H2C.9,0,0,.9,0,2v10Zm0,0c0,6.6,0,9.3,0,6C.01,14.71.01,9.31.01,6.01c0-3.3,0-.6,0,6Zm4.91-7.11c.05.07,1.17,1.7,2.49,3.62,1.32,1.92,2.54,3.7,2.71,3.95.17.25.31.46.31.47s-.06.09-.14.18c-.08.09-.3.35-.49.57-.19.22-.51.6-.72.83-.2.24-.56.65-.79.92-.23.27-.65.76-.93,1.08-.86,1.01-.99,1.15-1.65,1.92-.35.41-.69.8-.75.87-.06.07-.11.13-.11.14,0,.01.22.02.62.02h.62l.68-.8c.38-.44.75-.87.82-.96.17-.19,1.44-1.68,1.55-1.8.04-.05.1-.12.13-.15.03-.04.28-.33.56-.65.27-.32.51-.59.52-.6,0,0,.15-.18.32-.38.17-.2.31-.36.32-.36s.87,1.25,1.92,2.79c1.05,1.53,1.93,2.81,1.95,2.85l.04.06h2.13c1.75,0,2.13,0,2.12-.02,0-.02-1.03-1.51-3.65-5.33-1.89-2.75-2.14-3.12-2.13-3.14,0-.02.26-.32,1.95-2.29.29-.34.69-.8.89-1.03.2-.23.4-.46.45-.52.05-.05.29-.34.54-.63.25-.29.68-.79.95-1.11.27-.32.5-.59.52-.6.02-.03-.01-.03-.61-.03h-.63l-.28.33c-.37.44-1.05,1.22-1.24,1.44-.08.1-.19.22-.24.27-.04.05-.13.15-.2.23-.06.07-.38.44-.7.82-.32.38-.59.69-.6.7s-.07.08-.15.18c-.14.16-.28.33-.93,1.08-.28.33-.3.34-.32.31-.01-.02-.85-1.23-1.85-2.7l-1.83-2.66h-2.14s-2.14,0-2.14,0l.09.13Zm1.67.87s.42.6.89,1.27c.9,1.28,4.42,6.33,6.68,9.57.72,1.04,1.32,1.89,1.34,1.91.02.02.23.02.98.02h.97s-2.53-3.62-2.53-3.62c-1.39-1.99-3.4-4.87-4.47-6.4l-1.94-2.78h-.97s-.97,0-.97,0l.03.04Z" fill-rule="evenodd"/></svg>