<svg xmlns="http://www.w3.org/2000/svg" width="24" height="24" viewBox="0 0 24 24"><path d="m23.5,6.15c-.14-.51-.4-.98-.78-1.36-.37-.38-.84-.65-1.35-.79-1.88-.51-9.38-.51-9.38-.51,0,0-7.5,0-9.38.51-.51.14-.97.41-1.35.79-.37.38-.64.85-.78,1.36C0,8.05,0,12,0,12c0,0,0,3.95.5,5.85.14.51.4.98.78,1.36.37.38.84.65,1.35.79,1.88.51,9.38.51,9.38.51,0,0,7.5,0,9.38-.51.51-.14.97-.41,1.35-.79.37-.38.64-.85.78-1.36.5-1.89.5-5.85.5-5.85,0,0,0-3.95-.5-5.85Zm-7.68,5.85l-6.27-3.59v7.18l6.27-3.59Z" fill-rule="evenodd"/></svg>
