<svg xmlns="http://www.w3.org/2000/svg" width="146.28" height="32"><path fill="#e3e1e0" d="m13.86 14.35-.04-.18-1.34-1.12.89.93.49.37zM20 17.44l.4.15v-.21l-.24-.07Zm-.36.26.72.34v-.23l-.57-.24Zm.64-4.97-.39.3-.24.41.63-.44Zm-.02 1.06-1.13.59a.11.11 0 0 0 0 .08v.07l1.12-.53.01-.21Zm.03-.51-.84.53-.16.3 1-.58Zm-.06 1.39-.83.26.09.13.74-.2Zm-.88 3.26 1 .59v-.25l-.87-.45Zm.89-3.68-1 .41a.57.57 0 0 0 .08.13l.91-.33a1.48 1.48 0 0 1 .01-.21ZM18.92 20a.27.27 0 0 0 .23.17l-.49-.63ZM17 19.81l.07.26h.18l-.09-.29c-.03-.05-.08-.04-.16.03Zm-.13.27Zm1.95-1.72 1.55 1.3v-.31l-1.43-1.09Zm.26-.21 1.28.9v-.27l-1.15-.73Zm-.73.65 1.12 1.34h.19l-1.26-1.43a.11.11 0 0 0-.05.09Zm.22-.23 1.57 1.57h.08c.09 0 .13 0 .14-.14l-1.67-1.53Zm1.74-1.42Zm1.32-3.77 4.68-2.19a1.74 1.74 0 0 0-1.15.05l-3.53 1.84ZM26 9.59a2.23 2.23 0 0 0 .53-.65 2.23 2.23 0 0 1-.53.65Zm-4.37 3.16 4.93-2.84a1.87 1.87 0 0 0-1.23.16l.13-.08-3.83 2.43Zm0-1.47 5.22-4.38a1.6 1.6 0 0 0-.65.1l.44-.39-5 4.43Zm0 .78 5.11-3.57a1.94 1.94 0 0 0-1.3.29l.09-.06-3.9 3ZM17.26 14v.22l3.32-4.72a1.09 1.09 0 0 1 .08-.15 3 3 0 0 1 .56-.77l2.33-3.34a2.05 2.05 0 0 0-1.28.92l-.32.49a2 2 0 0 1-.1.21Zm2.97 1.07-.64.14.09.14.56-.1a1.09 1.09 0 0 1-.01-.18Zm1.4-5.2v.5l5.68-5.69a2.26 2.26 0 0 0-1.89.68l-.42.45a2.53 2.53 0 0 1-.51.94Zm0-1.19v.61l3.48-4.14a2.23 2.23 0 0 0-1.47.85l-.41.55-.13.21Zm0 4.99V14l5.06-1.85a1.69 1.69 0 0 0-1.24 0l-.13.06Zm-1.39 1.78-.46.06.11.15h.34a1.09 1.09 0 0 0 .01-.21Zm1.39.31V16H32a2.2 2.2 0 0 0-1.81-.86h-.61a2.5 2.5 0 0 1-1 .3Zm-1.4.16v-.1H20l.12.17h.11Zm1.4-.66v.25l8.48-.74a2.2 2.2 0 0 0-1.65-.42l-.68.09-.25.05Zm-4.28-1.85-.05.33 4.8-8.3a1.91 1.91 0 0 0-1.1.96l-.24.45a1.43 1.43 0 0 1-.08.22Zm4.28 1.35V15l7.27-1.29a2 2 0 0 0-1.55-.25l-.56.12-.23.08Zm0-.53v.26l6.15-1.65a1.93 1.93 0 0 0-1.46-.11l-.48.15-.21.09ZM25.72 20Zm.12 0Zm-.26 0Zm1.73 7.31h-.26Zm-7.1-1.44Zm-.07-.09ZM26.27 20Zm-9.77-1.33a.11.11 0 0 0 0-.08l-.07-.16v.27Zm.68-4.07 1.29-1.53.17-.28.53-.9-2 2.55Zm-.04.26.64-.64.25-.42-.89 1Zm-.03.21.64-.54v-.06l-.62.54Zm.01 6.39c.08-.13 0-.19-.11-.18h-.08l.06.36Zm-.8-2.58.05-.06-.06-.45Zm.46 3.12-.09-.67h-.23l.09 1Zm.3-6.75.78-.55-.05-.08-.72.55ZM26.43 20Zm.13-.06Zm-.06.06Zm-.14 0Zm3.82-3.13-.04-.01.04.01zm-3.57 3.05ZM13.9 14.53zm-2.15 5.04-6.6 5.53a1.67 1.67 0 0 0 .66-.1l6.05-5.36Zm2.79 1.88-1.69 6.32a1.88 1.88 0 0 0 .75-1l1.19-5.37Zm.99-.11-.76 8.77a1.85 1.85 0 0 0 .4-.52l.51-8.26Zm2.56 1.32-.22.33 1.29 4.79a1.9 1.9 0 0 0 .1-1.46l-.15-.48a1.31 1.31 0 0 1-.08-.21Zm-5.35 3.65 1.53-4.83H14l-1.9 5.18a1.74 1.74 0 0 0 .78-.86l-.15.48a2.28 2.28 0 0 0 0 1.07 2.28 2.28 0 0 1 .01-1.04Zm4.32-2.19-.18.25-.14.19.49 5.55a2.22 2.22 0 0 0 .42-1.65l-.09-.68a1.84 1.84 0 0 1 0-.25Zm-.66 1.15H16V32a2.14 2.14 0 0 1-.46-.49A2.14 2.14 0 0 0 16 32a2.26 2.26 0 0 0 .87-1.82v-.6a2.84 2.84 0 0 1-.29-1Zm1.22-1.94-.13.18-.13.19.92 5.21h-.05.05a2.07 2.07 0 0 0 .26-1.55l-.13-.57a1.42 1.42 0 0 1-.07-.22Zm-3.92-1.79h-.3l-2.2 4.74a1.8 1.8 0 0 0 .9-.86.65.65 0 0 1 0-.13Zm1.35-.14-1.33 7.51a1.14 1.14 0 0 1-.1-.19 1.14 1.14 0 0 0 .1.19 2 2 0 0 0 .72-1.13v.15l.87-6.56Zm5.01 4.29Zm-6.99-4.08h-.33L9.9 26.55a1.88 1.88 0 0 0 1.1-.95l.23-.45.08-.21Zm-6.88.63a2.12 2.12 0 0 0-.93 1.28 2.12 2.12 0 0 1 .93-1.28Zm5.17-2.99-6.1 4.27a1.94 1.94 0 0 0 1.31-.3l5-3.81Zm1.01 2.43h-.38l-3.5 5a2.09 2.09 0 0 0 1.27-.93l.32-.48a2 2 0 0 1 .1-.21ZM12 20.39l.17-.5-7.48 7.42a2.22 2.22 0 0 0 1.9-.67l.4-.45H7a2.68 2.68 0 0 1 .52-.95Zm-.44 1.38h-.07l.24-.69-4.83 5.77A2.2 2.2 0 0 0 8.36 26l.42-.55.14-.23Zm6.94.28-.13.18-.07.11 1.59 4.35a1.75 1.75 0 0 0 0-1.24l-.06-.12Zm3.13-3.11v.31l4.93 2.85a1.88 1.88 0 0 0-1-1.11l-.44-.23-.12-.09Zm-10.69-.03-5.5 3.19a1.84 1.84 0 0 0 1.23-.17l-.49.31 5-3.16Zm10.69-1.13v.27l5.06 1.84a1.74 1.74 0 0 0-.85-.78l.47.16a2.49 2.49 0 0 0 .61.08 2.49 2.49 0 0 1-.61-.08Zm0 1.81V20l5.11 3.57a2.07 2.07 0 0 0-.92-1.27l-.49-.31a2.39 2.39 0 0 1-.22-.12Zm0-3.1 8.48.74a1.85 1.85 0 0 0-.52-.4l-8-.49Zm5.72 2.04-5.72-1.28v.26l6.15 1.65a1.87 1.87 0 0 0-1-.76l.56.13a2.44 2.44 0 0 0 1 0 2.49 2.49 0 0 1-.99 0Zm-5.72 1.8v.39l5.22 4.38a2.26 2.26 0 0 0-.85-1.46l-.55-.42-.21-.13Zm6.83-2.68-6.83-.9V17l7.27 1.28a2 2 0 0 0-1.12-.71l.67.09a2.43 2.43 0 0 0 1.63-.39 2.4 2.4 0 0 1-1.62.38Zm-6.83.69v.28l4.68 2.18a1.77 1.77 0 0 0-.86-.89h-.13Zm-2.47 3.02h-.06l3 5.19a1.84 1.84 0 0 0-.17-1.23l-2.52-4Zm-.47.42 2.11 4.53a1.74 1.74 0 0 0-.05-1.15l-1.88-3.63Z"/><path fill="#e3e1e0" d="M22.24 25.81 22 25.5l.2.32a2.2 2.2 0 0 0 1.21.9 2.17 2.17 0 0 1-1.17-.91Zm-2.49-4.45 3.77 5.38a1.94 1.94 0 0 0-.3-1.31l.42.55-3.53-4.61Zm.75.01 4.61 5.48a1.8 1.8 0 0 0-.11-.65l.4.45-4.67-5.28ZM23.65 26a2.3 2.3 0 0 0 1.45.87 2.3 2.3 0 0 1-1.45-.87Zm-2.02-4.83v.2h-.27l5.95 5.94a2.25 2.25 0 0 0-.67-1.9l-.46-.4a2.82 2.82 0 0 1-.93-.51Zm-16.98-7.7 4 .88-.13-.35-4.3-1.15a1.91 1.91 0 0 1 .66-.18 1.73 1.73 0 0 0-.66.19 1.88 1.88 0 0 0 1 .75l-.56-.13a2.93 2.93 0 0 0-.66 0 2.93 2.93 0 0 1 .65-.01Zm6.44-6.93L11 6.4a2.4 2.4 0 0 0-.18-.26 2.4 2.4 0 0 1 .18.26Zm4.02 2.61.25-.5-.59-6.76a2.25 2.25 0 0 0-.43 1.65l.09.68.06.25Zm-2.36-.09-1.56-3.37h.06-.06a1.76 1.76 0 0 0 .05 1.16L13 10.21Zm.9 4.28v-.19l-6.71-8A1.6 1.6 0 0 0 7 5.8l-.39-.44a2.25 2.25 0 0 0-1-.59 2.25 2.25 0 0 1 1 .59Zm-.37-3.92.43.29-1.6-4.4a1.71 1.71 0 0 0 0 1.25l.06.12Z"/><path fill="#e3e1e0" d="m8.36 6 5.17 6.75-.09-.43-4.95-7.06a1.94 1.94 0 0 0 .29 1.3L8.37 6a2.29 2.29 0 0 0-1.47-.86A2.34 2.34 0 0 1 8.36 6Zm1.4.18.15.24-.15-.24a2.61 2.61 0 0 0-.62-.62 2.61 2.61 0 0 1 .62.62Zm3.42 4.93L9.91 5.44a1.87 1.87 0 0 0 .16 1.23l3.26 5.12Zm.93-1.11.34.23-1.6-6a1.87 1.87 0 0 0-.11 1.46l.15.48.09.21Zm1.55-1.95.34-.68V0a2.26 2.26 0 0 0-.87 1.82v.6a2.68 2.68 0 0 1 .31 1Zm3.6-2.36-1.48 4.68v.22l-.13.92 2.26-6.2a1.74 1.74 0 0 0-.78.85l.15-.47a2.05 2.05 0 0 0-.06-1.34 2.12 2.12 0 0 1 .04 1.34Zm-2.04 3.42 1.06-6a1.9 1.9 0 0 1 .27.8 1.9 1.9 0 0 0-.27-.8 2 2 0 0 0-.72 1.13L17 8.64Zm.22.44.19.37 1.53-5.69a1.81 1.81 0 0 0-.76 1l.13-.56a2.19 2.19 0 0 0 0-.51 2.19 2.19 0 0 1 0 .51Zm.22-6.01a2.81 2.81 0 0 0-.09-1 2.81 2.81 0 0 1 .09 1Zm-.79-1.72A2.3 2.3 0 0 0 16 0a2.3 2.3 0 0 1 .87 1.82Z"/><path fill="#e3e1e0" d="m16.69 8.07.54-6.18a1.85 1.85 0 0 0-.4.52v-.6l-.32 5.89Zm-8.28 4.78 1.59.35-4.3-2a1.75 1.75 0 0 0 .85.9h.13Zm-.64 3.5L8.86 16H0a2.26 2.26 0 0 0 1.82.87h.6a2.49 2.49 0 0 1 1-.29Zm.77.65-.36-.28-6.28.54a2.2 2.2 0 0 0 1.65.42l.68-.09.25-.06Zm-6.72-1.87A2.33 2.33 0 0 0 0 16a2.33 2.33 0 0 1 1.82-.87Zm7.04.25-7-.61a1.81 1.81 0 0 0 .51.4h-.54l7.05.43Zm.33 2.12-.3-.25-5.8 1a2.09 2.09 0 0 0 1.55.26l.57-.13.23-.07Zm-.5-2.79-5.6-1a2 2 0 0 0 1.13.72l-.68-.1 5.24.67Zm1.57 3.66-.24-.2-4.71 1.72a1.75 1.75 0 0 0 1.24 0l.13-.06Zm-.5-.37-.27-.21-5.27 1.4a1.91 1.91 0 0 0 1.47.11l.47-.15.21-.15ZM11 12.82l.1-.24-5.84-4.1a2.1 2.1 0 0 0 .93 1.28l.48.31.22.11ZM13.78 14v-.23l-9-9a2.25 2.25 0 0 0 .67 1.9l.46.4a2.65 2.65 0 0 1 1 .51Zm-2.97-.71.1-.23L5.44 9.9A2 2 0 0 0 6.4 11l.45.23.21.09Zm.41-.97.1-.25L5.15 6.9A2.2 2.2 0 0 0 6 8.36l.55.41.22.14Zm-.72 6.24L5.69 20.8a1.73 1.73 0 0 0 1.15-.05l3.88-2Zm-4.66-5.77h-.15a2.5 2.5 0 0 0-.61-.09 2.5 2.5 0 0 1 .61.09Zm11.67-.42-.09.58 3.38-7.26a1.75 1.75 0 0 0-.89.85s0 .09 0 .13Zm-9.2.83-3-1.09a1.7 1.7 0 0 0 .85.77l2.25.72Zm6.37-3.2.19-.39-1.15-6.52a2.1 2.1 0 0 0-.25 1.55l.13.57a2.25 2.25 0 0 1 .08.24Zm2.65 6.93.67.47.09-.07-.84-.53Zm8.94-5.65Zm-9.08 5.4 1 .58.1-.08-1.15-.59Zm-.13-.23v.05l1.29.61h.07l-1.43-.6ZM12 6.43Zm5 9.94 1.58.57.11-.09-1.69-.54a.14.14 0 0 1 0 .06Zm9.25-5.05Zm-.06.11Zm.03-.06ZM11.87 6.22Zm.07.1Zm5.06 9.5 1.44-.25-.06-.1-1.38.3Zm9.14-4.32Zm.42-1.6a1.59 1.59 0 0 1-.33.58 1.59 1.59 0 0 0 .33-.58ZM17 15.91l1.59-.14-.06-.1-1.52.2Zm9.67-8.42a2.16 2.16 0 0 1-.22.36 2.16 2.16 0 0 0 .22-.36ZM27.33 5a1.85 1.85 0 0 1 0 .23 2 2 0 0 0 0-.23Zm-13.79.08ZM17 16.26l1.85.5.12-.09-2-.45a.09.09 0 0 1 .03.04Zm0-.09 2.08.37a.14.14 0 0 0 0-.11l-2-.27s-.08-.01-.08.01Zm0-.17h1.75l-.07-.11L17 16Zm0 .08 1.94.17-.06-.08-1.88-.11Zm8.88-4.3Zm1.85 1.14ZM11.32 5.75Zm-.06-.03ZM27.69 13ZM11.37 5.78Zm16.39 7.1ZM17.55 17.3l.28.23.08-.06-.48-.37Zm10.23-4.46Zm-10.05 4.77h-.05ZM10.82 6.12Zm15.27 5.44Zm-.09.15Zm-.21.15ZM20.8 6.72Zm5.2 4.91ZM5.3 8.48Zm20.39 3.46Zm.31.89Zm-.42-.83ZM11.79 6.13ZM6.31 20.06Zm-2.05-.97Zm1.95 1.05Zm-.21.22Zm0-.07ZM20 5.72s0 .01 0 0ZM4.31 19Zm1.6 1.44Zm12.3 8.41Zm1.68-23.54.06.15Zm.11.16v.06-.06Zm0 .16Zm0-.09ZM6.12 20.21ZM4.69 27.3a1.1 1.1 0 0 1 0-.26 1.1 1.1 0 0 0 0 .26Zm.75-5.2a1.84 1.84 0 0 1 .47-.75 1.84 1.84 0 0 0-.47.75Zm3.26 3.48Zm8.51 4.5Zm-2.08.1.01-.04-.01.04zm-9.27-9.67ZM17.16 30ZM5.77 20.63Zm.04-.06Zm-.06.11Zm-.02.04Zm-.02.04Zm11.35-5.37.91-.53a.35.35 0 0 1 0-.08l-.85.54ZM13.8 3.15ZM20 6.41Zm-3 9.32 1.31-.35-.06-.09-1.25.39ZM13.75 3.11Zm3.48 27ZM17 15.63l1.18-.43-.06-.08-1.12.45Zm0-.12 1.09-.51H18l-1 .5Zm3-9.7s0 .02 0 0ZM3.09 18.27v-.05Zm.06-.06ZM20 6Zm0 .15ZM3.35 14.34a.61.61 0 0 1 .19 0ZM20 6.28Z"/><path fill="#a3a2a1" d="m16.17 7 .33.66.36-5.88A2.29 2.29 0 0 0 16 0v7.37Zm-2.52 6.34-7.06-8a2.25 2.25 0 0 0-1-.59 2 2 0 0 0-.92-.08l9.05 9ZM9 16l-.09-.38-7-.43h-.1A2.27 2.27 0 0 0 0 16h8.86Zm2.86 3.66L5.81 25l-.45.4a2.27 2.27 0 0 0-.69 1.63 1.06 1.06 0 0 0 0 .25l7.43-7.44ZM16 32v-6.73h-.28l.1-4h-.14l-.51 8.26v.56a2.27 2.27 0 0 0 .41 1.33A2 2 0 0 0 16 32Zm4.75-10.63 4.66 5.27a2.29 2.29 0 0 0 1.63.69 1.23 1.23 0 0 0 .27 0l-5.94-5.94ZM18.4 18.7l1.26 1.43h.48l-1.57-1.56ZM32 16H21.63v.34l8 .49h.55A2.29 2.29 0 0 0 32 16Zm-15 .06 1.88.11-.16-.17H17Zm3.16-.06h.07-.11Zm1.47-5 5-4.43a2.35 2.35 0 0 0 .68-1.4 1.93 1.93 0 0 0 0-.23 1.23 1.23 0 0 0 0-.27l-5.68 5.69Zm-4.51 4 .61-.54a.38.38 0 0 1 0-.24l-.63.63Zm-1.46-6.95-.2-4.61a2.5 2.5 0 0 0-.3-1l-.06-.14a1.74 1.74 0 0 0-.3-.37l.59 6.76Zm-4.27 3.86 1.09 1.14 1.34 1.12v-.21l-7-6.47A2.53 2.53 0 0 0 5.8 7a1.77 1.77 0 0 0-.64-.09l6.17 5.18Zm-3.62 4.44-4.32.19a2.73 2.73 0 0 0-1 .29 1.93 1.93 0 0 0-.53.41l6.29-.55ZM12 20.39l-4.5 4.87a2.53 2.53 0 0 0-.5.94 1.74 1.74 0 0 0-.09.64l4.83-5.75Zm4.55 1.91-.09-1h-.11v1.26Zm-.13 2.7v.21l.15 3.29a2.67 2.67 0 0 0 .3 1 1.76 1.76 0 0 0 .32.45l-.47-5.54Zm5.21-3.83 3.63 3.33a2.75 2.75 0 0 0 .93.52 1.85 1.85 0 0 0 .66.09l-5.22-4.39Zm-2.94-2.7L20.36 20v-.34l-1.54-1.29Zm-.99-.9.09-.07-.29-.24Z"/><path fill="#a3a2a1" d="m17 16 1.68-.07v-.12l-1.68.1Zm4.63-.24 6.93-.3a2.49 2.49 0 0 0 1-.29 1.85 1.85 0 0 0 .52-.4l-8.48.74Zm-1.4-.13h-.34l.11.17h.23Zm1.4-5.76 2.87-3.13a2.55 2.55 0 0 0 .5-.94 1.8 1.8 0 0 0 .09-.65l-3.46 4.14Zm-4.47 4.87.88-1 .41-.68-1.3 1.54Zm-2.29-5.13.24-.46-.62-4.68a1.84 1.84 0 0 0-.05-.25 2.23 2.23 0 0 0-.59-1Zm-3.65 2.71-4.44-3.4a1.35 1.35 0 0 0-.22-.14 2.22 2.22 0 0 0-1.07-.31h-.22l5.84 4.11Zm2.68 2.21-.04-.18-.49-.37.53.55zM8.54 17l-4.07.54h-.25a2.23 2.23 0 0 0-1 .59v.05l5.79-1Zm3.02 4.77-2.64 3.45a2.22 2.22 0 0 0-.15.23l-.06.11a2 2 0 0 0-.22 1.16l3.51-5Zm5.44-.13-.07-.36h-.24l.08.66Zm-.63-2.82.11-.13-.05-.27-.12-.26v.21Zm.99 4.87-.3.43.45 3.4a1.84 1.84 0 0 0 0 .25 2.27 2.27 0 0 0 .59 1h.05Zm.02-6.69.05.08.48.37.09-.05-.67-.47Zm4.25 3.33 3.59 2.76.21.13a2 2 0 0 0 1.31.29L21.63 20Zm-2.69-2.06 1.43 1.09v-.3l-1.29-.91Zm2.69-3.01 5.9-.77.25-.06a2.05 2.05 0 0 0 1.13-.71L21.63 15Zm-1.4-.01-.55.1.07.1v.05l.46-.06c.03-.06.02-.12.02-.19Zm-3.23.62 1.52-.2-.07-.1-1.45.26Zm4.25-7.33.3-.25h.09v.23a.37.37 0 0 1 0 .18l1.46-1.9a2.39 2.39 0 0 0 .13-.21 2 2 0 0 0 .29-1.31L21.17 8.6Zm-2.09 3.35.18-.3.41-.73.5-.84.29-.5-3.31 4.72v.2Zm-4.62-1.62.13-.27-1-4.56c0-.09-.05-.17-.07-.24a1.17 1.17 0 0 0-.05-.11 1.84 1.84 0 0 0-.7-.86l1.61 6ZM11 12.82l-4.12-2.64-.22-.11a1.9 1.9 0 0 0-1.22-.17l5.47 3.16Zm-1.51 4.93-.3-.24-3.75.83-.24.07a2.14 2.14 0 0 0-.89.63v.05Zm2.88 3.93-2.2 3.44-.1.2a2 2 0 0 0-.17 1.24l2.84-4.91ZM17.85 23a3.71 3.71 0 0 1-.23.32l.71 3.23c0 .08.05.16.07.23a2 2 0 0 0 .76 1L17.87 23Zm-.96-3h.2l-.09-.18Zm.36-3.2.84.53.09-.07-1-.58a.34.34 0 0 0 .07.12Zm1.96 1.25 1.15.73v-.26l-1-.59Zm2.42 1.54 3.49 2.23.22.11a1.85 1.85 0 0 0 1.22.16l-4.93-2.84Zm0-4.83 4.93-1.09.23-.07a2 2 0 0 0 .86-.59l-6.13 1.64ZM17 15.78l1.38-.31-.06-.09-1.32.35Zm3.23-.91-.74.2.09.14.65-.14ZM17.26 14l4.56-7.14a2.12 2.12 0 0 0 .11-.21 1.92 1.92 0 0 0 .17-1.23l-4.8 8.3Zm-3.15-4L13 6.37a1 1 0 0 0-.08-.21 1.79 1.79 0 0 0-.78-.85l1.6 4.39Zm-3.33 3.37v-.08l-3.76-2-.21-.08a1.82 1.82 0 0 0-1.13-.07l4.3 2ZM9.76 18l-3.39 1-.2.09a1.77 1.77 0 0 0-.86.78l4.69-1.7Zm3.31 3.61L11.33 25a1.19 1.19 0 0 0-.08.2 1.78 1.78 0 0 0-.06 1.16l2.21-4.73Zm4.37-1.56-.23-.25.1.29h.13Zm.65 2.61.93 3 .09.2a1.75 1.75 0 0 0 .77.86l-1.58-4.38Zm1.4-4.84.87.45V18l-.72-.33Zm-2.36-1.23 1.14.59.1-.08-1.29-.6Zm4.5 2.35L25 20.67l.2.09a1.87 1.87 0 0 0 1.17 0l-4.68-2.18ZM17 15.68l1.25-.38-.06-.1-1.19.43Zm4.63-1.45 4-1.26a.85.85 0 0 0 .22-.09l.1-.05a1.69 1.69 0 0 0 .73-.72L21.63 14Zm-1.4.23-.91.33a.16.16 0 0 0 0 .07v.07l.83-.26Zm-2.88-1.05 3.32-6.36a1 1 0 0 0 .09-.22.42.42 0 0 0 0-.1 1.79 1.79 0 0 0 0-.89L17.43 13Zm.16-1.04 2.36-5.69s0-.09.05-.13v-.13a.43.43 0 0 0 0-.11v-.72a.88.88 0 0 0-.05-.15l-2.26 6.2Zm-4.74-3.3.52.35-1.14-2.75-.06-.12-.09-.1a.36.36 0 0 0-.07-.1l-.06-.09-.07-.08-.07-.08-.07-.1-.07-.06h-.31ZM8.21 12.8h.2l-1.73-.72h-.13L6.29 12h-.78l-.2.07 3 1.09Zm2.05 5.57-3.58 1.48-.13.06-.12.09-.1.07a.71.71 0 0 0-.09.07l-.08.06-.06.07H6v.28l4.81-2.24Zm3.44 3.17-1.57 3.79a.5.5 0 0 0 0 .13 1.74 1.74 0 0 0 0 1.23L14 21.51Zm4.8.51 1.36 3.28.06.12a.75.75 0 0 0 .07.12.61.61 0 0 0 .07.1l.07.09a.27.27 0 0 0 .07.08l.07.08.07.06.06.06.07.05h.12a.66.66 0 0 0 .19.09l-2.09-4.51Zm1.29-4.48.57.24v-.23l-.4-.14Zm1.84.77 3.7 1.53h1.3l-5.05-1.85ZM17 16.43l1.43.6.12-.09-1.55-.57Zm0-.86 1.11-.45v-.06l-1 .49ZM20.25 14l-1.09.51.08.13 1-.41.01-.23Zm1.38-.33 3.7-1.52.13-.07h.23l.06-.06.06-.06.06-.05v-.06l.05-.06v-.1l-4.68 2.17Zm-3.93-3.62a.61.61 0 0 1 .08.32l1.48-4.68a2.12 2.12 0 0 0-.05-1.34l-.06-.13-1.52 5.7Zm-4.7.16-1.76-3.36-.15-.31L11 6.4a2.4 2.4 0 0 0-.18-.26 1.91 1.91 0 0 0-.91-.67l3.28 5.68ZM8.51 14l-.1-.38-2.25-.72-.32-.1h-.15a2.5 2.5 0 0 0-.61-.09h-.2a1.71 1.71 0 0 0-.66.18Zm2.21 4.74-3.87 2-.45.26a2.52 2.52 0 0 0-.49.37 1.77 1.77 0 0 0-.47.75l5.5-3.18Zm3.55 2.74-1.53 4.83a2.28 2.28 0 0 0 0 1.07 1.49 1.49 0 0 0 .15.4l1.69-6.33Zm4.61.03 1.89 3.63.23.44a2 2 0 0 0 1.11 1l-3-5.19a.33.33 0 0 0-.23.12Zm1.24-4.21.24.08v-.08a.57.57 0 0 0 0-.14Zm1.51.48 4.69 1.48a2.49 2.49 0 0 0 .6.09 1.83 1.83 0 0 0 .8-.17.14.14 0 0 0 .06 0l-6.15-1.64ZM17 16.31l1.7.54.13-.09-1.83-.5Zm.06-.86 1-.5-.06-.09-.92.53Zm3.23-1.92-1 .58-.15.26 1.13-.59a2.29 2.29 0 0 1 .02-.25Zm1.34-.45 3.53-1.84.44-.24a2.12 2.12 0 0 0 .63-.53 1.44 1.44 0 0 0 .32-.58l-4.93 2.85Zm-4.41-3.97.07.15.15.29 1.09-4.91a2.74 2.74 0 0 0 0-.5 2 2 0 0 0 0-.25 1.86 1.86 0 0 0-.27-.8Zm-3.9 2.68-3.25-5.12-.16-.25-.15-.24a2.61 2.61 0 0 0-.62-.62 1.65 1.65 0 0 0-.66-.3l5 7.08ZM8.6 14.35l-3.95-.88a2.44 2.44 0 0 0-.66 0 1.9 1.9 0 0 0-.89.28l5.6 1Zm2.55 4.73-5 3.16a2.1 2.1 0 0 0-.93 1.28l6.1-4.27Zm3.9 2.32h-.26l-1.19 5.39-.13.56a2.23 2.23 0 0 0 .15 1.37 1.14 1.14 0 0 0 .1.19Zm4.36-.04 2.52 4 .1.17.2.31a2.24 2.24 0 0 0 1.21.91h.07l-3.76-5.37ZM17 16.21l2 .45a.18.18 0 0 0 .09-.12L17 16.17Zm4.63 1.04 5.72 1.28a2.64 2.64 0 0 0 1 0 1.6 1.6 0 0 0 .59-.24L21.63 17ZM20.29 13l-.64.44-.2.36.83-.53a2.26 2.26 0 0 0 .01-.27Zm-3.22 2.32.85-.54-.06-.09-.78.56Zm4.56-2.9L25.46 10l.35-.23a1.84 1.84 0 0 0 .19-.18 2.4 2.4 0 0 0 .53-.65 1.83 1.83 0 0 0 .18-.46l-5.11 3.58ZM17 8.64l.58-4.42.1-.68a2.81 2.81 0 0 0-.09-1 1.9 1.9 0 0 0-.33-.65l-.56 6.18Zm-3.47 4.13L8.36 6a2.29 2.29 0 0 0-1.46-.85l6.71 8ZM8.78 15l-5.24-.7h-.19a2.23 2.23 0 0 0-1.46.43l7 .62Zm2.77 4.41-5 3.81-.55.43A2.37 2.37 0 0 0 5.16 25a.45.45 0 0 0 0 .08l6.6-5.54Zm3.74 1.96-.87 6.56-.07.53a2.4 2.4 0 0 0 .39 1.62l.76-8.77Zm4.82 0L23.65 26a2.2 2.2 0 0 0 1.45.87l-4.6-5.48Zm-1.74-2.5.31.63.49.63h.3l-1.12-1.33a.25.25 0 0 0 .02.07Zm3.26-2.12 6.83.9a2.4 2.4 0 0 0 1.62-.39l-8.48-.74ZM17 16.11l2 .27-.09-.15-1.91-.15Zm.09-.94.72-.55-.65.54Zm4.54-3.48 3.89-3 .48-.34a2.77 2.77 0 0 0 .47-.5 2.67 2.67 0 0 0 .22-.36 1.93 1.93 0 0 0 .18-.59l-5.22 4.39Zm-1.36.78c-.05 0-.1 0-.13.09l-.26.47.4-.3-.01-.26Z"/><path fill="#f9d900" d="M21.63 15.51V8.68a.55.55 0 0 0 0-.18v-.23h-.09l-.3.25-.07.07a2.67 2.67 0 0 0-.56.77 1.09 1.09 0 0 0-.08.15l-.29.5-.51.84c-.14.24-.26.49-.41.73l-.17.29-.53.9-.17.28-.4.67-.25.41a.4.4 0 0 0 0 .24v.06l.05.08.06.08v.08L18 15v.14l.06.08.06.09.06.09.06.1.06.09.07.11.06.1v.07l.07.11.12.18.05.08.1.14a.14.14 0 0 1 0 .11.18.18 0 0 1-.09.12l-.11.09-.13.1-.12.08-.11.09h-.07l-.1.08-.09.07-.1.07.15.21-.09.07-.08.07-.09.06-.16-.27a1.76 1.76 0 0 1-.12-.2v-.08l-.06-.09-.08-.12-.06-.12-.06-.09v-.2a.14.14 0 0 1 0-.06.08.08 0 0 1 0-.05.07.07 0 0 1 0-.05v-2.26l.05-.28v-.33l.06-.46.09-.58.13-.86.13-.92v-.22a.61.61 0 0 0-.08-.32l-.07-.13-.2-.36a2.59 2.59 0 0 0-.14-.29l-.08-.15-.09-.46-.28-.57-.19-.37-.33-.66.14 11.11.12.27.07.16a.14.14 0 0 1 0 .09l-.11.13-.05.06v2.44H17c.16 0 .19.05.11.18l-.12.18-.22.32-.22.34-.17.27v2.48l.33-.46.14-.19.17-.25.3-.42.13-.19.12-.18a3.81 3.81 0 0 0 .24-.32l.22-.32.21-.32.07-.11.13-.18.2-.27.17-.25a.33.33 0 0 1 .22-.14h2.53v-5.97Zm-4.53 4.57h-.23c0-.08.09-.15.13-.22 0-.07.1-.08.16 0l.24.25Zm3.26-2.78V20c0 .09 0 .13-.14.13h-1.07a.26.26 0 0 1-.23-.16l-.24-.47-.31-.64a.08.08 0 0 1 0-.07.14.14 0 0 1 0-.09l.16-.13.12-.09.13-.11.13-.1.13-.11.13-.11.14-.11.14-.11.15-.13.15-.13.17-.13.16-.13.19-.15a.5.5 0 0 1 .05.13Zm-.13-1.3h-.07l-.16-.18-.12-.17-.1-.15v-.05l-.07-.1-.09-.15-.1-.14-.08-.13-.05-.07a.43.43 0 0 1 0-.07l-.08-.13-.07-.13v-.07a.08.08 0 0 1 0-.08l.15-.27.16-.3.2-.36.24-.42.25-.47.13-.09v1.07a2.09 2.09 0 0 1 0 .25V16Z"/><path fill="#e30613" d="m16.35 21.32-.03-2.44-.01-.51v-.21l-.14-11.11v-.01l-.17.33-.34.68-.3.6-.25.5-.24.46-.19.39-.14.27-.09-.06-.34-.23-.4-.27-.43-.29-.51-.35-.02-.01.24 1.14.19.92.14.67.12.55.09.43.08.38.04.19.08.39.05.23.04.21.04.18.04.18-.53-.55-.89-.93-1.09-1.14-.07.16-.1.25-.11.26-.1.24-.1.24-.1.23-.03.08-.79-.17-1.58-.35-.2-.05.1.4.1.4.1.39.09.36.09.36.09.33.08.34.05.19.1.38-.15.05-1.1.34.01.01.41.33.36.3.35.27.3.25.3.24.27.22.26.22.25.19.23.19.22.18.22.18.21.16.21.17.19.16.2.16.11.09.27.22.01.01-.17.5-.24.7-.24.69.07-.01.43-.05.38-.04.37-.04.33-.03.33-.04.3-.03.29-.03.28-.03.27-.03.25-.03.26-.02.24-.03.24-.03.15-.01.14-.02-.1 3.96h.68l-.01-.21-.03-2.48-.01-1.26z"/><path fill="#fff" d="M41.5 8.15A3.08 3.08 0 0 0 44 7l-.68-.7a2.19 2.19 0 0 1-1.82.89 2.13 2.13 0 0 1-2.11-2.29 2.12 2.12 0 0 1 2.17-2.26 2.55 2.55 0 0 1 1.76.67l.56-.73a3.28 3.28 0 0 0-2.35-.92 3.13 3.13 0 0 0-3.25 3.24 3.14 3.14 0 0 0 3.22 3.25Zm5.24-2.64c-1.25 0-2.08.52-2.08 1.45A1.15 1.15 0 0 0 46 8.11a1.69 1.69 0 0 0 1.47-.7l.13.59h.67V5.38c0-1-.65-1.52-1.7-1.52a4.15 4.15 0 0 0-1.72.42l.29.76a3.15 3.15 0 0 1 1.28-.33c.52 0 .84.21.84.64v.18Zm.55.67c0 .75-.45 1.18-1 1.18-.37 0-.59-.17-.59-.49s.42-.71 1.15-.71Zm3.1-.4a1 1 0 0 1 1-1.06c.49 0 .7.32.7.84V8h1V5.47c0-1-.51-1.65-1.45-1.65a1.6 1.6 0 0 0-1.38.76l-.2-.65h-.68V8h1ZM56 5.51c-1.22 0-2 .49-2 1.49a1.15 1.15 0 0 0 1.29 1.15 1.69 1.69 0 0 0 1.47-.7l.18.62h.67V5.38c0-1-.64-1.52-1.69-1.52a4.16 4.16 0 0 0-1.73.42l.29.76a3.11 3.11 0 0 1 1.27-.33c.53 0 .84.21.84.64v.18Zm.55.67c0 .75-.45 1.18-1 1.18-.37 0-.59-.17-.59-.49s.43-.71 1.15-.71Zm3.87 1.95a1.76 1.76 0 0 0 1.48-.72l.18.62h.69V1.41h-1v3a1.81 1.81 0 0 0-1.37-.58 2 2 0 0 0-2 2.12 2 2 0 0 0 2.02 2.18Zm.2-3.42A1.16 1.16 0 0 1 61.8 6a1.17 1.17 0 1 1-2.34 0 1.16 1.16 0 0 1 1.16-1.27Zm5.12.8c-1.25 0-2.08.52-2.08 1.45A1.15 1.15 0 0 0 65 8.11a1.67 1.67 0 0 0 1.46-.7l.19.62h.67V5.38c0-1-.65-1.52-1.7-1.52a4.08 4.08 0 0 0-1.72.42l.28.76a3.19 3.19 0 0 1 1.28-.33c.53 0 .84.21.84.64v.18Zm.55.67a1.05 1.05 0 0 1-1 1.18c-.37 0-.59-.17-.59-.49s.43-.71 1.15-.71Zm2.01-.67h2.58v.87H68.3zm8.7.3v-4h-1v4a1.42 1.42 0 0 1-2.84 0v-4H72v4a2.51 2.51 0 0 0 5 0Zm2.3.48 1.46 1.74h1.17v-.05l-1.77-2.06 1.63-1.94v-.05h-1.13L79.3 5.56V1.41h-1.01v6.62h1.01V6.29zm4.14-1.75-.19-.61h-.68V8h1V5.8a.94.94 0 0 1 1-1 1.6 1.6 0 0 1 .53.09l.24-.89a1.34 1.34 0 0 0-.7-.17 1.26 1.26 0 0 0-1.2.71Zm4.89 2.87.18.62h.68V5.38c0-1-.65-1.52-1.7-1.52a4.11 4.11 0 0 0-1.72.42l.29.76a3.11 3.11 0 0 1 1.27-.33c.53 0 .84.21.84.63v.19h-.51C86.4 5.51 85.58 6 85.58 7a1.14 1.14 0 0 0 1.29 1.15 1.67 1.67 0 0 0 1.46-.74Zm-1.76-.54c0-.45.43-.71 1.15-.71h.48c0 .75-.45 1.18-1 1.18-.41.03-.63-.15-.63-.47Zm3.74 1.16h1v-4.1h-1v4.1zm.5-4.95a.63.63 0 0 0 .6-.65.63.63 0 1 0-1.25 0 .59.59 0 0 0 .65.65Zm3.94.74a1.58 1.58 0 0 0-1.38.76l-.2-.65h-.68V8h1V5.78a1 1 0 0 1 1-1.06c.5 0 .7.32.7.84V8h1V5.47c0-1.05-.5-1.65-1.44-1.65Zm4.53 4.33a2.42 2.42 0 0 0 1.61-.57l-.43-.64a1.6 1.6 0 0 1-1.08.39 1.24 1.24 0 0 1-1.31-1h3a3.71 3.71 0 0 0 0-.47 1.8 1.8 0 0 0-1.86-2A2.08 2.08 0 0 0 97.07 6a2.09 2.09 0 0 0 2.21 2.15Zm-.12-3.51a.91.91 0 0 1 .93 1h-2a1.12 1.12 0 0 1 1.09-1Zm-60.54 7.48v6.25h1.09v-2.28H41a2 2 0 0 0 2.12-2 2 2 0 0 0-2.1-2Zm3.4 2a1 1 0 0 1-1.14 1h-1.17v-2.1h1.2A1 1 0 0 1 42 14.13Zm5.88 2.2a2.21 2.21 0 1 0-2.21 2.17 2.11 2.11 0 0 0 2.21-2.17Zm-2.21 1.28a1.19 1.19 0 0 1-1.19-1.28 1.19 1.19 0 1 1 2.37 0 1.18 1.18 0 0 1-1.18 1.28Zm4.13-5.85h-1.01v6.62h1.02l-.01-6.62zM51 18.37h1.01v-4.1H51v4.1zm.48-6.21a.64.64 0 0 0-.6.65v.06a.59.59 0 0 0 .63.54.63.63 0 1 0 0-1.25Zm3.57 6.34a2.18 2.18 0 0 0 1.65-.64l-.51-.67a1.4 1.4 0 0 1-1 .43 1.2 1.2 0 0 1-1.21-1.3A1.21 1.21 0 0 1 55.16 15a1.37 1.37 0 0 1 1 .35l.49-.67a2.2 2.2 0 0 0-1.53-.55 2.08 2.08 0 0 0-2.16 2.16 2.09 2.09 0 0 0 2.09 2.21Zm5.42-1.23a1.49 1.49 0 0 1-1.08.39 1.24 1.24 0 0 1-1.31-1H61a3.88 3.88 0 0 0 0-.48 1.8 1.8 0 0 0-1.87-2 2.17 2.17 0 0 0 .11 4.33 2.37 2.37 0 0 0 1.59-.57ZM59.18 15a.92.92 0 0 1 .94 1h-2a1.1 1.1 0 0 1 1.06-1Zm10.45.25a3 3 0 0 0-3.19-3.14H64.2v6.26h2.25a3 3 0 0 0 3.18-3.12Zm-3.23 2.18h-1.11v-4.38h1.1a2 2 0 0 1 2.13 2.2 2 2 0 0 1-2.12 2.18Zm6.1-3.27a2.17 2.17 0 1 0 .1 4.33 2.4 2.4 0 0 0 1.6-.57l-.42-.65a1.51 1.51 0 0 1-1.09.39 1.23 1.23 0 0 1-1.3-1h2.94v-.48a1.8 1.8 0 0 0-1.83-2.02ZM71.4 16a1.09 1.09 0 0 1 1.08-1c.54 0 .9.35.94 1Zm5.68.11a5.32 5.32 0 0 0-.25.77 5.36 5.36 0 0 0-.26-.77l-.8-1.84h-1.11l1.94 4.11h.4l2-4.11h-1.1Zm4.21-1.95a2.08 2.08 0 0 0-2.11 2.15 2.09 2.09 0 0 0 2.21 2.18 2.38 2.38 0 0 0 1.6-.57l-.42-.65a1.51 1.51 0 0 1-1.08.39 1.24 1.24 0 0 1-1.31-1h2.94a3.88 3.88 0 0 0 0-.48 1.8 1.8 0 0 0-1.83-2.02ZM80.19 16a1.1 1.1 0 0 1 1.08-1 .92.92 0 0 1 .94 1Zm3.86-4.25v6.62h1.01v-6.62h-1.01zm4.13 2.41a2.17 2.17 0 1 0 0 4.33 2.17 2.17 0 1 0 0-4.33Zm0 3.44A1.18 1.18 0 0 1 87 16.32a1.19 1.19 0 1 1 2.37 0 1.18 1.18 0 0 1-1.19 1.28Zm5.5-3.43a1.79 1.79 0 0 0-1.49.72l-.19-.62h-.68v6.12h1v-2.51a1.85 1.85 0 0 0 1.38.58 2 2 0 0 0 2-2.17 2 2 0 0 0-2.02-2.12Zm-.21 3.43a1.18 1.18 0 0 1-1.19-1.29 1.17 1.17 0 0 1 1.19-1.26 1.16 1.16 0 0 1 1.15 1.28 1.17 1.17 0 0 1-1.16 1.27Zm7.86-3.44a1.5 1.5 0 0 0-1.33.72 1.28 1.28 0 0 0-1.23-.72 1.43 1.43 0 0 0-1.31.76l-.2-.65h-.69v4.1h1v-2.2c0-.55.28-1.11.9-1.11a.68.68 0 0 1 .68.77v2.54h1v-2.2c0-.55.28-1.11.92-1.11.4 0 .66.28.66.77v2.53h1v-2.63c0-.96-.5-1.57-1.4-1.57Zm4.38 0a2.17 2.17 0 0 0 .11 4.33 2.42 2.42 0 0 0 1.6-.57l-.43-.65a1.48 1.48 0 0 1-1.08.39 1.24 1.24 0 0 1-1.31-1h3a3.87 3.87 0 0 0 0-.48 1.8 1.8 0 0 0-1.89-2.02Zm-1.1 1.84a1.1 1.1 0 0 1 1.09-1 .92.92 0 0 1 .93 1Zm6.13-1.84a1.57 1.57 0 0 0-1.38.75l-.2-.64h-.69v4.1h1v-2.25a1 1 0 0 1 1-1.06c.5 0 .7.32.7.84v2.47h1V15.8c.01-1.04-.49-1.64-1.43-1.64Zm4.26 3.38c-.26 0-.45-.12-.45-.52v-1.9h1.27v-.86h-1.27V13h-1v1.32h-.73v.8h.73v2c0 .92.5 1.34 1.22 1.34a2.38 2.38 0 0 0 1.25-.38l-.33-.75a1.27 1.27 0 0 1-.69.21Zm6.33-5.42h-2.4v6.25H120v-2.28h1.29a2 2 0 0 0 2.12-2 2 2 0 0 0-2.08-1.97Zm-.14 3.05H120v-2.1h1.2a1 1 0 0 1 1.12 1.06 1 1 0 0 1-1.14 1Zm3.81-.29-.2-.61h-.68v4.1h1v-2.23a.93.93 0 0 1 1-1 1.21 1.21 0 0 1 .53.09l.26-.85a1.39 1.39 0 0 0-.72-.17 1.24 1.24 0 0 0-1.19.67Zm4.3-.72a2.08 2.08 0 0 0-2.19 2.16 2.09 2.09 0 0 0 2.19 2.17 2.17 2.17 0 1 0 0-4.33Zm0 3.44a1.18 1.18 0 0 1-1.18-1.28 1.19 1.19 0 1 1 2.37 0 1.18 1.18 0 0 1-1.19 1.28Zm3.7-5.4a.63.63 0 0 0-.63.62.63.63 0 0 0 1.25 0 .62.62 0 0 0-.62-.62Zm-.53 6.22c0 .79-.18 1.16-1.05 1.23l.13.85c1.47-.07 1.93-.74 1.93-2.08v-4.15h-1Zm4.04-4.26a2.17 2.17 0 1 0 .1 4.33 2.38 2.38 0 0 0 1.6-.57l-.42-.65a1.51 1.51 0 0 1-1.09.39 1.23 1.23 0 0 1-1.3-1h2.94v-.48a1.8 1.8 0 0 0-1.83-2.02Zm-1.1 1.84a1.1 1.1 0 0 1 1.08-1 .92.92 0 0 1 .94 1Zm5.82 1.62a1.2 1.2 0 0 1-1.2-1.3 1.21 1.21 0 0 1 1.22-1.32 1.36 1.36 0 0 1 1 .35l.49-.67a2.18 2.18 0 0 0-1.52-.55 2.17 2.17 0 0 0-.05 4.34 2.19 2.19 0 0 0 1.66-.64l-.51-.67a1.44 1.44 0 0 1-1.09.46Zm4.77-.29a1.33 1.33 0 0 1-.69.21c-.27 0-.45-.12-.45-.52v-1.9h1.27v-.86h-1.27V13h-1v1.32h-.72v.8h.72v2c0 .92.49 1.34 1.23 1.34a2.38 2.38 0 0 0 1.24-.38ZM41.52 29.14a2.14 2.14 0 0 1-2.13-2.28 2.12 2.12 0 0 1 2.17-2.25 2.46 2.46 0 0 1 1.76.67l.56-.73a3.19 3.19 0 0 0-2.35-.92A3.24 3.24 0 1 0 44 29l-.68-.7a2.25 2.25 0 0 1-1.8.84Zm8.23-1.43a1.43 1.43 0 0 1-2.85 0v-4h-1.08v4a2.51 2.51 0 0 0 5 0v-4h-1.07Zm5.83-3.96h-2.4V30h1.09v-2.28h1.29a2 2 0 0 0 2.12-2 2 2 0 0 0-2.1-1.97Zm-.13 3.05h-1.18v-2.1h1.21a1 1 0 0 1 1.11 1.06 1 1 0 0 1-1.14 1Zm6.39-3.05H59.6V30h2.25A3 3 0 0 0 65 26.88a3 3 0 0 0-3.16-3.13Zm0 5.31h-1.15v-4.38h1.1a2.06 2.06 0 0 1 2.13 2.2 2 2 0 0 1-2.12 2.18Zm7.7-5.31h-2.4V30h1.09v-2.28h1.29a1.94 1.94 0 0 0 2.11-2 2 2 0 0 0-2.09-1.97Zm-.14 3.05h-1.17v-2.1h1.2a1 1 0 0 1 1.11 1.06 1 1 0 0 1-1.14 1Z"/></svg>