<svg xmlns="http://www.w3.org/2000/svg" viewBox="0 0 24 24" fill="none"><path  stroke-linecap="round" stroke-linejoin="round" stroke-width="2" d="M19.47 2.4c1.17 0 2.13.94 2.13 2.1v3.6c0 1.16-.96 2.1-2.13 2.1h-3.2a2.12 2.12 0 0 1-2.14-2.1V4.5c0-1.16.96-2.1 2.14-2.1h3.2ZM4.53 2.4c-1.17 0-2.13.94-2.13 2.1v3.6c0 1.16.96 2.1 2.13 2.1h3.2c1.18 0 2.14-.94 2.14-2.1V4.5c0-1.16-.96-2.1-2.14-2.1h-3.2ZM19.47 13.8c1.17 0 2.13.94 2.13 2.1v3.6c0 1.16-.96 2.1-2.13 2.1h-3.2a2.12 2.12 0 0 1-2.14-2.1v-3.6c0-1.16.96-2.1 2.14-2.1h3.2ZM4.53 13.8c-1.17 0-2.13.94-2.13 2.1v3.6c0 1.16.96 2.1 2.13 2.1h3.2c1.18 0 2.14-.94 2.14-2.1v-3.6c0-1.16-.96-2.1-2.14-2.1h-3.2Z"/></svg>
