<svg xmlns="http://www.w3.org/2000/svg" width="24" height="24" viewBox="0 0 24 24"><path d="m22.23,0H1.77C1.3,0,.85.19.52.52c-.33.33-.52.78-.52,1.25v20.46c0,.47.19.92.52,1.25.33.33.78.52,1.25.52h20.46c.47,0,.92-.19,1.25-.52.33-.33.52-.78.52-1.25V1.77c0-.47-.19-.92-.52-1.25C23.15.19,22.7,0,22.23,0ZM7.15,20.44h-3.61v-11.46h3.61v11.46Zm-1.81-13.05c-.41,0-.81-.13-1.15-.35-.34-.23-.6-.55-.76-.93-.15-.38-.19-.8-.11-1.2.08-.4.28-.77.57-1.06.29-.29.66-.48,1.06-.56.4-.08.82-.04,1.2.12.38.16.7.42.93.76.23.34.35.74.35,1.15,0,.27-.05.55-.15.8-.1.25-.26.48-.45.68-.19.19-.43.35-.68.45-.25.1-.53.15-.8.15Zm15.11,13.06h-3.61v-6.26c0-1.85-.78-2.42-1.8-2.42-1.07,0-2.12.81-2.12,2.46v6.22h-3.61v-11.46h3.47v1.59h.05c.35-.7,1.57-1.91,3.43-1.91,2.01,0,4.19,1.19,4.19,4.69v7.09Z"/></svg>
