<svg xmlns="http://www.w3.org/2000/svg" width="24" height="24" viewBox="0 0 24 24"><path d="m7.55,21.5c9.06,0,14.01-7.31,14.01-13.65,0-.21,0-.41-.01-.62.96-.68,1.8-1.52,2.46-2.48-.9.39-1.85.64-2.83.75,1.03-.6,1.8-1.54,2.16-2.65-.97.56-2.02.95-3.13,1.16-.74-.77-1.72-1.28-2.79-1.45-1.07-.17-2.17,0-3.12.51-.96.5-1.72,1.29-2.16,2.25-.45.96-.56,2.04-.31,3.07-1.96-.1-3.87-.59-5.62-1.45-1.75-.86-3.29-2.08-4.53-3.56-.63,1.06-.82,2.31-.54,3.5.28,1.19,1.02,2.23,2.06,2.91-.78-.02-1.55-.23-2.23-.6v.06c0,1.11.39,2.18,1.11,3.04.72.86,1.72,1.45,2.84,1.66-.72.19-1.49.22-2.22.08.31.95.93,1.79,1.75,2.38s1.82.93,2.85.95c-1.02.78-2.19,1.36-3.44,1.7-1.25.34-2.56.44-3.85.29,2.25,1.41,4.87,2.15,7.55,2.15"/></svg>
